<?xml version="1.0" encoding="UTF-8" standalone="no"?>
<svg width="176.389mm" height="88.1944mm"
 viewBox="0 0 500 250"
 xmlns="http://www.w3.org/2000/svg" xmlns:xlink="http://www.w3.org/1999/xlink"  version="1.2" baseProfile="tiny">
<title>Qt SVG Document</title>
<desc>Generated with Qt</desc>
<defs>
</defs>
<g fill="none" stroke="black" stroke-width="1" fill-rule="evenodd" stroke-linecap="square" stroke-linejoin="bevel" >

<g fill="#ffffff" fill-opacity="1" stroke="none" transform="matrix(1,0,0,1,0,0)"
font-family="Sans Serif" font-size="9" font-weight="400" font-style="normal" 
>
<rect x="0" y="0" width="500" height="250"/>
</g>

<g fill="none" stroke="#000000" stroke-opacity="1" stroke-width="1" stroke-linecap="round" stroke-linejoin="round" transform="matrix(1,0,0,1,0,0)"
font-family="Sans Serif" font-size="9" font-weight="400" font-style="normal" 
>
<polyline fill="none" vector-effect="non-scaling-stroke" points="65,244 68,243 69,242 69,241 69,240 70,240 70,239 70,238 70,238 70,237 71,237 71,236 71,236 71,235 71,235 71,234 71,234 71,233 71,233 71,233 71,232 71,232 71,231 71,231 71,230 71,230 71,230 71,229 71,229 71,228 71,228 71,228 71,227 71,227 71,226 71,226 71,226 71,225 71,225 71,224 71,224 71,224 71,223 71,223 71,222 71,222 71,221 71,221 71,220 70,220 70,219 70,219 70,218 70,218 69,217 69,216 69,216 68,215 68,214 66,213 65,213 62,215 62,216 61,217 61,217 61,218 60,219 60,219 60,220 60,220 60,221 60,221 60,222 59,222 59,223 59,223 59,224 59,224 59,225 59,225 59,225 59,226 59,226 59,227 59,227 59,227 59,228 59,228 59,229 59,229 59,229 59,230 59,230 59,231 59,231 59,231 59,232 59,232 59,233 59,233 59,233 59,234 59,234 59,235 60,235 60,236 60,236 60,237 60,237 60,238 60,238 60,239 61,239 61,240 61,241 61,241 62,242 62,243 63,244 64,244 65,244 " />
<polyline fill="none" vector-effect="non-scaling-stroke" points="65,229 84,229 " />
<polyline fill="none" vector-effect="non-scaling-stroke" points="90,213 88,214 87,215 86,216 86,217 86,218 86,218 85,219 85,220 85,220 85,221 85,221 85,222 85,222 85,223 84,223 84,223 84,224 84,224 84,225 84,225 84,226 84,226 84,226 84,227 84,227 84,228 84,228 84,228 84,229 84,229 84,230 84,230 84,230 84,231 84,231 84,232 84,232 84,233 84,233 84,233 84,234 84,234 85,235 85,235 85,236 85,236 85,236 85,237 85,237 85,238 85,239 86,239 86,240 86,240 86,241 87,242 87,242 88,243 89,244 90,244 " />
<polyline fill="none" vector-effect="non-scaling-stroke" points="90,213 224,213 " />
<polyline fill="none" vector-effect="non-scaling-stroke" points="224,213 90,213 " />
<polyline fill="none" vector-effect="non-scaling-stroke" points="90,244 224,244 " />
<polyline fill="none" vector-effect="non-scaling-stroke" points="224,244 226,244 228,244 230,244 232,244 234,244 236,243 238,243 239,242 241,242 243,241 245,241 247,240 249,239 251,238 253,237 254,236 256,235 258,234 259,233 261,232 263,231 264,230 266,228 267,227 269,226 270,224 271,223 273,221 274,220 275,218 276,216 277,215 278,213 279,211 280,209 281,208 282,206 283,204 283,202 284,200 284,198 285,196 285,194 286,192 286,190 286,188 287,186 287,184 287,182 287,181 " />
<polyline fill="none" vector-effect="non-scaling-stroke" points="224,213 226,213 228,213 230,212 232,212 234,211 235,211 237,210 239,209 241,208 242,207 244,206 245,204 247,203 248,201 249,200 251,198 252,196 252,195 253,193 254,191 254,189 255,187 255,185 255,183 255,181 " />
<polyline fill="none" vector-effect="non-scaling-stroke" points="255,181 255,44 " />
<polyline fill="none" vector-effect="non-scaling-stroke" points="287,181 287,44 " />
<polyline fill="none" vector-effect="non-scaling-stroke" points="287,44 286,41 284,41 283,40 283,40 282,39 281,39 281,39 280,39 280,39 279,38 279,38 278,38 278,38 277,38 277,38 276,38 276,38 275,38 275,38 275,38 274,38 274,38 273,38 273,38 273,38 272,38 272,38 271,38 271,38 271,38 270,38 270,38 269,38 269,38 269,38 268,38 268,38 267,38 267,38 266,38 266,38 266,38 265,38 265,38 264,38 264,38 263,38 263,39 262,39 262,39 261,39 261,39 260,39 259,40 259,40 258,40 257,41 257,42 256,43 256,45 257,47 258,47 259,48 260,48 261,48 261,49 262,49 262,49 263,49 263,49 264,49 264,50 265,50 265,50 266,50 266,50 267,50 267,50 267,50 268,50 268,50 269,50 269,50 269,50 270,50 270,50 271,50 271,50 271,50 272,50 272,50 273,50 273,50 274,50 274,50 274,50 275,50 275,50 276,50 276,50 276,50 277,50 277,50 278,50 278,49 279,49 279,49 280,49 280,49 281,49 281,49 282,48 282,48 283,48 284,48 284,47 285,47 286,46 287,45 287,44 " />
<polyline fill="none" vector-effect="non-scaling-stroke" points="271,44 271,4 " />
<polyline fill="none" vector-effect="non-scaling-stroke" points="287,44 287,4 " />
<polyline fill="none" vector-effect="non-scaling-stroke" points="271,4 115,4 " />
<polyline fill="none" vector-effect="non-scaling-stroke" points="443,4 287,4 " />
</g>
</g>
</svg>
