<?xml version="1.0" encoding="UTF-8" standalone="no"?>
<svg width="176.389mm" height="88.1944mm"
 viewBox="0 0 500 250"
 xmlns="http://www.w3.org/2000/svg" xmlns:xlink="http://www.w3.org/1999/xlink"  version="1.2" baseProfile="tiny">
<title>Qt SVG Document</title>
<desc>Generated with Qt</desc>
<defs>
</defs>
<g fill="none" stroke="black" stroke-width="1" fill-rule="evenodd" stroke-linecap="square" stroke-linejoin="bevel" >

<g fill="#ffffff" fill-opacity="1" stroke="none" transform="matrix(1,0,0,1,0,0)"
font-family="Sans Serif" font-size="9" font-weight="400" font-style="normal" 
>
<rect x="0" y="0" width="500" height="250"/>
</g>

<g fill="none" stroke="#000000" stroke-opacity="1" stroke-width="1" stroke-linecap="round" stroke-linejoin="round" transform="matrix(1,0,0,1,0,0)"
font-family="Sans Serif" font-size="9" font-weight="400" font-style="normal" 
>
<polyline fill="none" vector-effect="non-scaling-stroke" points="219,213 222,211 222,210 223,209 223,209 223,208 223,208 223,207 223,207 224,206 224,206 224,205 224,205 224,204 224,204 224,203 224,203 224,203 224,202 224,202 224,201 224,201 224,201 224,200 224,200 224,199 224,199 224,199 224,198 224,198 224,197 224,197 224,196 223,196 223,196 223,195 223,195 223,194 223,193 222,193 222,192 222,191 221,191 220,190 218,190 217,192 216,193 216,193 216,194 216,195 215,195 215,196 215,196 215,197 215,197 215,198 215,198 215,199 215,199 215,199 215,200 215,200 215,201 215,201 215,201 215,202 215,202 215,203 215,203 215,203 215,204 215,204 215,205 215,205 215,205 215,206 215,206 215,207 215,207 216,208 216,208 216,209 216,209 216,210 217,211 217,211 218,212 219,213 219,213 " />
<polyline fill="none" vector-effect="non-scaling-stroke" points="219,201 233,201 " />
<polyline fill="none" vector-effect="non-scaling-stroke" points="238,190 235,192 235,192 234,193 234,194 234,194 234,195 234,196 234,196 234,197 233,197 233,197 233,198 233,198 233,199 233,199 233,200 233,200 233,200 233,201 233,201 233,202 233,202 233,202 233,203 233,203 233,204 233,204 233,204 233,205 233,205 234,206 234,206 234,207 234,207 234,208 234,208 234,209 234,209 235,210 235,210 235,211 236,212 237,213 238,213 " />
<polyline fill="none" vector-effect="non-scaling-stroke" points="238,190 335,190 " />
<polyline fill="none" vector-effect="non-scaling-stroke" points="335,190 238,190 " />
<polyline fill="none" vector-effect="non-scaling-stroke" points="238,213 335,213 " />
<polyline fill="none" vector-effect="non-scaling-stroke" points="335,213 337,213 339,213 341,212 343,212 345,212 347,211 349,211 351,210 353,209 355,209 357,208 358,207 360,206 362,205 363,203 365,202 366,201 368,199 369,198 371,197 372,195 373,193 374,192 375,190 376,188 377,186 378,185 379,183 379,181 380,179 380,177 381,175 381,173 381,171 381,169 382,167 " />
<polyline fill="none" vector-effect="non-scaling-stroke" points="335,190 337,190 339,190 341,189 343,188 345,188 347,187 349,186 350,185 352,183 353,182 354,180 355,179 356,177 357,175 358,173 358,171 358,169 359,167 " />
<polyline fill="none" vector-effect="non-scaling-stroke" points="359,167 359,66 " />
<polyline fill="none" vector-effect="non-scaling-stroke" points="382,167 382,66 " />
<polyline fill="none" vector-effect="non-scaling-stroke" points="382,66 380,64 379,63 378,63 378,63 377,62 376,62 376,62 375,62 375,62 374,62 374,62 373,62 373,62 373,62 372,62 372,62 371,62 371,62 371,62 370,62 370,62 369,62 369,62 369,62 368,62 368,62 367,62 367,62 367,62 366,62 366,62 365,62 365,62 364,62 364,62 363,62 363,63 362,63 362,63 361,63 360,64 359,64 359,65 359,67 361,69 362,69 362,69 363,70 363,70 364,70 365,70 365,70 365,70 366,70 366,70 367,71 367,71 368,71 368,71 369,71 369,71 369,71 370,71 370,71 371,71 371,71 371,71 372,71 372,71 373,71 373,71 373,71 374,70 374,70 375,70 375,70 376,70 376,70 377,70 377,70 378,70 378,69 379,69 379,69 380,68 381,68 382,66 382,66 " />
<polyline fill="none" vector-effect="non-scaling-stroke" points="370,66 370,37 " />
<polyline fill="none" vector-effect="non-scaling-stroke" points="382,66 382,37 " />
<polyline fill="none" vector-effect="non-scaling-stroke" points="370,37 256,37 " />
<polyline fill="none" vector-effect="non-scaling-stroke" points="496,37 382,37 " />
<polyline fill="none" vector-effect="non-scaling-stroke" points="103,213 106,211 106,210 107,209 107,209 107,208 107,208 107,207 108,207 108,206 108,206 108,205 108,205 108,204 108,204 108,203 108,203 108,203 108,202 108,202 108,201 108,201 108,201 108,200 108,200 108,199 108,199 108,199 108,198 108,198 108,197 108,197 108,196 108,196 107,196 107,195 107,195 107,194 107,193 107,193 106,192 106,191 105,191 104,190 102,190 101,192 100,193 100,193 100,194 100,195 100,195 99,196 99,196 99,197 99,197 99,198 99,198 99,199 99,199 99,199 99,200 99,200 99,201 99,201 99,201 99,202 99,202 99,203 99,203 99,203 99,204 99,204 99,205 99,205 99,205 99,206 99,206 99,207 100,207 100,208 100,208 100,209 100,209 100,210 101,211 101,211 102,212 103,213 103,213 " />
<polyline fill="none" vector-effect="non-scaling-stroke" points="103,201 117,201 " />
<polyline fill="none" vector-effect="non-scaling-stroke" points="122,190 119,192 119,192 119,193 118,194 118,194 118,195 118,196 118,196 118,197 118,197 117,197 117,198 117,198 117,199 117,199 117,200 117,200 117,200 117,201 117,201 117,202 117,202 117,202 117,203 117,203 117,204 117,204 117,204 117,205 117,205 118,206 118,206 118,207 118,207 118,208 118,208 118,209 118,209 119,210 119,210 119,211 120,212 121,213 122,213 " />
<polyline fill="none" vector-effect="non-scaling-stroke" points="122,190 219,190 " />
<polyline fill="none" vector-effect="non-scaling-stroke" points="219,190 122,190 " />
<polyline fill="none" vector-effect="non-scaling-stroke" points="122,213 219,213 " />
<polyline fill="none" vector-effect="non-scaling-stroke" points="103,190 6,190 " />
<polyline fill="none" vector-effect="non-scaling-stroke" points="6,213 103,213 " />
<polyline fill="none" vector-effect="non-scaling-stroke" points="50,159 46,166 " />
<polyline fill="none" vector-effect="non-scaling-stroke" points="46,159 50,159 " />
<polyline fill="none" vector-effect="non-scaling-stroke" points="46,166 50,166 " />
<polyline fill="none" vector-effect="non-scaling-stroke" points="55,159 54,159 " />
<polyline fill="none" vector-effect="non-scaling-stroke" points="54,159 53,160 " />
<polyline fill="none" vector-effect="non-scaling-stroke" points="53,160 53,162 " />
<polyline fill="none" vector-effect="non-scaling-stroke" points="53,162 53,163 " />
<polyline fill="none" vector-effect="non-scaling-stroke" points="53,163 53,164 " />
<polyline fill="none" vector-effect="non-scaling-stroke" points="53,164 54,165 " />
<polyline fill="none" vector-effect="non-scaling-stroke" points="54,165 55,166 " />
</g>

<g fill="#000000" fill-opacity="1" stroke="none" transform="matrix(1,0,0,1,0,0)"
font-family="Sans Serif" font-size="9" font-weight="400" font-style="normal" 
>
<circle cx="55" cy="166" r="0.5"/>
</g>

<g fill="none" stroke="#000000" stroke-opacity="1" stroke-width="1" stroke-linecap="round" stroke-linejoin="round" transform="matrix(1,0,0,1,0,0)"
font-family="Sans Serif" font-size="9" font-weight="400" font-style="normal" 
>
<polyline fill="none" vector-effect="non-scaling-stroke" points="55,166 56,165 " />
<polyline fill="none" vector-effect="non-scaling-stroke" points="56,165 57,164 " />
<polyline fill="none" vector-effect="non-scaling-stroke" points="57,164 57,163 " />
<polyline fill="none" vector-effect="non-scaling-stroke" points="57,163 57,162 " />
<polyline fill="none" vector-effect="non-scaling-stroke" points="57,162 57,160 " />
<polyline fill="none" vector-effect="non-scaling-stroke" points="57,160 56,159 " />
<polyline fill="none" vector-effect="non-scaling-stroke" points="56,159 55,159 " />
</g>

<g fill="#000000" fill-opacity="1" stroke="none" transform="matrix(1,0,0,1,0,0)"
font-family="Sans Serif" font-size="9" font-weight="400" font-style="normal" 
>
<circle cx="55" cy="159" r="0.5"/>
</g>

<g fill="none" stroke="#000000" stroke-opacity="1" stroke-width="1" stroke-linecap="round" stroke-linejoin="round" transform="matrix(1,0,0,1,0,0)"
font-family="Sans Serif" font-size="9" font-weight="400" font-style="normal" 
>
<polyline fill="none" vector-effect="non-scaling-stroke" points="63,161 63,166 " />
<polyline fill="none" vector-effect="non-scaling-stroke" points="63,162 63,161 " />
<polyline fill="none" vector-effect="non-scaling-stroke" points="63,161 62,161 " />
<polyline fill="none" vector-effect="non-scaling-stroke" points="62,161 61,161 " />
</g>

<g fill="#000000" fill-opacity="1" stroke="none" transform="matrix(1,0,0,1,0,0)"
font-family="Sans Serif" font-size="9" font-weight="400" font-style="normal" 
>
<circle cx="61" cy="161" r="0.5"/>
</g>

<g fill="none" stroke="#000000" stroke-opacity="1" stroke-width="1" stroke-linecap="round" stroke-linejoin="round" transform="matrix(1,0,0,1,0,0)"
font-family="Sans Serif" font-size="9" font-weight="400" font-style="normal" 
>
<polyline fill="none" vector-effect="non-scaling-stroke" points="61,161 60,162 " />
<polyline fill="none" vector-effect="non-scaling-stroke" points="60,162 60,163 " />
<polyline fill="none" vector-effect="non-scaling-stroke" points="60,163 60,164 " />
<polyline fill="none" vector-effect="non-scaling-stroke" points="60,164 60,165 " />
<polyline fill="none" vector-effect="non-scaling-stroke" points="60,165 61,165 " />
<polyline fill="none" vector-effect="non-scaling-stroke" points="61,165 61,166 " />
<polyline fill="none" vector-effect="non-scaling-stroke" points="61,166 62,166 " />
<polyline fill="none" vector-effect="non-scaling-stroke" points="62,166 63,165 " />
</g>

<g fill="#000000" fill-opacity="1" stroke="none" transform="matrix(1,0,0,1,0,0)"
font-family="Sans Serif" font-size="9" font-weight="400" font-style="normal" 
>
<circle cx="63" cy="165" r="0.5"/>
</g>

<g fill="none" stroke="#000000" stroke-opacity="1" stroke-width="1" stroke-linecap="round" stroke-linejoin="round" transform="matrix(1,0,0,1,0,0)"
font-family="Sans Serif" font-size="9" font-weight="400" font-style="normal" 
>
<polyline fill="none" vector-effect="non-scaling-stroke" points="18,170 18,176 " />
<polyline fill="none" vector-effect="non-scaling-stroke" points="18,176 18,177 " />
<polyline fill="none" vector-effect="non-scaling-stroke" points="18,177 19,177 " />
</g>

<g fill="#000000" fill-opacity="1" stroke="none" transform="matrix(1,0,0,1,0,0)"
font-family="Sans Serif" font-size="9" font-weight="400" font-style="normal" 
>
<circle cx="19" cy="177" r="0.5"/>
</g>

<g fill="none" stroke="#000000" stroke-opacity="1" stroke-width="1" stroke-linecap="round" stroke-linejoin="round" transform="matrix(1,0,0,1,0,0)"
font-family="Sans Serif" font-size="9" font-weight="400" font-style="normal" 
>
<polyline fill="none" vector-effect="non-scaling-stroke" points="17,173 19,173 " />
</g>

<g fill="#000000" fill-opacity="1" stroke="none" transform="matrix(1,0,0,1,0,0)"
font-family="Sans Serif" font-size="9" font-weight="400" font-style="normal" 
>
<circle cx="23" cy="173" r="0.5"/>
</g>

<g fill="none" stroke="#000000" stroke-opacity="1" stroke-width="1" stroke-linecap="round" stroke-linejoin="round" transform="matrix(1,0,0,1,0,0)"
font-family="Sans Serif" font-size="9" font-weight="400" font-style="normal" 
>
<polyline fill="none" vector-effect="non-scaling-stroke" points="23,173 22,174 " />
<polyline fill="none" vector-effect="non-scaling-stroke" points="22,174 22,175 " />
</g>

<g fill="#000000" fill-opacity="1" stroke="none" transform="matrix(1,0,0,1,0,0)"
font-family="Sans Serif" font-size="9" font-weight="400" font-style="normal" 
>
<circle cx="22" cy="175" r="0.5"/>
</g>

<g fill="none" stroke="#000000" stroke-opacity="1" stroke-width="1" stroke-linecap="round" stroke-linejoin="round" transform="matrix(1,0,0,1,0,0)"
font-family="Sans Serif" font-size="9" font-weight="400" font-style="normal" 
>
<polyline fill="none" vector-effect="non-scaling-stroke" points="22,175 22,176 " />
<polyline fill="none" vector-effect="non-scaling-stroke" points="22,176 23,177 " />
</g>

<g fill="#000000" fill-opacity="1" stroke="none" transform="matrix(1,0,0,1,0,0)"
font-family="Sans Serif" font-size="9" font-weight="400" font-style="normal" 
>
<circle cx="23" cy="177" r="0.5"/>
</g>

<g fill="none" stroke="#000000" stroke-opacity="1" stroke-width="1" stroke-linecap="round" stroke-linejoin="round" transform="matrix(1,0,0,1,0,0)"
font-family="Sans Serif" font-size="9" font-weight="400" font-style="normal" 
>
<polyline fill="none" vector-effect="non-scaling-stroke" points="23,177 24,177 " />
<polyline fill="none" vector-effect="non-scaling-stroke" points="24,177 25,177 " />
<polyline fill="none" vector-effect="non-scaling-stroke" points="25,177 26,176 " />
<polyline fill="none" vector-effect="non-scaling-stroke" points="26,176 26,175 " />
</g>

<g fill="#000000" fill-opacity="1" stroke="none" transform="matrix(1,0,0,1,0,0)"
font-family="Sans Serif" font-size="9" font-weight="400" font-style="normal" 
>
<circle cx="26" cy="175" r="0.5"/>
</g>

<g fill="none" stroke="#000000" stroke-opacity="1" stroke-width="1" stroke-linecap="round" stroke-linejoin="round" transform="matrix(1,0,0,1,0,0)"
font-family="Sans Serif" font-size="9" font-weight="400" font-style="normal" 
>
<polyline fill="none" vector-effect="non-scaling-stroke" points="26,175 26,174 " />
<polyline fill="none" vector-effect="non-scaling-stroke" points="26,174 25,173 " />
<polyline fill="none" vector-effect="non-scaling-stroke" points="25,173 24,173 " />
<polyline fill="none" vector-effect="non-scaling-stroke" points="24,173 23,173 " />
<polyline fill="none" vector-effect="non-scaling-stroke" points="34,170 34,176 " />
<polyline fill="none" vector-effect="non-scaling-stroke" points="34,176 35,177 " />
</g>

<g fill="#000000" fill-opacity="1" stroke="none" transform="matrix(1,0,0,1,0,0)"
font-family="Sans Serif" font-size="9" font-weight="400" font-style="normal" 
>
<circle cx="35" cy="177" r="0.5"/>
</g>

<g fill="none" stroke="#000000" stroke-opacity="1" stroke-width="1" stroke-linecap="round" stroke-linejoin="round" transform="matrix(1,0,0,1,0,0)"
font-family="Sans Serif" font-size="9" font-weight="400" font-style="normal" 
>
<polyline fill="none" vector-effect="non-scaling-stroke" points="35,177 36,177 " />
<polyline fill="none" vector-effect="non-scaling-stroke" points="33,173 36,173 " />
<polyline fill="none" vector-effect="non-scaling-stroke" points="38,173 38,177 " />
<polyline fill="none" vector-effect="non-scaling-stroke" points="38,175 39,174 " />
<polyline fill="none" vector-effect="non-scaling-stroke" points="39,174 39,173 " />
<polyline fill="none" vector-effect="non-scaling-stroke" points="39,173 40,173 " />
<polyline fill="none" vector-effect="non-scaling-stroke" points="40,173 41,173 " />
<polyline fill="none" vector-effect="non-scaling-stroke" points="47,173 47,177 " />
<polyline fill="none" vector-effect="non-scaling-stroke" points="47,174 47,173 " />
<polyline fill="none" vector-effect="non-scaling-stroke" points="47,173 46,173 " />
<polyline fill="none" vector-effect="non-scaling-stroke" points="46,173 45,173 " />
<polyline fill="none" vector-effect="non-scaling-stroke" points="45,173 44,173 " />
<polyline fill="none" vector-effect="non-scaling-stroke" points="44,173 44,174 " />
<polyline fill="none" vector-effect="non-scaling-stroke" points="44,174 43,175 " />
</g>

<g fill="#000000" fill-opacity="1" stroke="none" transform="matrix(1,0,0,1,0,0)"
font-family="Sans Serif" font-size="9" font-weight="400" font-style="normal" 
>
<circle cx="43" cy="175" r="0.5"/>
</g>

<g fill="none" stroke="#000000" stroke-opacity="1" stroke-width="1" stroke-linecap="round" stroke-linejoin="round" transform="matrix(1,0,0,1,0,0)"
font-family="Sans Serif" font-size="9" font-weight="400" font-style="normal" 
>
<polyline fill="none" vector-effect="non-scaling-stroke" points="43,175 44,176 " />
<polyline fill="none" vector-effect="non-scaling-stroke" points="44,176 44,177 " />
<polyline fill="none" vector-effect="non-scaling-stroke" points="44,177 45,177 " />
<polyline fill="none" vector-effect="non-scaling-stroke" points="45,177 46,177 " />
<polyline fill="none" vector-effect="non-scaling-stroke" points="46,177 47,177 " />
<polyline fill="none" vector-effect="non-scaling-stroke" points="47,177 47,176 " />
<polyline fill="none" vector-effect="non-scaling-stroke" points="50,173 50,177 " />
<polyline fill="none" vector-effect="non-scaling-stroke" points="50,174 51,173 " />
</g>

<g fill="#000000" fill-opacity="1" stroke="none" transform="matrix(1,0,0,1,0,0)"
font-family="Sans Serif" font-size="9" font-weight="400" font-style="normal" 
>
<circle cx="51" cy="173" r="0.5"/>
</g>

<g fill="none" stroke="#000000" stroke-opacity="1" stroke-width="1" stroke-linecap="round" stroke-linejoin="round" transform="matrix(1,0,0,1,0,0)"
font-family="Sans Serif" font-size="9" font-weight="400" font-style="normal" 
>
<polyline fill="none" vector-effect="non-scaling-stroke" points="51,173 52,173 " />
<polyline fill="none" vector-effect="non-scaling-stroke" points="52,173 53,173 " />
<polyline fill="none" vector-effect="non-scaling-stroke" points="53,173 53,174 " />
<polyline fill="none" vector-effect="non-scaling-stroke" points="53,174 53,177 " />
<polyline fill="none" vector-effect="non-scaling-stroke" points="59,174 59,173 " />
<polyline fill="none" vector-effect="non-scaling-stroke" points="59,173 58,173 " />
<polyline fill="none" vector-effect="non-scaling-stroke" points="58,173 57,173 " />
<polyline fill="none" vector-effect="non-scaling-stroke" points="57,173 56,173 " />
<polyline fill="none" vector-effect="non-scaling-stroke" points="56,173 55,174 " />
<polyline fill="none" vector-effect="non-scaling-stroke" points="55,174 56,174 " />
<polyline fill="none" vector-effect="non-scaling-stroke" points="56,174 56,175 " />
<polyline fill="none" vector-effect="non-scaling-stroke" points="56,175 58,175 " />
<polyline fill="none" vector-effect="non-scaling-stroke" points="58,175 59,175 " />
<polyline fill="none" vector-effect="non-scaling-stroke" points="59,175 59,176 " />
</g>

<g fill="#000000" fill-opacity="1" stroke="none" transform="matrix(1,0,0,1,0,0)"
font-family="Sans Serif" font-size="9" font-weight="400" font-style="normal" 
>
<circle cx="59" cy="176" r="0.5"/>
</g>

<g fill="none" stroke="#000000" stroke-opacity="1" stroke-width="1" stroke-linecap="round" stroke-linejoin="round" transform="matrix(1,0,0,1,0,0)"
font-family="Sans Serif" font-size="9" font-weight="400" font-style="normal" 
>
<polyline fill="none" vector-effect="non-scaling-stroke" points="59,176 59,177 " />
<polyline fill="none" vector-effect="non-scaling-stroke" points="59,177 58,177 " />
<polyline fill="none" vector-effect="non-scaling-stroke" points="58,177 57,177 " />
<polyline fill="none" vector-effect="non-scaling-stroke" points="57,177 56,177 " />
<polyline fill="none" vector-effect="non-scaling-stroke" points="56,177 55,176 " />
<polyline fill="none" vector-effect="non-scaling-stroke" points="61,173 61,177 " />
<polyline fill="none" vector-effect="non-scaling-stroke" points="61,174 62,173 " />
<polyline fill="none" vector-effect="non-scaling-stroke" points="62,173 63,173 " />
<polyline fill="none" vector-effect="non-scaling-stroke" points="63,173 64,173 " />
<polyline fill="none" vector-effect="non-scaling-stroke" points="64,173 65,173 " />
<polyline fill="none" vector-effect="non-scaling-stroke" points="65,173 65,174 " />
<polyline fill="none" vector-effect="non-scaling-stroke" points="65,174 65,177 " />
<polyline fill="none" vector-effect="non-scaling-stroke" points="65,174 66,173 " />
<polyline fill="none" vector-effect="non-scaling-stroke" points="66,173 67,173 " />
<polyline fill="none" vector-effect="non-scaling-stroke" points="67,173 68,173 " />
</g>

<g fill="#000000" fill-opacity="1" stroke="none" transform="matrix(1,0,0,1,0,0)"
font-family="Sans Serif" font-size="9" font-weight="400" font-style="normal" 
>
<circle cx="68" cy="173" r="0.5"/>
</g>

<g fill="none" stroke="#000000" stroke-opacity="1" stroke-width="1" stroke-linecap="round" stroke-linejoin="round" transform="matrix(1,0,0,1,0,0)"
font-family="Sans Serif" font-size="9" font-weight="400" font-style="normal" 
>
<polyline fill="none" vector-effect="non-scaling-stroke" points="68,173 69,174 " />
<polyline fill="none" vector-effect="non-scaling-stroke" points="69,174 69,177 " />
<polyline fill="none" vector-effect="non-scaling-stroke" points="71,170 71,171 " />
<polyline fill="none" vector-effect="non-scaling-stroke" points="71,171 71,170 " />
</g>

<g fill="#000000" fill-opacity="1" stroke="none" transform="matrix(1,0,0,1,0,0)"
font-family="Sans Serif" font-size="9" font-weight="400" font-style="normal" 
>
<circle cx="71" cy="170" r="0.5"/>
</g>

<g fill="none" stroke="#000000" stroke-opacity="1" stroke-width="1" stroke-linecap="round" stroke-linejoin="round" transform="matrix(1,0,0,1,0,0)"
font-family="Sans Serif" font-size="9" font-weight="400" font-style="normal" 
>
</g>

<g fill="#000000" fill-opacity="1" stroke="none" transform="matrix(1,0,0,1,0,0)"
font-family="Sans Serif" font-size="9" font-weight="400" font-style="normal" 
>
<circle cx="71" cy="170" r="0.5"/>
</g>

<g fill="none" stroke="#000000" stroke-opacity="1" stroke-width="1" stroke-linecap="round" stroke-linejoin="round" transform="matrix(1,0,0,1,0,0)"
font-family="Sans Serif" font-size="9" font-weight="400" font-style="normal" 
>
<polyline fill="none" vector-effect="non-scaling-stroke" points="71,173 71,177 " />
<polyline fill="none" vector-effect="non-scaling-stroke" points="75,170 75,176 " />
<polyline fill="none" vector-effect="non-scaling-stroke" points="75,176 75,177 " />
<polyline fill="none" vector-effect="non-scaling-stroke" points="75,177 76,177 " />
</g>

<g fill="#000000" fill-opacity="1" stroke="none" transform="matrix(1,0,0,1,0,0)"
font-family="Sans Serif" font-size="9" font-weight="400" font-style="normal" 
>
<circle cx="76" cy="177" r="0.5"/>
</g>

<g fill="none" stroke="#000000" stroke-opacity="1" stroke-width="1" stroke-linecap="round" stroke-linejoin="round" transform="matrix(1,0,0,1,0,0)"
font-family="Sans Serif" font-size="9" font-weight="400" font-style="normal" 
>
<polyline fill="none" vector-effect="non-scaling-stroke" points="74,173 76,173 " />
<polyline fill="none" vector-effect="non-scaling-stroke" points="80,170 80,176 " />
<polyline fill="none" vector-effect="non-scaling-stroke" points="80,176 80,177 " />
<polyline fill="none" vector-effect="non-scaling-stroke" points="80,177 81,177 " />
</g>

<g fill="#000000" fill-opacity="1" stroke="none" transform="matrix(1,0,0,1,0,0)"
font-family="Sans Serif" font-size="9" font-weight="400" font-style="normal" 
>
<circle cx="81" cy="177" r="0.5"/>
</g>

<g fill="none" stroke="#000000" stroke-opacity="1" stroke-width="1" stroke-linecap="round" stroke-linejoin="round" transform="matrix(1,0,0,1,0,0)"
font-family="Sans Serif" font-size="9" font-weight="400" font-style="normal" 
>
<polyline fill="none" vector-effect="non-scaling-stroke" points="79,173 81,173 " />
<polyline fill="none" vector-effect="non-scaling-stroke" points="84,175 88,175 " />
<polyline fill="none" vector-effect="non-scaling-stroke" points="88,175 88,174 " />
<polyline fill="none" vector-effect="non-scaling-stroke" points="88,174 87,173 " />
</g>

<g fill="#000000" fill-opacity="1" stroke="none" transform="matrix(1,0,0,1,0,0)"
font-family="Sans Serif" font-size="9" font-weight="400" font-style="normal" 
>
<circle cx="87" cy="173" r="0.5"/>
</g>

<g fill="none" stroke="#000000" stroke-opacity="1" stroke-width="1" stroke-linecap="round" stroke-linejoin="round" transform="matrix(1,0,0,1,0,0)"
font-family="Sans Serif" font-size="9" font-weight="400" font-style="normal" 
>
<polyline fill="none" vector-effect="non-scaling-stroke" points="87,173 86,173 " />
<polyline fill="none" vector-effect="non-scaling-stroke" points="86,173 85,173 " />
</g>

<g fill="#000000" fill-opacity="1" stroke="none" transform="matrix(1,0,0,1,0,0)"
font-family="Sans Serif" font-size="9" font-weight="400" font-style="normal" 
>
<circle cx="85" cy="173" r="0.5"/>
</g>

<g fill="none" stroke="#000000" stroke-opacity="1" stroke-width="1" stroke-linecap="round" stroke-linejoin="round" transform="matrix(1,0,0,1,0,0)"
font-family="Sans Serif" font-size="9" font-weight="400" font-style="normal" 
>
<polyline fill="none" vector-effect="non-scaling-stroke" points="85,173 84,174 " />
<polyline fill="none" vector-effect="non-scaling-stroke" points="84,174 84,175 " />
</g>

<g fill="#000000" fill-opacity="1" stroke="none" transform="matrix(1,0,0,1,0,0)"
font-family="Sans Serif" font-size="9" font-weight="400" font-style="normal" 
>
<circle cx="84" cy="175" r="0.5"/>
</g>

<g fill="none" stroke="#000000" stroke-opacity="1" stroke-width="1" stroke-linecap="round" stroke-linejoin="round" transform="matrix(1,0,0,1,0,0)"
font-family="Sans Serif" font-size="9" font-weight="400" font-style="normal" 
>
<polyline fill="none" vector-effect="non-scaling-stroke" points="84,175 84,176 " />
<polyline fill="none" vector-effect="non-scaling-stroke" points="84,176 85,177 " />
</g>

<g fill="#000000" fill-opacity="1" stroke="none" transform="matrix(1,0,0,1,0,0)"
font-family="Sans Serif" font-size="9" font-weight="400" font-style="normal" 
>
<circle cx="85" cy="177" r="0.5"/>
</g>

<g fill="none" stroke="#000000" stroke-opacity="1" stroke-width="1" stroke-linecap="round" stroke-linejoin="round" transform="matrix(1,0,0,1,0,0)"
font-family="Sans Serif" font-size="9" font-weight="400" font-style="normal" 
>
<polyline fill="none" vector-effect="non-scaling-stroke" points="85,177 86,177 " />
<polyline fill="none" vector-effect="non-scaling-stroke" points="86,177 87,177 " />
<polyline fill="none" vector-effect="non-scaling-stroke" points="87,177 88,176 " />
<polyline fill="none" vector-effect="non-scaling-stroke" points="90,173 90,177 " />
<polyline fill="none" vector-effect="non-scaling-stroke" points="90,175 90,174 " />
<polyline fill="none" vector-effect="non-scaling-stroke" points="90,174 91,173 " />
</g>

<g fill="#000000" fill-opacity="1" stroke="none" transform="matrix(1,0,0,1,0,0)"
font-family="Sans Serif" font-size="9" font-weight="400" font-style="normal" 
>
<circle cx="91" cy="173" r="0.5"/>
</g>

<g fill="none" stroke="#000000" stroke-opacity="1" stroke-width="1" stroke-linecap="round" stroke-linejoin="round" transform="matrix(1,0,0,1,0,0)"
font-family="Sans Serif" font-size="9" font-weight="400" font-style="normal" 
>
<polyline fill="none" vector-effect="non-scaling-stroke" points="91,173 92,173 " />
<polyline fill="none" vector-effect="non-scaling-stroke" points="166,164 162,171 " />
<polyline fill="none" vector-effect="non-scaling-stroke" points="162,164 166,164 " />
<polyline fill="none" vector-effect="non-scaling-stroke" points="162,171 166,171 " />
<polyline fill="none" vector-effect="non-scaling-stroke" points="171,164 170,164 " />
<polyline fill="none" vector-effect="non-scaling-stroke" points="170,164 169,165 " />
<polyline fill="none" vector-effect="non-scaling-stroke" points="169,165 169,167 " />
<polyline fill="none" vector-effect="non-scaling-stroke" points="169,167 169,168 " />
<polyline fill="none" vector-effect="non-scaling-stroke" points="169,168 169,170 " />
<polyline fill="none" vector-effect="non-scaling-stroke" points="169,170 170,171 " />
<polyline fill="none" vector-effect="non-scaling-stroke" points="170,171 171,171 " />
</g>

<g fill="#000000" fill-opacity="1" stroke="none" transform="matrix(1,0,0,1,0,0)"
font-family="Sans Serif" font-size="9" font-weight="400" font-style="normal" 
>
<circle cx="171" cy="171" r="0.5"/>
</g>

<g fill="none" stroke="#000000" stroke-opacity="1" stroke-width="1" stroke-linecap="round" stroke-linejoin="round" transform="matrix(1,0,0,1,0,0)"
font-family="Sans Serif" font-size="9" font-weight="400" font-style="normal" 
>
<polyline fill="none" vector-effect="non-scaling-stroke" points="171,171 172,171 " />
<polyline fill="none" vector-effect="non-scaling-stroke" points="172,171 173,170 " />
<polyline fill="none" vector-effect="non-scaling-stroke" points="173,170 173,168 " />
<polyline fill="none" vector-effect="non-scaling-stroke" points="173,168 173,167 " />
<polyline fill="none" vector-effect="non-scaling-stroke" points="173,167 173,165 " />
<polyline fill="none" vector-effect="non-scaling-stroke" points="173,165 172,164 " />
<polyline fill="none" vector-effect="non-scaling-stroke" points="172,164 171,164 " />
</g>

<g fill="#000000" fill-opacity="1" stroke="none" transform="matrix(1,0,0,1,0,0)"
font-family="Sans Serif" font-size="9" font-weight="400" font-style="normal" 
>
<circle cx="171" cy="164" r="0.5"/>
</g>

<g fill="none" stroke="#000000" stroke-opacity="1" stroke-width="1" stroke-linecap="round" stroke-linejoin="round" transform="matrix(1,0,0,1,0,0)"
font-family="Sans Serif" font-size="9" font-weight="400" font-style="normal" 
>
<polyline fill="none" vector-effect="non-scaling-stroke" points="176,164 176,171 " />
</g>

<g fill="#000000" fill-opacity="1" stroke="none" transform="matrix(1,0,0,1,0,0)"
font-family="Sans Serif" font-size="9" font-weight="400" font-style="normal" 
>
<circle cx="176" cy="167" r="0.5"/>
</g>

<g fill="none" stroke="#000000" stroke-opacity="1" stroke-width="1" stroke-linecap="round" stroke-linejoin="round" transform="matrix(1,0,0,1,0,0)"
font-family="Sans Serif" font-size="9" font-weight="400" font-style="normal" 
>
<polyline fill="none" vector-effect="non-scaling-stroke" points="176,167 177,166 " />
<polyline fill="none" vector-effect="non-scaling-stroke" points="177,166 178,166 " />
<polyline fill="none" vector-effect="non-scaling-stroke" points="178,166 178,167 " />
<polyline fill="none" vector-effect="non-scaling-stroke" points="178,167 179,167 " />
<polyline fill="none" vector-effect="non-scaling-stroke" points="179,167 179,168 " />
<polyline fill="none" vector-effect="non-scaling-stroke" points="179,168 179,169 " />
<polyline fill="none" vector-effect="non-scaling-stroke" points="179,169 179,170 " />
<polyline fill="none" vector-effect="non-scaling-stroke" points="179,170 178,171 " />
</g>

<g fill="#000000" fill-opacity="1" stroke="none" transform="matrix(1,0,0,1,0,0)"
font-family="Sans Serif" font-size="9" font-weight="400" font-style="normal" 
>
<circle cx="178" cy="171" r="0.5"/>
</g>

<g fill="none" stroke="#000000" stroke-opacity="1" stroke-width="1" stroke-linecap="round" stroke-linejoin="round" transform="matrix(1,0,0,1,0,0)"
font-family="Sans Serif" font-size="9" font-weight="400" font-style="normal" 
>
<polyline fill="none" vector-effect="non-scaling-stroke" points="178,171 177,171 " />
<polyline fill="none" vector-effect="non-scaling-stroke" points="177,171 176,171 " />
<polyline fill="none" vector-effect="non-scaling-stroke" points="176,171 176,170 " />
<polyline fill="none" vector-effect="non-scaling-stroke" points="282,164 278,171 " />
<polyline fill="none" vector-effect="non-scaling-stroke" points="278,164 282,164 " />
<polyline fill="none" vector-effect="non-scaling-stroke" points="278,171 282,171 " />
<polyline fill="none" vector-effect="non-scaling-stroke" points="287,164 286,165 " />
<polyline fill="none" vector-effect="non-scaling-stroke" points="286,165 285,166 " />
<polyline fill="none" vector-effect="non-scaling-stroke" points="285,166 285,167 " />
<polyline fill="none" vector-effect="non-scaling-stroke" points="285,167 285,168 " />
<polyline fill="none" vector-effect="non-scaling-stroke" points="285,168 285,170 " />
<polyline fill="none" vector-effect="non-scaling-stroke" points="285,170 286,171 " />
<polyline fill="none" vector-effect="non-scaling-stroke" points="286,171 287,171 " />
</g>

<g fill="#000000" fill-opacity="1" stroke="none" transform="matrix(1,0,0,1,0,0)"
font-family="Sans Serif" font-size="9" font-weight="400" font-style="normal" 
>
<circle cx="287" cy="171" r="0.5"/>
</g>

<g fill="none" stroke="#000000" stroke-opacity="1" stroke-width="1" stroke-linecap="round" stroke-linejoin="round" transform="matrix(1,0,0,1,0,0)"
font-family="Sans Serif" font-size="9" font-weight="400" font-style="normal" 
>
<polyline fill="none" vector-effect="non-scaling-stroke" points="287,171 288,171 " />
<polyline fill="none" vector-effect="non-scaling-stroke" points="288,171 289,170 " />
<polyline fill="none" vector-effect="non-scaling-stroke" points="289,170 289,168 " />
<polyline fill="none" vector-effect="non-scaling-stroke" points="289,168 289,167 " />
<polyline fill="none" vector-effect="non-scaling-stroke" points="289,167 289,166 " />
<polyline fill="none" vector-effect="non-scaling-stroke" points="289,166 288,165 " />
<polyline fill="none" vector-effect="non-scaling-stroke" points="288,165 287,164 " />
</g>

<g fill="#000000" fill-opacity="1" stroke="none" transform="matrix(1,0,0,1,0,0)"
font-family="Sans Serif" font-size="9" font-weight="400" font-style="normal" 
>
<circle cx="287" cy="164" r="0.5"/>
</g>

<g fill="none" stroke="#000000" stroke-opacity="1" stroke-width="1" stroke-linecap="round" stroke-linejoin="round" transform="matrix(1,0,0,1,0,0)"
font-family="Sans Serif" font-size="9" font-weight="400" font-style="normal" 
>
<polyline fill="none" vector-effect="non-scaling-stroke" points="295,166 295,171 " />
</g>

<g fill="#000000" fill-opacity="1" stroke="none" transform="matrix(1,0,0,1,0,0)"
font-family="Sans Serif" font-size="9" font-weight="400" font-style="normal" 
>
<circle cx="295" cy="167" r="0.5"/>
</g>

<g fill="none" stroke="#000000" stroke-opacity="1" stroke-width="1" stroke-linecap="round" stroke-linejoin="round" transform="matrix(1,0,0,1,0,0)"
font-family="Sans Serif" font-size="9" font-weight="400" font-style="normal" 
>
<polyline fill="none" vector-effect="non-scaling-stroke" points="295,167 294,166 " />
<polyline fill="none" vector-effect="non-scaling-stroke" points="294,166 293,166 " />
<polyline fill="none" vector-effect="non-scaling-stroke" points="293,166 292,167 " />
</g>

<g fill="#000000" fill-opacity="1" stroke="none" transform="matrix(1,0,0,1,0,0)"
font-family="Sans Serif" font-size="9" font-weight="400" font-style="normal" 
>
<circle cx="292" cy="167" r="0.5"/>
</g>

<g fill="none" stroke="#000000" stroke-opacity="1" stroke-width="1" stroke-linecap="round" stroke-linejoin="round" transform="matrix(1,0,0,1,0,0)"
font-family="Sans Serif" font-size="9" font-weight="400" font-style="normal" 
>
<polyline fill="none" vector-effect="non-scaling-stroke" points="292,167 291,168 " />
<polyline fill="none" vector-effect="non-scaling-stroke" points="291,168 291,169 " />
<polyline fill="none" vector-effect="non-scaling-stroke" points="291,169 292,170 " />
<polyline fill="none" vector-effect="non-scaling-stroke" points="292,170 292,171 " />
<polyline fill="none" vector-effect="non-scaling-stroke" points="292,171 293,171 " />
<polyline fill="none" vector-effect="non-scaling-stroke" points="293,171 294,171 " />
<polyline fill="none" vector-effect="non-scaling-stroke" points="294,171 295,171 " />
<polyline fill="none" vector-effect="non-scaling-stroke" points="295,171 295,170 " />
</g>
</g>
</svg>
