<?xml version="1.0" encoding="UTF-8" standalone="no"?>
<svg width="352.778mm" height="176.389mm"
 viewBox="0 0 1000 500"
 xmlns="http://www.w3.org/2000/svg" xmlns:xlink="http://www.w3.org/1999/xlink"  version="1.2" baseProfile="tiny">
<title>Qt SVG Document</title>
<desc>Generated with Qt</desc>
<defs>
</defs>
<g fill="none" stroke="black" stroke-width="1" fill-rule="evenodd" stroke-linecap="square" stroke-linejoin="bevel" >

<g fill="#ffffff" fill-opacity="1" stroke="none" transform="matrix(1,0,0,1,0,0)"
font-family="Sans Serif" font-size="9" font-weight="400" font-style="normal" 
>
<rect x="0" y="0" width="1000" height="500"/>
</g>

<g fill="none" stroke="#000000" stroke-opacity="1" stroke-width="2" stroke-linecap="round" stroke-linejoin="round" transform="matrix(1,0,0,1,0,0)"
font-family="Sans Serif" font-size="9" font-weight="400" font-style="normal" 
>
<polyline fill="none" vector-effect="none" points="437,427 440,426 441,425 442,424 443,423 443,422 443,421 444,421 444,420 444,419 444,419 445,418 445,418 445,417 445,417 445,416 445,416 446,415 446,415 446,414 446,414 446,413 446,413 446,412 446,412 446,411 446,411 446,411 446,410 446,410 446,409 446,409 446,408 446,408 447,408 447,407 447,407 447,406 447,406 447,406 447,405 447,405 447,404 447,404 447,404 447,403 447,403 447,402 447,402 447,402 447,401 447,401 447,400 446,400 446,400 446,399 446,399 446,398 446,398 446,397 446,397 446,397 446,396 446,396 446,395 446,395 446,394 446,394 446,393 446,393 445,393 445,392 445,392 445,391 445,390 445,390 445,389 444,389 444,388 444,388 444,387 443,386 443,386 443,385 442,384 442,383 441,383 440,382 438,381 436,381 434,382 433,384 432,385 432,385 431,386 431,387 431,388 431,388 430,389 430,390 430,390 430,391 430,391 429,392 429,392 429,393 429,393 429,394 429,394 429,395 429,395 429,396 429,396 429,396 429,397 428,397 428,398 428,398 428,399 428,399 428,399 428,400 428,400 428,401 428,401 428,401 428,402 428,402 428,403 428,403 428,403 428,404 428,404 428,405 428,405 428,405 428,406 428,406 428,407 428,407 428,408 428,408 428,408 428,409 428,409 428,410 428,410 428,410 428,411 429,411 429,412 429,412 429,413 429,413 429,413 429,414 429,414 429,415 429,415 429,416 429,416 430,417 430,417 430,418 430,418 430,419 430,420 431,420 431,421 431,421 432,422 432,423 432,423 433,424 433,425 434,426 436,427 437,427 " />
</g>

<g fill="none" stroke="#000000" stroke-opacity="1" stroke-width="1" stroke-linecap="round" stroke-linejoin="round" transform="matrix(1,0,0,1,0,0)"
font-family="Sans Serif" font-size="9" font-weight="400" font-style="normal" 
>
<polyline fill="none" vector-effect="non-scaling-stroke" points="437,404 465,404 " />
</g>

<g fill="none" stroke="#000000" stroke-opacity="1" stroke-width="2" stroke-linecap="round" stroke-linejoin="round" transform="matrix(1,0,0,1,0,0)"
font-family="Sans Serif" font-size="9" font-weight="400" font-style="normal" 
>
<polyline fill="none" vector-effect="none" points="474,381 472,382 471,383 470,384 469,385 469,386 468,387 468,387 468,388 468,389 467,389 467,390 467,390 467,391 467,391 467,392 466,392 466,393 466,393 466,394 466,394 466,395 466,395 466,396 466,396 466,397 466,397 466,398 465,398 465,398 465,399 465,399 465,400 465,400 465,400 465,401 465,401 465,402 465,402 465,402 465,403 465,403 465,404 465,404 465,404 465,405 465,405 465,406 465,406 465,406 465,407 465,407 465,408 465,408 465,409 465,409 465,409 465,410 466,410 466,411 466,411 466,411 466,412 466,412 466,413 466,413 466,414 466,414 466,415 466,415 466,416 467,416 467,417 467,417 467,418 467,418 467,419 467,419 468,420 468,420 468,421 468,422 469,422 469,423 470,424 470,425 471,425 472,426 473,427 474,427 " />
<polyline fill="none" vector-effect="none" points="474,381 672,381 " />
<polyline fill="none" vector-effect="none" points="672,381 474,381 " />
<polyline fill="none" vector-effect="none" points="474,427 672,427 " />
<polyline fill="none" vector-effect="none" points="672,427 674,427 676,427 678,427 680,427 682,427 684,426 686,426 688,426 690,425 691,425 693,425 695,424 697,424 699,423 701,422 703,422 705,421 707,420 709,420 710,419 712,418 714,417 716,416 718,415 719,414 721,413 723,412 724,411 726,410 728,409 729,407 731,406 732,405 734,404 735,402 737,401 738,399 740,398 741,396 742,395 743,393 745,392 746,390 747,389 748,387 749,385 751,384 752,382 753,380 754,379 755,377 755,375 756,373 757,371 758,370 759,368 759,366 760,364 761,362 761,360 762,358 762,356 763,354 763,352 764,350 764,348 764,346 764,344 765,342 765,340 765,338 765,336 765,334 " />
<polyline fill="none" vector-effect="none" points="672,381 674,381 676,381 678,380 680,380 682,380 683,379 685,379 687,378 689,377 691,377 693,376 695,375 696,374 698,373 700,372 701,370 703,369 704,368 706,366 707,365 708,363 709,362 711,360 712,358 713,357 714,355 715,353 715,351 716,349 717,347 717,346 718,344 718,342 718,340 718,338 719,336 719,334 " />
<polyline fill="none" vector-effect="none" points="719,334 719,131 " />
<polyline fill="none" vector-effect="none" points="765,334 765,131 " />
<polyline fill="none" vector-effect="none" points="765,131 764,128 763,127 762,126 761,126 760,125 759,125 759,124 758,124 757,124 757,124 756,123 755,123 755,123 754,123 754,123 753,123 753,123 752,123 752,122 751,122 751,122 751,122 750,122 750,122 749,122 749,122 748,122 748,122 747,122 747,122 747,122 746,122 746,122 745,122 745,122 745,122 744,122 744,122 743,122 743,122 743,122 742,122 742,122 741,122 741,122 741,122 740,122 740,122 739,122 739,122 739,122 738,122 738,122 737,122 737,122 736,122 736,122 736,122 735,122 735,122 734,122 734,122 734,122 733,122 733,122 732,122 732,122 731,123 731,123 730,123 730,123 729,123 729,123 728,123 728,123 727,124 727,124 726,124 725,124 725,125 724,125 723,125 723,126 722,126 721,127 720,127 719,128 719,130 719,132 720,134 721,135 722,136 723,136 724,137 725,137 725,137 726,138 727,138 727,138 728,138 728,138 729,139 730,139 730,139 731,139 731,139 732,139 732,139 732,139 733,139 733,139 734,140 734,140 735,140 735,140 736,140 736,140 736,140 737,140 737,140 738,140 738,140 738,140 739,140 739,140 740,140 740,140 740,140 741,140 741,140 742,140 742,140 742,140 743,140 743,140 744,140 744,140 745,140 745,140 745,140 746,140 746,140 747,140 747,140 747,140 748,140 748,140 749,140 749,140 749,140 750,140 750,139 751,139 751,139 752,139 752,139 753,139 753,139 754,139 754,139 755,139 755,138 756,138 756,138 757,138 757,138 758,138 759,137 759,137 760,137 761,136 761,136 762,135 763,135 764,134 765,133 765,131 " />
</g>

<g fill="none" stroke="#000000" stroke-opacity="1" stroke-width="1" stroke-linecap="round" stroke-linejoin="round" transform="matrix(1,0,0,1,0,0)"
font-family="Sans Serif" font-size="9" font-weight="400" font-style="normal" 
>
<polyline fill="none" vector-effect="non-scaling-stroke" points="742,131 742,72 " />
<polyline fill="none" vector-effect="non-scaling-stroke" points="765,131 765,72 " />
</g>

<g fill="none" stroke="#000000" stroke-opacity="1" stroke-width="2" stroke-linecap="round" stroke-linejoin="round" transform="matrix(1,0,0,1,0,0)"
font-family="Sans Serif" font-size="9" font-weight="400" font-style="normal" 
>
<polyline fill="none" vector-effect="none" points="742,72 511,72 " />
<polyline fill="none" vector-effect="none" points="996,72 765,72 " />
<polyline fill="none" vector-effect="none" points="203,427 206,426 207,425 208,424 208,423 209,422 209,421 210,421 210,420 210,419 210,419 210,418 211,418 211,417 211,417 211,416 211,416 211,415 211,415 211,414 212,414 212,413 212,413 212,412 212,412 212,411 212,411 212,411 212,410 212,410 212,409 212,409 212,408 212,408 212,408 212,407 212,407 212,406 212,406 212,406 212,405 212,405 212,404 212,404 212,404 212,403 212,403 212,402 212,402 212,402 212,401 212,401 212,400 212,400 212,400 212,399 212,399 212,398 212,398 212,397 212,397 212,397 212,396 212,396 212,395 212,395 212,394 211,394 211,393 211,393 211,393 211,392 211,392 211,391 211,390 210,390 210,389 210,389 210,388 210,388 209,387 209,386 209,386 208,385 208,384 207,383 207,383 206,382 204,381 202,381 200,382 199,384 198,385 198,385 197,386 197,387 196,388 196,388 196,389 196,390 196,390 195,391 195,391 195,392 195,392 195,393 195,393 195,394 195,394 195,395 195,395 194,396 194,396 194,396 194,397 194,397 194,398 194,398 194,399 194,399 194,399 194,400 194,400 194,401 194,401 194,401 194,402 194,402 194,403 194,403 194,403 194,404 194,404 194,405 194,405 194,405 194,406 194,406 194,407 194,407 194,408 194,408 194,408 194,409 194,409 194,410 194,410 194,410 194,411 194,411 194,412 194,412 194,413 195,413 195,413 195,414 195,414 195,415 195,415 195,416 195,416 195,417 195,417 196,418 196,418 196,419 196,420 196,420 197,421 197,421 197,422 198,423 198,423 199,424 199,425 200,426 201,427 203,427 " />
</g>

<g fill="none" stroke="#000000" stroke-opacity="1" stroke-width="1" stroke-linecap="round" stroke-linejoin="round" transform="matrix(1,0,0,1,0,0)"
font-family="Sans Serif" font-size="9" font-weight="400" font-style="normal" 
>
<polyline fill="none" vector-effect="non-scaling-stroke" points="203,404 231,404 " />
</g>

<g fill="none" stroke="#000000" stroke-opacity="1" stroke-width="2" stroke-linecap="round" stroke-linejoin="round" transform="matrix(1,0,0,1,0,0)"
font-family="Sans Serif" font-size="9" font-weight="400" font-style="normal" 
>
<polyline fill="none" vector-effect="none" points="240,381 238,382 236,383 235,384 235,385 234,386 234,387 234,387 233,388 233,389 233,389 233,390 233,390 233,391 232,391 232,392 232,392 232,393 232,393 232,394 232,394 232,395 232,395 232,396 231,396 231,397 231,397 231,398 231,398 231,398 231,399 231,399 231,400 231,400 231,400 231,401 231,401 231,402 231,402 231,402 231,403 231,403 231,404 231,404 231,404 231,405 231,405 231,406 231,406 231,406 231,407 231,407 231,408 231,408 231,409 231,409 231,409 231,410 231,410 231,411 231,411 231,411 231,412 232,412 232,413 232,413 232,414 232,414 232,415 232,415 232,416 232,416 232,417 233,417 233,418 233,418 233,419 233,419 233,420 234,420 234,421 234,422 234,422 235,423 235,424 236,425 237,425 238,426 239,427 240,427 " />
<polyline fill="none" vector-effect="none" points="240,381 437,381 " />
<polyline fill="none" vector-effect="none" points="437,381 240,381 " />
<polyline fill="none" vector-effect="none" points="240,427 437,427 " />
<polyline fill="none" vector-effect="none" points="203,381 6,381 " />
<polyline fill="none" vector-effect="none" points="6,427 203,427 " />
</g>

<g fill="none" stroke="#000000" stroke-opacity="1" stroke-width="1" stroke-linecap="round" stroke-linejoin="round" transform="matrix(1,0,0,1,0,0)"
font-family="Sans Serif" font-size="9" font-weight="400" font-style="normal" 
>
<polyline fill="none" vector-effect="non-scaling-stroke" points="203,427 240,427 " />
<polyline fill="none" vector-effect="non-scaling-stroke" points="437,427 474,427 " />
</g>

<g fill="none" stroke="#000000" stroke-opacity="1" stroke-width="2" stroke-linecap="round" stroke-linejoin="round" transform="matrix(1,0,0,1,0,0)"
font-family="Sans Serif" font-size="9" font-weight="400" font-style="normal" 
>
<polyline fill="none" vector-effect="none" points="298,329 288,342 " />
<polyline fill="none" vector-effect="none" points="288,329 298,329 " />
<polyline fill="none" vector-effect="none" points="288,342 298,342 " />
<polyline fill="none" vector-effect="none" points="306,329 304,329 " />
<polyline fill="none" vector-effect="none" points="304,329 303,331 " />
<polyline fill="none" vector-effect="none" points="303,331 302,335 " />
<polyline fill="none" vector-effect="none" points="302,335 302,337 " />
<polyline fill="none" vector-effect="none" points="302,337 303,340 " />
<polyline fill="none" vector-effect="none" points="303,340 304,342 " />
<polyline fill="none" vector-effect="none" points="304,342 306,342 " />
<polyline fill="none" vector-effect="none" points="306,342 307,342 " />
<polyline fill="none" vector-effect="none" points="307,342 309,342 " />
<polyline fill="none" vector-effect="none" points="309,342 311,340 " />
<polyline fill="none" vector-effect="none" points="311,340 311,337 " />
<polyline fill="none" vector-effect="none" points="311,337 311,335 " />
<polyline fill="none" vector-effect="none" points="311,335 311,331 " />
<polyline fill="none" vector-effect="none" points="311,331 309,329 " />
<polyline fill="none" vector-effect="none" points="309,329 307,329 " />
<polyline fill="none" vector-effect="none" points="307,329 306,329 " />
<polyline fill="none" vector-effect="none" points="316,329 316,342 " />
<polyline fill="none" vector-effect="none" points="316,335 317,334 " />
<polyline fill="none" vector-effect="none" points="317,334 319,333 " />
<polyline fill="none" vector-effect="none" points="319,333 321,333 " />
<polyline fill="none" vector-effect="none" points="321,333 322,334 " />
<polyline fill="none" vector-effect="none" points="322,334 323,335 " />
<polyline fill="none" vector-effect="none" points="323,335 324,337 " />
<polyline fill="none" vector-effect="none" points="324,337 324,339 " />
<polyline fill="none" vector-effect="none" points="324,339 323,341 " />
<polyline fill="none" vector-effect="none" points="323,341 322,342 " />
<polyline fill="none" vector-effect="none" points="322,342 321,342 " />
<polyline fill="none" vector-effect="none" points="321,342 319,342 " />
<polyline fill="none" vector-effect="none" points="319,342 317,342 " />
<polyline fill="none" vector-effect="none" points="317,342 316,341 " />
<polyline fill="none" vector-effect="none" points="339,335 351,335 " />
<polyline fill="none" vector-effect="none" points="339,339 351,339 " />
<polyline fill="none" vector-effect="none" points="375,329 369,342 " />
<polyline fill="none" vector-effect="none" points="366,329 375,329 " />
<polyline fill="none" vector-effect="none" points="388,329 381,329 " />
<polyline fill="none" vector-effect="none" points="381,329 381,335 " />
<polyline fill="none" vector-effect="none" points="381,335 381,334 " />
<polyline fill="none" vector-effect="none" points="381,334 383,333 " />
<polyline fill="none" vector-effect="none" points="383,333 385,333 " />
<polyline fill="none" vector-effect="none" points="385,333 387,334 " />
<polyline fill="none" vector-effect="none" points="387,334 389,335 " />
<polyline fill="none" vector-effect="none" points="389,335 389,337 " />
<polyline fill="none" vector-effect="none" points="389,337 389,339 " />
<polyline fill="none" vector-effect="none" points="389,339 389,341 " />
<polyline fill="none" vector-effect="none" points="389,341 387,342 " />
<polyline fill="none" vector-effect="none" points="387,342 385,342 " />
<polyline fill="none" vector-effect="none" points="385,342 383,342 " />
<polyline fill="none" vector-effect="none" points="383,342 381,342 " />
<polyline fill="none" vector-effect="none" points="381,342 381,341 " />
<polyline fill="none" vector-effect="none" points="381,341 380,340 " />
<polyline fill="none" vector-effect="none" points="499,329 490,343 " />
<polyline fill="none" vector-effect="none" points="490,329 499,329 " />
<polyline fill="none" vector-effect="none" points="490,343 499,343 " />
<polyline fill="none" vector-effect="none" points="508,329 506,330 " />
<polyline fill="none" vector-effect="none" points="506,330 504,332 " />
<polyline fill="none" vector-effect="none" points="504,332 504,335 " />
<polyline fill="none" vector-effect="none" points="504,335 504,337 " />
<polyline fill="none" vector-effect="none" points="504,337 504,340 " />
<polyline fill="none" vector-effect="none" points="504,340 506,342 " />
<polyline fill="none" vector-effect="none" points="506,342 508,343 " />
<polyline fill="none" vector-effect="none" points="508,343 509,343 " />
<polyline fill="none" vector-effect="none" points="509,343 511,342 " />
<polyline fill="none" vector-effect="none" points="511,342 512,340 " />
<polyline fill="none" vector-effect="none" points="512,340 513,337 " />
<polyline fill="none" vector-effect="none" points="513,337 513,335 " />
<polyline fill="none" vector-effect="none" points="513,335 512,332 " />
<polyline fill="none" vector-effect="none" points="512,332 511,330 " />
<polyline fill="none" vector-effect="none" points="511,330 509,329 " />
<polyline fill="none" vector-effect="none" points="509,329 508,329 " />
<polyline fill="none" vector-effect="none" points="526,334 526,343 " />
<polyline fill="none" vector-effect="none" points="526,336 524,334 " />
<polyline fill="none" vector-effect="none" points="524,334 523,334 " />
<polyline fill="none" vector-effect="none" points="523,334 521,334 " />
<polyline fill="none" vector-effect="none" points="521,334 520,334 " />
<polyline fill="none" vector-effect="none" points="520,334 518,336 " />
<polyline fill="none" vector-effect="none" points="518,336 518,338 " />
<polyline fill="none" vector-effect="none" points="518,338 518,339 " />
<polyline fill="none" vector-effect="none" points="518,339 518,341 " />
<polyline fill="none" vector-effect="none" points="518,341 520,342 " />
<polyline fill="none" vector-effect="none" points="520,342 521,343 " />
<polyline fill="none" vector-effect="none" points="521,343 523,343 " />
<polyline fill="none" vector-effect="none" points="523,343 524,342 " />
<polyline fill="none" vector-effect="none" points="524,342 526,341 " />
<polyline fill="none" vector-effect="none" points="541,335 553,335 " />
<polyline fill="none" vector-effect="none" points="541,339 553,339 " />
<polyline fill="none" vector-effect="none" points="577,329 568,343 " />
<polyline fill="none" vector-effect="none" points="568,329 577,329 " />
<polyline fill="none" vector-effect="none" points="568,343 577,343 " />
<polyline fill="none" vector-effect="none" points="586,329 584,330 " />
<polyline fill="none" vector-effect="none" points="584,330 582,332 " />
<polyline fill="none" vector-effect="none" points="582,332 582,335 " />
<polyline fill="none" vector-effect="none" points="582,335 582,337 " />
<polyline fill="none" vector-effect="none" points="582,337 582,340 " />
<polyline fill="none" vector-effect="none" points="582,340 584,342 " />
<polyline fill="none" vector-effect="none" points="584,342 586,343 " />
<polyline fill="none" vector-effect="none" points="586,343 587,343 " />
<polyline fill="none" vector-effect="none" points="587,343 589,342 " />
<polyline fill="none" vector-effect="none" points="589,342 590,340 " />
<polyline fill="none" vector-effect="none" points="590,340 591,337 " />
<polyline fill="none" vector-effect="none" points="591,337 591,335 " />
<polyline fill="none" vector-effect="none" points="591,335 590,332 " />
<polyline fill="none" vector-effect="none" points="590,332 589,330 " />
<polyline fill="none" vector-effect="none" points="589,330 587,329 " />
<polyline fill="none" vector-effect="none" points="587,329 586,329 " />
<polyline fill="none" vector-effect="none" points="606,335 618,335 " />
<polyline fill="none" vector-effect="none" points="606,339 618,339 " />
<polyline fill="none" vector-effect="none" points="641,329 634,329 " />
<polyline fill="none" vector-effect="none" points="634,329 634,335 " />
<polyline fill="none" vector-effect="none" points="634,335 634,334 " />
<polyline fill="none" vector-effect="none" points="634,334 636,334 " />
<polyline fill="none" vector-effect="none" points="636,334 638,334 " />
<polyline fill="none" vector-effect="none" points="638,334 640,334 " />
<polyline fill="none" vector-effect="none" points="640,334 642,336 " />
<polyline fill="none" vector-effect="none" points="642,336 642,338 " />
<polyline fill="none" vector-effect="none" points="642,338 642,339 " />
<polyline fill="none" vector-effect="none" points="642,339 642,341 " />
<polyline fill="none" vector-effect="none" points="642,341 640,342 " />
<polyline fill="none" vector-effect="none" points="640,342 638,343 " />
<polyline fill="none" vector-effect="none" points="638,343 636,343 " />
<polyline fill="none" vector-effect="none" points="636,343 634,342 " />
</g>

<g fill="#000000" fill-opacity="1" stroke="none" transform="matrix(1,0,0,1,0,0)"
font-family="Sans Serif" font-size="9" font-weight="400" font-style="normal" 
>
<circle cx="634" cy="342" r="1"/>
</g>

<g fill="none" stroke="#000000" stroke-opacity="1" stroke-width="2" stroke-linecap="round" stroke-linejoin="round" transform="matrix(1,0,0,1,0,0)"
font-family="Sans Serif" font-size="9" font-weight="400" font-style="normal" 
>
<polyline fill="none" vector-effect="none" points="634,342 633,340 " />
<polyline fill="none" vector-effect="none" points="651,329 649,330 " />
<polyline fill="none" vector-effect="none" points="649,330 648,332 " />
<polyline fill="none" vector-effect="none" points="648,332 647,335 " />
<polyline fill="none" vector-effect="none" points="647,335 647,337 " />
<polyline fill="none" vector-effect="none" points="647,337 648,340 " />
<polyline fill="none" vector-effect="none" points="648,340 649,342 " />
<polyline fill="none" vector-effect="none" points="649,342 651,343 " />
<polyline fill="none" vector-effect="none" points="651,343 652,343 " />
<polyline fill="none" vector-effect="none" points="652,343 654,342 " />
<polyline fill="none" vector-effect="none" points="654,342 655,340 " />
<polyline fill="none" vector-effect="none" points="655,340 656,337 " />
<polyline fill="none" vector-effect="none" points="656,337 656,335 " />
<polyline fill="none" vector-effect="none" points="656,335 655,332 " />
<polyline fill="none" vector-effect="none" points="655,332 654,330 " />
<polyline fill="none" vector-effect="none" points="654,330 652,329 " />
<polyline fill="none" vector-effect="none" points="652,329 651,329 " />
<polyline fill="none" vector-effect="none" points="70,318 60,332 " />
<polyline fill="none" vector-effect="none" points="60,318 70,318 " />
<polyline fill="none" vector-effect="none" points="60,332 70,332 " />
<polyline fill="none" vector-effect="none" points="78,318 76,319 " />
<polyline fill="none" vector-effect="none" points="76,319 75,321 " />
<polyline fill="none" vector-effect="none" points="75,321 74,324 " />
<polyline fill="none" vector-effect="none" points="74,324 74,326 " />
<polyline fill="none" vector-effect="none" points="74,326 75,329 " />
<polyline fill="none" vector-effect="none" points="75,329 76,331 " />
<polyline fill="none" vector-effect="none" points="76,331 78,332 " />
<polyline fill="none" vector-effect="none" points="78,332 79,332 " />
<polyline fill="none" vector-effect="none" points="79,332 81,331 " />
<polyline fill="none" vector-effect="none" points="81,331 83,329 " />
<polyline fill="none" vector-effect="none" points="83,329 83,326 " />
<polyline fill="none" vector-effect="none" points="83,326 83,324 " />
<polyline fill="none" vector-effect="none" points="83,324 83,321 " />
<polyline fill="none" vector-effect="none" points="83,321 81,319 " />
<polyline fill="none" vector-effect="none" points="81,319 79,318 " />
<polyline fill="none" vector-effect="none" points="79,318 78,318 " />
<polyline fill="none" vector-effect="none" points="99,324 110,324 " />
<polyline fill="none" vector-effect="none" points="99,328 110,328 " />
<polyline fill="none" vector-effect="none" points="133,318 127,318 " />
<polyline fill="none" vector-effect="none" points="127,318 126,324 " />
<polyline fill="none" vector-effect="none" points="126,324 127,323 " />
<polyline fill="none" vector-effect="none" points="127,323 129,323 " />
<polyline fill="none" vector-effect="none" points="129,323 131,323 " />
<polyline fill="none" vector-effect="none" points="131,323 133,323 " />
<polyline fill="none" vector-effect="none" points="133,323 134,325 " />
<polyline fill="none" vector-effect="none" points="134,325 135,327 " />
<polyline fill="none" vector-effect="none" points="135,327 135,328 " />
<polyline fill="none" vector-effect="none" points="135,328 134,330 " />
<polyline fill="none" vector-effect="none" points="134,330 133,331 " />
<polyline fill="none" vector-effect="none" points="133,331 131,332 " />
<polyline fill="none" vector-effect="none" points="131,332 129,332 " />
<polyline fill="none" vector-effect="none" points="129,332 127,331 " />
<polyline fill="none" vector-effect="none" points="127,331 126,331 " />
<polyline fill="none" vector-effect="none" points="126,331 126,329 " />
<polyline fill="none" vector-effect="none" points="143,318 141,319 " />
<polyline fill="none" vector-effect="none" points="141,319 140,321 " />
<polyline fill="none" vector-effect="none" points="140,321 139,324 " />
<polyline fill="none" vector-effect="none" points="139,324 139,326 " />
<polyline fill="none" vector-effect="none" points="139,326 140,329 " />
<polyline fill="none" vector-effect="none" points="140,329 141,331 " />
<polyline fill="none" vector-effect="none" points="141,331 143,332 " />
<polyline fill="none" vector-effect="none" points="143,332 145,332 " />
<polyline fill="none" vector-effect="none" points="145,332 147,331 " />
<polyline fill="none" vector-effect="none" points="147,331 148,329 " />
<polyline fill="none" vector-effect="none" points="148,329 149,326 " />
<polyline fill="none" vector-effect="none" points="149,326 149,324 " />
<polyline fill="none" vector-effect="none" points="149,324 148,321 " />
<polyline fill="none" vector-effect="none" points="148,321 147,319 " />
<polyline fill="none" vector-effect="none" points="147,319 145,318 " />
<polyline fill="none" vector-effect="none" points="145,318 143,318 " />
<polyline fill="none" vector-effect="none" points="30,341 30,353 " />
<polyline fill="none" vector-effect="none" points="30,353 31,354 " />
<polyline fill="none" vector-effect="none" points="31,354 32,355 " />
<polyline fill="none" vector-effect="none" points="32,355 33,355 " />
<polyline fill="none" vector-effect="none" points="28,346 33,346 " />
<polyline fill="none" vector-effect="none" points="41,346 40,347 " />
<polyline fill="none" vector-effect="none" points="40,347 39,348 " />
<polyline fill="none" vector-effect="none" points="39,348 38,350 " />
<polyline fill="none" vector-effect="none" points="38,350 38,351 " />
<polyline fill="none" vector-effect="none" points="38,351 39,353 " />
<polyline fill="none" vector-effect="none" points="39,353 40,354 " />
<polyline fill="none" vector-effect="none" points="40,354 41,355 " />
<polyline fill="none" vector-effect="none" points="41,355 43,355 " />
<polyline fill="none" vector-effect="none" points="43,355 45,354 " />
<polyline fill="none" vector-effect="none" points="45,354 46,353 " />
<polyline fill="none" vector-effect="none" points="46,353 47,351 " />
<polyline fill="none" vector-effect="none" points="47,351 47,350 " />
<polyline fill="none" vector-effect="none" points="47,350 46,348 " />
<polyline fill="none" vector-effect="none" points="46,348 45,347 " />
<polyline fill="none" vector-effect="none" points="45,347 43,346 " />
<polyline fill="none" vector-effect="none" points="43,346 41,346 " />
<polyline fill="none" vector-effect="none" points="64,341 64,353 " />
<polyline fill="none" vector-effect="none" points="64,353 64,354 " />
<polyline fill="none" vector-effect="none" points="64,354 66,355 " />
<polyline fill="none" vector-effect="none" points="66,355 67,355 " />
<polyline fill="none" vector-effect="none" points="62,346 66,346 " />
<polyline fill="none" vector-effect="none" points="72,346 72,355 " />
<polyline fill="none" vector-effect="none" points="72,350 72,348 " />
<polyline fill="none" vector-effect="none" points="72,348 74,347 " />
<polyline fill="none" vector-effect="none" points="74,347 75,346 " />
<polyline fill="none" vector-effect="none" points="75,346 77,346 " />
<polyline fill="none" vector-effect="none" points="90,346 90,355 " />
<polyline fill="none" vector-effect="none" points="90,348 88,347 " />
<polyline fill="none" vector-effect="none" points="88,347 87,346 " />
<polyline fill="none" vector-effect="none" points="87,346 85,346 " />
<polyline fill="none" vector-effect="none" points="85,346 84,347 " />
<polyline fill="none" vector-effect="none" points="84,347 82,348 " />
<polyline fill="none" vector-effect="none" points="82,348 82,350 " />
<polyline fill="none" vector-effect="none" points="82,350 82,351 " />
<polyline fill="none" vector-effect="none" points="82,351 82,353 " />
<polyline fill="none" vector-effect="none" points="82,353 84,354 " />
<polyline fill="none" vector-effect="none" points="84,354 85,355 " />
<polyline fill="none" vector-effect="none" points="85,355 87,355 " />
<polyline fill="none" vector-effect="none" points="87,355 88,354 " />
<polyline fill="none" vector-effect="none" points="88,354 90,353 " />
<polyline fill="none" vector-effect="none" points="94,346 94,355 " />
<polyline fill="none" vector-effect="none" points="94,349 96,347 " />
<polyline fill="none" vector-effect="none" points="96,347 97,346 " />
<polyline fill="none" vector-effect="none" points="97,346 99,346 " />
<polyline fill="none" vector-effect="none" points="99,346 101,347 " />
<polyline fill="none" vector-effect="none" points="101,347 101,349 " />
<polyline fill="none" vector-effect="none" points="101,349 101,355 " />
<polyline fill="none" vector-effect="none" points="113,348 113,347 " />
<polyline fill="none" vector-effect="none" points="113,347 111,346 " />
<polyline fill="none" vector-effect="none" points="111,346 109,346 " />
<polyline fill="none" vector-effect="none" points="109,346 107,347 " />
<polyline fill="none" vector-effect="none" points="107,347 106,348 " />
<polyline fill="none" vector-effect="none" points="106,348 107,349 " />
<polyline fill="none" vector-effect="none" points="107,349 108,350 " />
<polyline fill="none" vector-effect="none" points="108,350 111,351 " />
<polyline fill="none" vector-effect="none" points="111,351 113,351 " />
<polyline fill="none" vector-effect="none" points="113,351 113,353 " />
</g>

<g fill="#000000" fill-opacity="1" stroke="none" transform="matrix(1,0,0,1,0,0)"
font-family="Sans Serif" font-size="9" font-weight="400" font-style="normal" 
>
<circle cx="113" cy="353" r="1"/>
</g>

<g fill="none" stroke="#000000" stroke-opacity="1" stroke-width="2" stroke-linecap="round" stroke-linejoin="round" transform="matrix(1,0,0,1,0,0)"
font-family="Sans Serif" font-size="9" font-weight="400" font-style="normal" 
>
<polyline fill="none" vector-effect="none" points="113,353 113,354 " />
<polyline fill="none" vector-effect="none" points="113,354 111,355 " />
<polyline fill="none" vector-effect="none" points="111,355 109,355 " />
<polyline fill="none" vector-effect="none" points="109,355 107,354 " />
<polyline fill="none" vector-effect="none" points="107,354 106,353 " />
<polyline fill="none" vector-effect="none" points="118,346 118,355 " />
<polyline fill="none" vector-effect="none" points="118,349 120,347 " />
<polyline fill="none" vector-effect="none" points="120,347 121,346 " />
<polyline fill="none" vector-effect="none" points="121,346 123,346 " />
<polyline fill="none" vector-effect="none" points="123,346 125,347 " />
<polyline fill="none" vector-effect="none" points="125,347 125,349 " />
<polyline fill="none" vector-effect="none" points="125,349 125,355 " />
<polyline fill="none" vector-effect="none" points="125,349 127,347 " />
<polyline fill="none" vector-effect="none" points="127,347 129,346 " />
<polyline fill="none" vector-effect="none" points="129,346 131,346 " />
<polyline fill="none" vector-effect="none" points="131,346 132,347 " />
<polyline fill="none" vector-effect="none" points="132,347 133,349 " />
<polyline fill="none" vector-effect="none" points="133,349 133,355 " />
<polyline fill="none" vector-effect="none" points="137,341 138,342 " />
<polyline fill="none" vector-effect="none" points="138,342 139,341 " />
<polyline fill="none" vector-effect="none" points="139,341 138,341 " />
<polyline fill="none" vector-effect="none" points="138,341 137,341 " />
<polyline fill="none" vector-effect="none" points="138,346 138,355 " />
<polyline fill="none" vector-effect="none" points="145,341 145,353 " />
<polyline fill="none" vector-effect="none" points="145,353 146,354 " />
<polyline fill="none" vector-effect="none" points="146,354 147,355 " />
<polyline fill="none" vector-effect="none" points="147,355 148,355 " />
<polyline fill="none" vector-effect="none" points="143,346 148,346 " />
<polyline fill="none" vector-effect="none" points="155,341 155,353 " />
<polyline fill="none" vector-effect="none" points="155,353 156,354 " />
<polyline fill="none" vector-effect="none" points="156,354 157,355 " />
<polyline fill="none" vector-effect="none" points="157,355 158,355 " />
<polyline fill="none" vector-effect="none" points="153,346 158,346 " />
<polyline fill="none" vector-effect="none" points="163,350 171,350 " />
<polyline fill="none" vector-effect="none" points="171,350 171,349 " />
<polyline fill="none" vector-effect="none" points="171,349 170,347 " />
</g>

<g fill="#000000" fill-opacity="1" stroke="none" transform="matrix(1,0,0,1,0,0)"
font-family="Sans Serif" font-size="9" font-weight="400" font-style="normal" 
>
<circle cx="170" cy="347" r="1"/>
</g>

<g fill="none" stroke="#000000" stroke-opacity="1" stroke-width="2" stroke-linecap="round" stroke-linejoin="round" transform="matrix(1,0,0,1,0,0)"
font-family="Sans Serif" font-size="9" font-weight="400" font-style="normal" 
>
<polyline fill="none" vector-effect="none" points="170,347 168,346 " />
<polyline fill="none" vector-effect="none" points="168,346 166,346 " />
<polyline fill="none" vector-effect="none" points="166,346 165,347 " />
<polyline fill="none" vector-effect="none" points="165,347 164,348 " />
<polyline fill="none" vector-effect="none" points="164,348 163,350 " />
<polyline fill="none" vector-effect="none" points="163,350 163,351 " />
<polyline fill="none" vector-effect="none" points="163,351 164,353 " />
<polyline fill="none" vector-effect="none" points="164,353 165,354 " />
<polyline fill="none" vector-effect="none" points="165,354 166,355 " />
<polyline fill="none" vector-effect="none" points="166,355 168,355 " />
<polyline fill="none" vector-effect="none" points="168,355 170,354 " />
<polyline fill="none" vector-effect="none" points="170,354 171,353 " />
<polyline fill="none" vector-effect="none" points="176,346 176,355 " />
<polyline fill="none" vector-effect="none" points="176,350 176,348 " />
<polyline fill="none" vector-effect="none" points="176,348 178,347 " />
<polyline fill="none" vector-effect="none" points="178,347 179,346 " />
<polyline fill="none" vector-effect="none" points="179,346 181,346 " />
</g>
</g>
</svg>
