<?xml version="1.0" encoding="UTF-8" standalone="no"?>
<svg width="352.778mm" height="352.778mm"
 viewBox="0 0 1000 1000"
 xmlns="http://www.w3.org/2000/svg" xmlns:xlink="http://www.w3.org/1999/xlink"  version="1.2" baseProfile="tiny">
<title>Qt SVG Document</title>
<desc>Generated with Qt</desc>
<defs>
</defs>
<g fill="none" stroke="black" stroke-width="1" fill-rule="evenodd" stroke-linecap="square" stroke-linejoin="bevel" >

<g fill="#ffffff" fill-opacity="1" stroke="none" transform="matrix(1,0,0,1,0,0)"
font-family="Sans Serif" font-size="9" font-weight="400" font-style="normal" 
>
<rect x="0" y="0" width="1000" height="1000"/>
</g>

<g fill="none" stroke="#000000" stroke-opacity="1" stroke-width="2" stroke-linecap="round" stroke-linejoin="round" transform="matrix(1,0,0,1,0,0)"
font-family="Sans Serif" font-size="9" font-weight="400" font-style="normal" 
>
<polyline fill="none" vector-effect="none" points="500,606 503,605 504,604 505,603 506,602 506,601 507,600 507,599 507,599 508,598 508,597 508,597 508,596 509,596 509,595 509,594 509,594 509,593 509,593 509,592 509,592 509,591 510,591 510,591 510,590 510,590 510,589 510,589 510,588 510,588 510,587 510,587 510,587 510,586 510,586 510,585 510,585 510,585 510,584 510,584 510,583 510,583 510,583 510,582 510,582 510,581 510,581 510,581 510,580 510,580 510,579 510,579 510,579 510,578 510,578 510,577 510,577 510,576 510,576 510,576 510,575 510,575 510,574 510,574 510,574 510,573 510,573 510,572 510,572 510,571 510,571 510,571 510,570 509,570 509,569 509,569 509,568 509,568 509,567 509,567 509,566 509,566 508,565 508,565 508,564 508,563 508,563 507,562 507,562 507,561 506,560 506,559 505,559 505,558 504,557 503,556 501,555 499,556 497,557 496,558 495,559 495,560 494,561 494,562 493,562 493,563 493,564 493,564 492,565 492,565 492,566 492,566 492,567 492,567 492,568 491,568 491,569 491,569 491,570 491,570 491,571 491,571 491,572 491,572 491,573 491,573 491,573 491,574 491,574 491,575 491,575 490,576 490,576 490,576 490,577 490,577 490,578 490,578 490,578 490,579 490,579 490,580 490,580 490,580 490,581 490,581 490,582 490,582 490,582 490,583 490,583 490,584 490,584 490,584 490,585 490,585 490,586 491,586 491,587 491,587 491,587 491,588 491,588 491,589 491,589 491,590 491,590 491,590 491,591 491,591 491,592 491,592 492,593 492,593 492,594 492,594 492,595 492,595 492,596 492,596 493,597 493,597 493,598 493,599 494,599 494,600 494,601 495,601 495,602 496,603 496,604 497,605 499,605 500,606 " />
<polyline fill="none" vector-effect="none" points="285,555 283,556 281,557 280,559 280,559 279,560 279,561 279,562 278,563 278,563 278,564 278,564 277,565 277,566 277,566 277,567 277,567 277,568 277,568 276,569 276,569 276,570 276,570 276,571 276,571 276,571 276,572 276,572 276,573 276,573 276,574 276,574 276,575 276,575 276,575 275,576 275,576 275,577 275,577 275,577 275,578 275,578 275,579 275,579 275,579 275,580 275,580 275,581 275,581 275,581 275,582 275,582 275,583 275,583 275,583 275,584 275,584 275,585 275,585 276,585 276,586 276,586 276,587 276,587 276,588 276,588 276,588 276,589 276,589 276,590 276,590 276,591 276,591 276,591 276,592 276,592 277,593 277,593 277,594 277,594 277,595 277,595 277,596 278,597 278,597 278,598 278,598 278,599 279,600 279,600 279,601 280,602 280,602 281,603 282,604 283,605 284,606 285,606 " />
<polyline fill="none" vector-effect="none" points="285,555 500,555 " />
<polyline fill="none" vector-effect="none" points="500,555 285,555 " />
<polyline fill="none" vector-effect="none" points="285,606 500,606 " />
<polyline fill="none" vector-effect="none" points="676,601 679,600 680,599 681,597 681,597 682,596 682,595 682,594 683,594 683,593 683,593 683,592 683,592 683,591 684,591 684,590 684,590 684,589 684,589 684,588 684,588 684,587 684,587 684,586 684,586 684,586 684,585 684,585 684,584 684,584 684,583 685,583 685,583 685,582 685,582 685,581 685,581 685,581 685,580 685,580 685,579 685,579 685,579 685,578 684,578 684,577 684,577 684,577 684,576 684,576 684,575 684,575 684,575 684,574 684,574 684,573 684,573 684,572 684,572 684,571 684,571 683,570 683,570 683,569 683,569 683,568 683,568 683,567 682,567 682,566 682,566 682,565 681,564 681,563 680,563 679,562 678,561 677,560 674,561 673,562 672,564 672,564 671,565 671,566 671,567 670,567 670,568 670,568 670,569 670,570 670,570 669,571 669,571 669,572 669,572 669,572 669,573 669,573 669,574 669,574 669,575 669,575 669,576 669,576 669,576 669,577 669,577 668,578 668,578 668,578 668,579 668,579 668,580 668,580 668,580 668,581 668,581 668,582 668,582 668,582 668,583 668,583 668,584 669,584 669,584 669,585 669,585 669,586 669,586 669,587 669,587 669,587 669,588 669,588 669,589 669,589 669,590 669,590 669,591 670,591 670,592 670,592 670,593 670,593 670,594 671,594 671,595 671,596 671,596 672,597 672,598 673,598 673,599 674,600 676,601 676,601 " />
<polyline fill="none" vector-effect="none" points="505,560 502,561 501,563 500,564 500,565 499,565 499,566 499,567 498,567 498,568 498,569 498,569 498,570 498,570 497,571 497,571 497,572 497,572 497,573 497,573 497,573 497,574 497,574 497,575 497,575 497,576 497,576 497,576 497,577 497,577 497,578 496,578 496,578 496,579 496,579 496,580 496,580 496,580 496,581 496,581 496,582 496,582 496,582 496,583 497,583 497,584 497,584 497,585 497,585 497,585 497,586 497,586 497,587 497,587 497,587 497,588 497,588 497,589 497,589 497,590 497,590 498,591 498,591 498,592 498,592 498,593 498,593 498,594 499,594 499,595 499,596 499,596 500,597 500,598 501,599 502,599 503,600 504,601 505,601 " />
<polyline fill="none" vector-effect="none" points="505,560 676,560 " />
<polyline fill="none" vector-effect="none" points="676,560 505,560 " />
<polyline fill="none" vector-effect="none" points="505,601 676,601 " />
<polyline fill="none" vector-effect="none" points="817,597 819,596 820,594 821,593 821,593 822,592 822,591 822,591 822,590 822,590 823,589 823,588 823,588 823,588 823,587 823,587 823,586 823,586 823,585 823,585 823,584 823,584 823,584 823,583 823,583 823,582 823,582 823,582 823,581 823,581 823,580 823,580 823,580 823,579 823,579 823,578 823,578 823,578 823,577 823,577 823,576 823,576 823,575 823,575 823,575 823,574 823,574 823,573 823,573 823,572 822,572 822,571 822,571 822,570 822,570 822,569 821,568 821,568 821,567 820,566 819,565 818,565 816,565 814,566 813,567 813,568 813,569 812,570 812,570 812,571 812,571 812,572 811,572 811,573 811,573 811,574 811,574 811,575 811,575 811,576 811,576 811,576 811,577 811,577 811,578 811,578 811,579 811,579 811,579 811,580 811,580 811,581 811,581 811,581 811,582 811,582 811,583 811,583 811,583 811,584 811,584 811,585 811,585 811,585 811,586 811,586 811,587 811,587 811,588 811,588 811,589 812,589 812,590 812,590 812,591 812,591 812,592 813,592 813,593 813,594 814,594 814,595 815,596 817,597 817,597 " />
<polyline fill="none" vector-effect="none" points="679,564 677,566 676,567 675,568 675,569 675,569 675,570 674,570 674,571 674,572 674,572 674,573 674,573 674,574 674,574 673,575 673,575 673,575 673,576 673,576 673,577 673,577 673,578 673,578 673,578 673,579 673,579 673,580 673,580 673,580 673,581 673,581 673,582 673,582 673,582 673,583 673,583 673,584 673,584 673,584 673,585 673,585 673,586 673,586 673,587 673,587 674,587 674,588 674,588 674,589 674,589 674,590 674,590 674,591 675,592 675,592 675,593 676,593 676,594 676,595 677,596 678,597 679,597 " />
<polyline fill="none" vector-effect="none" points="101,927 111,943 " />
<polyline fill="none" vector-effect="none" points="111,927 101,943 " />
<polyline fill="none" vector-effect="none" points="852,536 857,544 " />
<polyline fill="none" vector-effect="none" points="857,544 857,552 " />
<polyline fill="none" vector-effect="none" points="863,536 857,544 " />
<polyline fill="none" vector-effect="none" points="321,100 311,115 " />
<polyline fill="none" vector-effect="none" points="311,100 321,100 " />
<polyline fill="none" vector-effect="none" points="311,115 321,115 " />
<polyline fill="none" vector-effect="none" points="717,564 679,564 " />
<polyline fill="none" vector-effect="none" points="679,564 717,564 " />
<polyline fill="none" vector-effect="none" points="679,597 724,597 " />
</g>

<g fill="none" stroke="#000000" stroke-opacity="1" stroke-width="1" stroke-linecap="round" stroke-linejoin="round" transform="matrix(1,0,0,1,0,0)"
font-family="Sans Serif" font-size="9" font-weight="400" font-style="normal" 
>
<polyline fill="none" vector-effect="non-scaling-stroke" points="83,931 58,975 " />
<polyline fill="none" vector-effect="non-scaling-stroke" points="58,975 83,931 " />
</g>

<g fill="#000000" fill-opacity="1" stroke="#000000" stroke-opacity="1" stroke-width="1" stroke-linecap="round" stroke-linejoin="round" transform="matrix(1,0,0,1,0,0)"
font-family="Sans Serif" font-size="9" font-weight="400" font-style="normal" 
>
<path vector-effect="non-scaling-stroke" fill-rule="evenodd" d="M58,975 L67,951 L74,955 L58,975"/>
</g>

<g fill="none" stroke="#000000" stroke-opacity="1" stroke-width="1" stroke-linecap="round" stroke-linejoin="round" transform="matrix(1,0,0,1,0,0)"
font-family="Sans Serif" font-size="9" font-weight="400" font-style="normal" 
>
<polyline fill="none" vector-effect="non-scaling-stroke" points="285,75 285,25 " />
<polyline fill="none" vector-effect="non-scaling-stroke" points="892,581 943,581 " />
<polyline fill="none" vector-effect="non-scaling-stroke" points="285,25 285,75 " />
</g>

<g fill="#000000" fill-opacity="1" stroke="#000000" stroke-opacity="1" stroke-width="1" stroke-linecap="round" stroke-linejoin="round" transform="matrix(1,0,0,1,0,0)"
font-family="Sans Serif" font-size="9" font-weight="400" font-style="normal" 
>
<path vector-effect="non-scaling-stroke" fill-rule="evenodd" d="M285,25 L290,50 L281,50 L285,25"/>
</g>

<g fill="none" stroke="#000000" stroke-opacity="1" stroke-width="1" stroke-linecap="round" stroke-linejoin="round" transform="matrix(1,0,0,1,0,0)"
font-family="Sans Serif" font-size="9" font-weight="400" font-style="normal" 
>
<polyline fill="none" vector-effect="non-scaling-stroke" points="943,581 892,581 " />
</g>

<g fill="#000000" fill-opacity="1" stroke="#000000" stroke-opacity="1" stroke-width="1" stroke-linecap="round" stroke-linejoin="round" transform="matrix(1,0,0,1,0,0)"
font-family="Sans Serif" font-size="9" font-weight="400" font-style="normal" 
>
<path vector-effect="non-scaling-stroke" fill-rule="evenodd" d="M943,581 L917,585 L917,576 L943,581"/>
</g>

<g fill="none" stroke="#000000" stroke-opacity="1" stroke-width="1" stroke-linecap="round" stroke-linejoin="round" transform="matrix(1,0,0,1,0,0)"
font-family="Sans Serif" font-size="9" font-weight="400" font-style="normal" 
>
<polyline fill="none" vector-effect="non-scaling-stroke" points="285,581 285,198 " />
<polyline fill="none" vector-effect="non-scaling-stroke" points="285,178 285,75 " />
<polyline fill="none" vector-effect="non-scaling-stroke" points="285,581 138,836 " />
<polyline fill="none" vector-effect="non-scaling-stroke" points="127,855 83,931 " />
<polyline fill="none" vector-effect="non-scaling-stroke" points="285,581 718,581 " />
<polyline fill="none" vector-effect="non-scaling-stroke" points="127,855 138,836 " />
<polyline fill="none" vector-effect="non-scaling-stroke" points="285,198 285,178 " />
</g>

<g fill="none" stroke="#000000" stroke-opacity="1" stroke-width="2" stroke-linecap="round" stroke-linejoin="round" transform="matrix(1,0,0,1,0,0)"
font-family="Sans Serif" font-size="9" font-weight="400" font-style="normal" 
>
<polyline fill="none" vector-effect="none" points="817,564 717,564 " />
<polyline fill="none" vector-effect="none" points="724,597 817,597 " />
</g>

<g fill="none" stroke="#000000" stroke-opacity="1" stroke-width="1" stroke-linecap="round" stroke-linejoin="round" transform="matrix(1,0,0,1,0,0)"
font-family="Sans Serif" font-size="9" font-weight="400" font-style="normal" 
>
<polyline fill="none" vector-effect="non-scaling-stroke" points="718,581 892,581 " />
</g>

<g fill="none" stroke="#000000" stroke-opacity="1" stroke-width="1" stroke-linecap="round" stroke-linejoin="round" transform="matrix(1,0,0,1,0,0)"
font-family="Sans Serif" font-size="9" font-weight="400" font-style="normal" 
>
<polyline fill="none" vector-effect="non-scaling-stroke" points="285,581 290,573 " />
<polyline fill="none" vector-effect="non-scaling-stroke" points="294,566 302,551 " />
<polyline fill="none" vector-effect="non-scaling-stroke" points="307,544 315,529 " />
<polyline fill="none" vector-effect="non-scaling-stroke" points="319,522 328,507 " />
<polyline fill="none" vector-effect="non-scaling-stroke" points="332,500 341,485 " />
<polyline fill="none" vector-effect="non-scaling-stroke" points="345,477 353,463 " />
<polyline fill="none" vector-effect="non-scaling-stroke" points="358,455 366,441 " />
<polyline fill="none" vector-effect="non-scaling-stroke" points="370,433 379,419 " />
<polyline fill="none" vector-effect="non-scaling-stroke" points="383,411 392,396 " />
<polyline fill="none" vector-effect="non-scaling-stroke" points="396,389 404,374 " />
<polyline fill="none" vector-effect="non-scaling-stroke" points="409,367 417,352 " />
<polyline fill="none" vector-effect="non-scaling-stroke" points="421,345 430,330 " />
<polyline fill="none" vector-effect="non-scaling-stroke" points="434,323 443,308 " />
<polyline fill="none" vector-effect="non-scaling-stroke" points="447,301 455,286 " />
<polyline fill="none" vector-effect="non-scaling-stroke" points="460,279 468,264 " />
<polyline fill="none" vector-effect="non-scaling-stroke" points="472,257 481,242 " />
<polyline fill="none" vector-effect="non-scaling-stroke" points="485,235 488,230 " />
</g>

<g fill="none" stroke="#000000" stroke-opacity="1" stroke-width="2" stroke-linecap="round" stroke-linejoin="round" transform="matrix(1,0,0,1,0,0)"
font-family="Sans Serif" font-size="9" font-weight="400" font-style="normal" 
>
<polyline fill="none" vector-effect="none" points="396,786 399,786 400,784 401,783 402,782 402,781 403,781 403,780 403,779 404,778 404,778 404,777 404,777 404,776 404,775 405,775 405,774 405,774 405,773 405,773 405,772 405,772 405,772 405,771 406,771 406,770 406,770 406,769 406,769 406,768 406,768 406,768 406,767 406,767 406,766 406,766 406,765 406,765 406,765 406,764 406,764 406,763 406,763 406,763 406,762 406,762 406,761 406,761 406,761 406,760 406,760 406,759 406,759 406,759 406,758 406,758 406,757 406,757 406,757 406,756 406,756 406,755 406,755 406,755 406,754 406,754 406,753 406,753 406,752 406,752 406,751 405,751 405,751 405,750 405,750 405,749 405,749 405,748 405,748 405,747 404,747 404,746 404,746 404,745 404,745 404,744 403,743 403,743 403,742 403,741 402,741 402,740 401,739 401,738 400,737 399,737 397,736 395,736 393,737 392,739 391,740 390,740 390,741 390,742 389,743 389,743 389,744 388,745 388,745 388,746 388,746 388,747 388,747 388,748 387,748 387,749 387,749 387,750 387,750 387,751 387,751 387,752 387,752 387,753 387,753 387,754 386,754 386,754 386,755 386,755 386,756 386,756 386,757 386,757 386,757 386,758 386,758 386,759 386,759 386,759 386,760 386,760 386,761 386,761 386,761 386,762 386,762 386,763 386,763 386,763 386,764 386,764 386,765 386,765 386,765 386,766 386,766 386,767 386,767 386,767 386,768 386,768 387,769 387,769 387,770 387,770 387,770 387,771 387,771 387,772 387,772 387,773 387,773 387,774 388,774 388,775 388,775 388,776 388,776 388,777 388,777 389,778 389,778 389,779 389,780 390,780 390,781 390,782 391,783 391,783 392,784 393,785 394,786 396,786 " />
<polyline fill="none" vector-effect="none" points="181,736 179,737 177,738 176,739 176,740 175,741 175,742 174,742 174,743 174,744 174,744 173,745 173,746 173,746 173,747 173,747 173,748 173,748 172,749 172,749 172,750 172,750 172,751 172,751 172,752 172,752 172,752 172,753 172,753 172,754 171,754 171,755 171,755 171,755 171,756 171,756 171,757 171,757 171,758 171,758 171,758 171,759 171,759 171,760 171,760 171,760 171,761 171,761 171,762 171,762 171,762 171,763 171,763 171,764 171,764 171,764 171,765 171,765 171,766 171,766 171,766 171,767 171,767 171,768 171,768 172,768 172,769 172,769 172,770 172,770 172,771 172,771 172,772 172,772 172,772 172,773 172,773 172,774 173,774 173,775 173,775 173,776 173,776 173,777 174,778 174,778 174,779 174,779 175,780 175,781 175,781 176,782 176,783 177,784 178,785 179,786 180,786 181,786 " />
<polyline fill="none" vector-effect="none" points="181,736 396,736 " />
<polyline fill="none" vector-effect="none" points="396,736 181,736 " />
<polyline fill="none" vector-effect="none" points="181,786 396,786 " />
<polyline fill="none" vector-effect="none" points="572,781 575,780 576,779 577,778 577,777 578,776 578,776 578,775 578,774 579,774 579,773 579,773 579,772 579,772 579,771 579,771 580,770 580,770 580,769 580,769 580,768 580,768 580,767 580,767 580,766 580,766 580,766 580,765 580,765 580,764 580,764 580,764 580,763 580,763 580,762 580,762 580,762 580,761 580,761 580,760 580,760 580,760 580,759 580,759 580,758 580,758 580,758 580,757 580,757 580,756 580,756 580,755 580,755 580,755 580,754 580,754 580,753 580,753 580,752 579,752 579,751 579,751 579,750 579,750 579,749 579,749 579,748 578,748 578,747 578,747 578,746 577,745 577,745 577,744 576,743 575,742 574,741 573,741 570,742 569,743 568,744 567,745 567,746 567,746 566,747 566,748 566,748 566,749 566,749 565,750 565,751 565,751 565,752 565,752 565,753 565,753 565,753 565,754 565,754 565,755 565,755 564,756 564,756 564,756 564,757 564,757 564,758 564,758 564,759 564,759 564,759 564,760 564,760 564,761 564,761 564,761 564,762 564,762 564,763 564,763 564,763 564,764 564,764 564,765 564,765 564,765 564,766 564,766 564,767 565,767 565,767 565,768 565,768 565,769 565,769 565,770 565,770 565,771 565,771 565,772 565,772 566,773 566,773 566,774 566,774 566,775 567,775 567,776 567,777 567,777 568,778 568,779 569,780 570,781 572,781 572,781 " />
<polyline fill="none" vector-effect="none" points="400,741 398,742 397,743 396,744 395,745 395,746 395,747 394,747 394,748 394,748 394,749 394,750 394,750 393,751 393,751 393,752 393,752 393,753 393,753 393,753 393,754 393,754 393,755 393,755 393,756 392,756 392,757 392,757 392,757 392,758 392,758 392,759 392,759 392,759 392,760 392,760 392,761 392,761 392,761 392,762 392,762 392,763 392,763 392,763 392,764 392,764 392,765 392,765 392,765 392,766 392,766 393,767 393,767 393,768 393,768 393,768 393,769 393,769 393,770 393,770 393,771 393,771 393,772 394,772 394,773 394,773 394,774 394,774 394,775 395,775 395,776 395,777 396,777 396,778 397,779 397,780 398,781 400,781 400,781 " />
<polyline fill="none" vector-effect="none" points="400,741 572,741 " />
<polyline fill="none" vector-effect="none" points="572,741 400,741 " />
<polyline fill="none" vector-effect="none" points="400,781 572,781 " />
<polyline fill="none" vector-effect="none" points="713,777 715,776 716,775 717,774 717,773 717,772 718,772 718,771 718,771 718,770 718,769 718,769 719,768 719,768 719,768 719,767 719,767 719,766 719,766 719,765 719,765 719,764 719,764 719,764 719,763 719,763 719,762 719,762 719,762 719,761 719,761 719,760 719,760 719,760 719,759 719,759 719,758 719,758 719,758 719,757 719,757 719,756 719,756 719,756 719,755 719,755 719,754 719,754 718,753 718,753 718,752 718,752 718,751 718,751 718,750 717,750 717,749 717,748 716,748 716,747 715,746 714,745 712,745 710,747 709,748 709,749 708,749 708,750 708,751 708,751 707,752 707,752 707,753 707,753 707,754 707,754 707,755 707,755 707,756 707,756 707,757 707,757 706,757 706,758 706,758 706,759 706,759 706,759 706,760 706,760 706,761 706,761 706,761 706,762 706,762 706,763 706,763 706,763 706,764 706,764 706,765 707,765 707,766 707,766 707,766 707,767 707,767 707,768 707,768 707,769 707,769 707,770 707,770 708,771 708,771 708,772 708,772 708,773 709,774 709,774 709,775 710,776 711,777 712,777 713,777 " />
<polyline fill="none" vector-effect="none" points="575,745 573,746 572,747 571,748 571,749 571,750 570,750 570,751 570,752 570,752 570,753 570,753 569,754 569,754 569,755 569,755 569,756 569,756 569,756 569,757 569,757 569,758 569,758 569,758 569,759 569,759 569,760 569,760 569,760 569,761 569,761 569,762 569,762 569,763 569,763 569,763 569,764 569,764 569,765 569,765 569,765 569,766 569,766 569,767 569,767 569,768 569,768 569,768 570,769 570,769 570,770 570,770 570,771 570,771 570,772 571,773 571,773 571,774 572,775 572,775 573,776 574,777 575,777 " />
<polyline fill="none" vector-effect="none" points="613,745 575,745 " />
<polyline fill="none" vector-effect="none" points="575,745 613,745 " />
<polyline fill="none" vector-effect="none" points="575,777 619,777 " />
<polyline fill="none" vector-effect="none" points="713,745 613,745 " />
<polyline fill="none" vector-effect="none" points="619,777 713,777 " />
<polyline fill="none" vector-effect="none" points="614,409 616,409 618,407 619,406 619,405 620,404 620,404 621,403 621,402 621,402 621,401 622,400 622,400 622,399 622,399 622,398 622,398 622,397 623,397 623,396 623,396 623,395 623,395 623,394 623,394 623,393 623,393 623,392 623,392 623,391 623,391 624,391 624,390 624,390 624,389 624,389 624,389 624,388 624,388 624,387 624,387 624,387 624,386 624,386 624,385 624,385 624,385 624,384 624,384 624,383 624,383 624,383 624,382 624,382 624,381 624,381 624,381 624,380 624,380 624,379 624,379 624,378 624,378 624,378 623,377 623,377 623,376 623,376 623,375 623,375 623,375 623,374 623,374 623,373 623,373 623,372 623,372 622,371 622,371 622,370 622,370 622,369 622,369 622,368 621,368 621,367 621,366 621,366 620,365 620,365 620,364 619,363 619,362 618,361 617,361 616,360 615,359 612,359 610,360 609,362 608,363 608,364 607,364 607,365 607,366 607,367 606,367 606,368 606,368 606,369 606,370 605,370 605,371 605,371 605,372 605,372 605,373 605,373 605,374 605,374 604,374 604,375 604,375 604,376 604,376 604,377 604,377 604,378 604,378 604,378 604,379 604,379 604,380 604,380 604,380 604,381 604,381 604,382 604,382 604,382 604,383 604,383 604,384 604,384 604,384 604,385 604,385 604,386 604,386 604,386 604,387 604,387 604,388 604,388 604,388 604,389 604,389 604,390 604,390 604,391 604,391 604,391 604,392 604,392 604,393 604,393 604,394 604,394 605,394 605,395 605,395 605,396 605,396 605,397 605,397 605,398 605,398 606,399 606,399 606,400 606,400 606,401 606,402 607,402 607,403 607,404 608,404 608,405 608,406 609,407 610,407 611,408 612,409 614,409 " />
<polyline fill="none" vector-effect="none" points="399,359 396,360 395,361 394,362 393,363 393,364 392,365 392,365 392,366 391,367 391,367 391,368 391,369 391,369 391,370 390,370 390,371 390,371 390,372 390,372 390,373 390,373 390,374 390,374 389,375 389,375 389,376 389,376 389,376 389,377 389,377 389,378 389,378 389,379 389,379 389,379 389,380 389,380 389,381 389,381 389,381 389,382 389,382 389,383 389,383 389,383 389,384 389,384 389,385 389,385 389,385 389,386 389,386 389,387 389,387 389,387 389,388 389,388 389,389 389,389 389,389 389,390 389,390 389,391 389,391 389,392 389,392 389,392 389,393 389,393 389,394 390,394 390,395 390,395 390,396 390,396 390,397 390,397 390,397 390,398 390,399 391,399 391,400 391,400 391,401 391,401 392,402 392,402 392,403 392,404 393,405 393,405 394,406 394,407 395,408 396,409 398,409 399,409 " />
<polyline fill="none" vector-effect="none" points="399,359 614,359 " />
<polyline fill="none" vector-effect="none" points="614,359 399,359 " />
<polyline fill="none" vector-effect="none" points="399,409 614,409 " />
<polyline fill="none" vector-effect="none" points="790,404 792,403 794,402 794,401 795,400 795,399 795,399 796,398 796,397 796,397 796,396 797,396 797,395 797,395 797,394 797,394 797,393 797,393 797,392 797,392 797,391 798,391 798,390 798,390 798,390 798,389 798,389 798,388 798,388 798,387 798,387 798,387 798,386 798,386 798,385 798,385 798,385 798,384 798,384 798,383 798,383 798,383 798,382 798,382 798,381 798,381 798,381 798,380 798,380 798,379 798,379 798,379 798,378 798,378 797,377 797,377 797,376 797,376 797,375 797,375 797,375 797,374 797,374 797,373 796,373 796,372 796,372 796,371 796,370 796,370 795,369 795,368 795,368 794,367 794,366 793,365 792,365 790,364 788,365 786,366 786,367 785,368 785,369 784,370 784,370 784,371 784,371 783,372 783,373 783,373 783,374 783,374 783,375 783,375 783,376 782,376 782,377 782,377 782,377 782,378 782,378 782,379 782,379 782,380 782,380 782,380 782,381 782,381 782,382 782,382 782,382 782,383 782,383 782,384 782,384 782,384 782,385 782,385 782,386 782,386 782,386 782,387 782,387 782,388 782,388 782,388 782,389 782,389 782,390 782,390 782,391 782,391 782,391 782,392 782,392 783,393 783,393 783,394 783,394 783,395 783,395 783,396 783,396 784,397 784,397 784,398 784,399 784,399 785,400 785,400 786,401 786,402 787,403 788,404 789,404 790,404 " />
<polyline fill="none" vector-effect="none" points="618,364 615,365 614,366 613,367 613,368 613,369 612,370 612,370 612,371 612,372 611,372 611,373 611,373 611,374 611,374 611,375 611,375 611,376 610,376 610,377 610,377 610,377 610,378 610,378 610,379 610,379 610,380 610,380 610,380 610,381 610,381 610,382 610,382 610,383 610,383 610,383 610,384 610,384 610,385 610,385 610,385 610,386 610,386 610,387 610,387 610,387 610,388 610,388 610,389 610,389 610,389 610,390 610,390 610,391 610,391 610,392 610,392 611,392 611,393 611,393 611,394 611,394 611,395 611,395 611,396 611,396 612,397 612,397 612,398 612,399 613,399 613,400 613,401 614,401 614,402 615,403 616,404 618,404 618,404 " />
<polyline fill="none" vector-effect="none" points="618,364 790,364 " />
<polyline fill="none" vector-effect="none" points="790,364 618,364 " />
<polyline fill="none" vector-effect="none" points="618,404 790,404 " />
<polyline fill="none" vector-effect="none" points="930,400 933,399 934,398 934,397 935,396 935,396 935,395 935,394 936,394 936,393 936,393 936,392 936,392 936,391 936,391 936,390 936,390 937,389 937,389 937,388 937,388 937,388 937,387 937,387 937,386 937,386 937,386 937,385 937,385 937,384 937,384 937,384 937,383 937,383 937,382 937,382 937,382 937,381 937,381 937,380 937,380 937,379 937,379 936,379 936,378 936,378 936,377 936,377 936,376 936,376 936,375 936,375 936,374 935,374 935,373 935,373 935,372 934,371 934,371 933,370 933,369 932,368 929,368 927,370 927,371 926,372 926,372 926,373 925,374 925,374 925,375 925,375 925,376 925,376 925,377 925,377 924,378 924,378 924,379 924,379 924,380 924,380 924,381 924,381 924,381 924,382 924,382 924,383 924,383 924,383 924,384 924,384 924,385 924,385 924,385 924,386 924,386 924,387 924,387 924,387 924,388 924,388 924,389 924,389 924,389 924,390 924,390 924,391 925,391 925,392 925,392 925,393 925,393 925,394 925,394 926,395 926,395 926,396 926,397 927,397 927,398 928,399 929,400 930,400 930,400 " />
<polyline fill="none" vector-effect="none" points="793,368 790,369 789,370 789,371 788,372 788,373 788,373 788,374 788,375 787,375 787,376 787,376 787,377 787,377 787,378 787,378 787,379 787,379 787,379 787,380 787,380 786,381 786,381 786,382 786,382 786,382 786,383 786,383 786,384 786,384 786,384 786,385 786,385 786,386 786,386 786,386 786,387 786,387 786,388 787,388 787,388 787,389 787,389 787,390 787,390 787,391 787,391 787,392 787,392 787,392 787,393 788,393 788,394 788,395 788,395 788,396 789,396 789,397 789,398 790,399 791,399 792,400 793,400 " />
<polyline fill="none" vector-effect="none" points="830,368 793,368 " />
<polyline fill="none" vector-effect="none" points="793,368 830,368 " />
<polyline fill="none" vector-effect="none" points="793,400 837,400 " />
<polyline fill="none" vector-effect="none" points="930,368 830,368 " />
<polyline fill="none" vector-effect="none" points="837,400 930,400 " />
<polyline fill="none" vector-effect="none" points="278,694 278,707 " />
<polyline fill="none" vector-effect="none" points="278,694 282,694 " />
<polyline fill="none" vector-effect="none" points="282,694 284,694 " />
<polyline fill="none" vector-effect="none" points="284,694 285,696 " />
<polyline fill="none" vector-effect="none" points="285,696 286,697 " />
<polyline fill="none" vector-effect="none" points="286,697 287,699 " />
<polyline fill="none" vector-effect="none" points="287,699 287,702 " />
<polyline fill="none" vector-effect="none" points="287,702 286,704 " />
<polyline fill="none" vector-effect="none" points="286,704 285,705 " />
<polyline fill="none" vector-effect="none" points="285,705 284,706 " />
<polyline fill="none" vector-effect="none" points="284,706 282,707 " />
<polyline fill="none" vector-effect="none" points="282,707 278,707 " />
<polyline fill="none" vector-effect="none" points="291,694 292,694 " />
</g>

<g fill="#000000" fill-opacity="1" stroke="none" transform="matrix(1,0,0,1,0,0)"
font-family="Sans Serif" font-size="9" font-weight="400" font-style="normal" 
>
<circle cx="292" cy="694" r="1"/>
</g>

<g fill="none" stroke="#000000" stroke-opacity="1" stroke-width="2" stroke-linecap="round" stroke-linejoin="round" transform="matrix(1,0,0,1,0,0)"
font-family="Sans Serif" font-size="9" font-weight="400" font-style="normal" 
>
<polyline fill="none" vector-effect="none" points="292,694 292,693 " />
<polyline fill="none" vector-effect="none" points="292,693 291,694 " />
<polyline fill="none" vector-effect="none" points="292,698 292,707 " />
<polyline fill="none" vector-effect="none" points="297,698 297,707 " />
<polyline fill="none" vector-effect="none" points="297,702 297,700 " />
<polyline fill="none" vector-effect="none" points="297,700 299,699 " />
<polyline fill="none" vector-effect="none" points="299,699 300,698 " />
<polyline fill="none" vector-effect="none" points="300,698 302,698 " />
<polyline fill="none" vector-effect="none" points="306,702 314,702 " />
<polyline fill="none" vector-effect="none" points="314,702 314,701 " />
<polyline fill="none" vector-effect="none" points="314,701 313,699 " />
<polyline fill="none" vector-effect="none" points="313,699 312,699 " />
<polyline fill="none" vector-effect="none" points="312,699 311,698 " />
<polyline fill="none" vector-effect="none" points="311,698 309,698 " />
<polyline fill="none" vector-effect="none" points="309,698 308,699 " />
<polyline fill="none" vector-effect="none" points="308,699 307,700 " />
<polyline fill="none" vector-effect="none" points="307,700 306,702 " />
<polyline fill="none" vector-effect="none" points="306,702 306,703 " />
<polyline fill="none" vector-effect="none" points="306,703 307,705 " />
<polyline fill="none" vector-effect="none" points="307,705 308,706 " />
<polyline fill="none" vector-effect="none" points="308,706 309,707 " />
<polyline fill="none" vector-effect="none" points="309,707 311,707 " />
<polyline fill="none" vector-effect="none" points="311,707 312,706 " />
<polyline fill="none" vector-effect="none" points="312,706 314,705 " />
<polyline fill="none" vector-effect="none" points="325,700 324,699 " />
<polyline fill="none" vector-effect="none" points="324,699 323,698 " />
<polyline fill="none" vector-effect="none" points="323,698 321,698 " />
<polyline fill="none" vector-effect="none" points="321,698 320,699 " />
<polyline fill="none" vector-effect="none" points="320,699 319,700 " />
<polyline fill="none" vector-effect="none" points="319,700 318,702 " />
<polyline fill="none" vector-effect="none" points="318,702 318,703 " />
<polyline fill="none" vector-effect="none" points="318,703 319,705 " />
<polyline fill="none" vector-effect="none" points="319,705 320,706 " />
<polyline fill="none" vector-effect="none" points="320,706 321,707 " />
<polyline fill="none" vector-effect="none" points="321,707 323,707 " />
<polyline fill="none" vector-effect="none" points="323,707 324,706 " />
<polyline fill="none" vector-effect="none" points="324,706 325,705 " />
<polyline fill="none" vector-effect="none" points="332,694 332,704 " />
<polyline fill="none" vector-effect="none" points="332,704 332,706 " />
<polyline fill="none" vector-effect="none" points="332,706 334,707 " />
<polyline fill="none" vector-effect="none" points="334,707 335,707 " />
<polyline fill="none" vector-effect="none" points="330,698 334,698 " />
<polyline fill="none" vector-effect="none" points="342,698 341,699 " />
<polyline fill="none" vector-effect="none" points="341,699 340,700 " />
<polyline fill="none" vector-effect="none" points="340,700 339,702 " />
<polyline fill="none" vector-effect="none" points="339,702 339,703 " />
<polyline fill="none" vector-effect="none" points="339,703 340,705 " />
<polyline fill="none" vector-effect="none" points="340,705 341,706 " />
<polyline fill="none" vector-effect="none" points="341,706 342,707 " />
<polyline fill="none" vector-effect="none" points="342,707 344,707 " />
<polyline fill="none" vector-effect="none" points="344,707 346,706 " />
<polyline fill="none" vector-effect="none" points="346,706 347,705 " />
<polyline fill="none" vector-effect="none" points="347,705 347,703 " />
<polyline fill="none" vector-effect="none" points="347,703 347,702 " />
<polyline fill="none" vector-effect="none" points="347,702 347,700 " />
<polyline fill="none" vector-effect="none" points="347,700 346,699 " />
<polyline fill="none" vector-effect="none" points="346,699 344,698 " />
<polyline fill="none" vector-effect="none" points="344,698 342,698 " />
<polyline fill="none" vector-effect="none" points="352,698 352,707 " />
<polyline fill="none" vector-effect="none" points="352,702 352,700 " />
<polyline fill="none" vector-effect="none" points="352,700 354,699 " />
<polyline fill="none" vector-effect="none" points="354,699 355,698 " />
<polyline fill="none" vector-effect="none" points="355,698 357,698 " />
<polyline fill="none" vector-effect="none" points="392,513 392,526 " />
<polyline fill="none" vector-effect="none" points="392,513 397,513 " />
<polyline fill="none" vector-effect="none" points="397,513 399,514 " />
<polyline fill="none" vector-effect="none" points="399,514 400,515 " />
<polyline fill="none" vector-effect="none" points="400,515 401,516 " />
<polyline fill="none" vector-effect="none" points="401,516 401,518 " />
<polyline fill="none" vector-effect="none" points="401,518 401,521 " />
<polyline fill="none" vector-effect="none" points="401,521 401,523 " />
<polyline fill="none" vector-effect="none" points="401,523 400,524 " />
<polyline fill="none" vector-effect="none" points="400,524 399,525 " />
<polyline fill="none" vector-effect="none" points="399,525 397,526 " />
<polyline fill="none" vector-effect="none" points="397,526 392,526 " />
<polyline fill="none" vector-effect="none" points="406,517 406,526 " />
<polyline fill="none" vector-effect="none" points="406,521 406,519 " />
<polyline fill="none" vector-effect="none" points="406,519 407,518 " />
<polyline fill="none" vector-effect="none" points="407,518 409,517 " />
<polyline fill="none" vector-effect="none" points="409,517 411,517 " />
<polyline fill="none" vector-effect="none" points="415,513 416,514 " />
<polyline fill="none" vector-effect="none" points="416,514 416,513 " />
<polyline fill="none" vector-effect="none" points="416,513 416,512 " />
<polyline fill="none" vector-effect="none" points="416,512 415,513 " />
<polyline fill="none" vector-effect="none" points="416,517 416,526 " />
<polyline fill="none" vector-effect="none" points="421,517 424,526 " />
<polyline fill="none" vector-effect="none" points="428,517 424,526 " />
<polyline fill="none" vector-effect="none" points="432,521 440,521 " />
<polyline fill="none" vector-effect="none" points="440,521 440,520 " />
<polyline fill="none" vector-effect="none" points="440,520 439,519 " />
<polyline fill="none" vector-effect="none" points="439,519 439,518 " />
<polyline fill="none" vector-effect="none" points="439,518 437,517 " />
<polyline fill="none" vector-effect="none" points="437,517 436,517 " />
<polyline fill="none" vector-effect="none" points="436,517 434,518 " />
<polyline fill="none" vector-effect="none" points="434,518 433,519 " />
<polyline fill="none" vector-effect="none" points="433,519 432,521 " />
<polyline fill="none" vector-effect="none" points="432,521 432,522 " />
<polyline fill="none" vector-effect="none" points="432,522 433,524 " />
<polyline fill="none" vector-effect="none" points="433,524 434,525 " />
<polyline fill="none" vector-effect="none" points="434,525 436,526 " />
<polyline fill="none" vector-effect="none" points="436,526 437,526 " />
<polyline fill="none" vector-effect="none" points="437,526 439,525 " />
<polyline fill="none" vector-effect="none" points="439,525 440,524 " />
<polyline fill="none" vector-effect="none" points="444,517 444,526 " />
<polyline fill="none" vector-effect="none" points="444,520 446,518 " />
<polyline fill="none" vector-effect="none" points="446,518 447,517 " />
<polyline fill="none" vector-effect="none" points="447,517 449,517 " />
<polyline fill="none" vector-effect="none" points="449,517 451,518 " />
<polyline fill="none" vector-effect="none" points="451,518 451,520 " />
<polyline fill="none" vector-effect="none" points="451,520 451,526 " />
<polyline fill="none" vector-effect="none" points="490,317 490,330 " />
<polyline fill="none" vector-effect="none" points="490,317 496,317 " />
<polyline fill="none" vector-effect="none" points="496,317 498,317 " />
<polyline fill="none" vector-effect="none" points="498,317 499,318 " />
<polyline fill="none" vector-effect="none" points="499,318 499,319 " />
<polyline fill="none" vector-effect="none" points="499,319 499,320 " />
<polyline fill="none" vector-effect="none" points="499,320 499,322 " />
<polyline fill="none" vector-effect="none" points="499,322 498,322 " />
<polyline fill="none" vector-effect="none" points="498,322 496,323 " />
<polyline fill="none" vector-effect="none" points="496,323 490,323 " />
<polyline fill="none" vector-effect="none" points="495,323 499,330 " />
<polyline fill="none" vector-effect="none" points="504,325 511,325 " />
<polyline fill="none" vector-effect="none" points="511,325 511,323 " />
<polyline fill="none" vector-effect="none" points="511,323 510,322 " />
</g>

<g fill="#000000" fill-opacity="1" stroke="none" transform="matrix(1,0,0,1,0,0)"
font-family="Sans Serif" font-size="9" font-weight="400" font-style="normal" 
>
<circle cx="510" cy="322" r="1"/>
</g>

<g fill="none" stroke="#000000" stroke-opacity="1" stroke-width="2" stroke-linecap="round" stroke-linejoin="round" transform="matrix(1,0,0,1,0,0)"
font-family="Sans Serif" font-size="9" font-weight="400" font-style="normal" 
>
<polyline fill="none" vector-effect="none" points="510,322 509,321 " />
<polyline fill="none" vector-effect="none" points="509,321 507,321 " />
<polyline fill="none" vector-effect="none" points="507,321 505,322 " />
<polyline fill="none" vector-effect="none" points="505,322 504,323 " />
<polyline fill="none" vector-effect="none" points="504,323 504,325 " />
<polyline fill="none" vector-effect="none" points="504,325 504,326 " />
<polyline fill="none" vector-effect="none" points="504,326 504,328 " />
<polyline fill="none" vector-effect="none" points="504,328 505,329 " />
<polyline fill="none" vector-effect="none" points="505,329 507,330 " />
<polyline fill="none" vector-effect="none" points="507,330 509,330 " />
<polyline fill="none" vector-effect="none" points="509,330 510,329 " />
<polyline fill="none" vector-effect="none" points="510,329 511,328 " />
<polyline fill="none" vector-effect="none" points="520,317 519,317 " />
<polyline fill="none" vector-effect="none" points="519,317 518,317 " />
<polyline fill="none" vector-effect="none" points="518,317 517,319 " />
<polyline fill="none" vector-effect="none" points="517,319 517,330 " />
<polyline fill="none" vector-effect="none" points="515,321 520,321 " />
<polyline fill="none" vector-effect="none" points="525,317 525,330 " />
<polyline fill="none" vector-effect="none" points="529,325 537,325 " />
<polyline fill="none" vector-effect="none" points="537,325 537,323 " />
<polyline fill="none" vector-effect="none" points="537,323 536,322 " />
<polyline fill="none" vector-effect="none" points="536,322 535,322 " />
<polyline fill="none" vector-effect="none" points="535,322 534,321 " />
<polyline fill="none" vector-effect="none" points="534,321 532,321 " />
<polyline fill="none" vector-effect="none" points="532,321 531,322 " />
<polyline fill="none" vector-effect="none" points="531,322 530,323 " />
<polyline fill="none" vector-effect="none" points="530,323 529,325 " />
<polyline fill="none" vector-effect="none" points="529,325 529,326 " />
<polyline fill="none" vector-effect="none" points="529,326 530,328 " />
<polyline fill="none" vector-effect="none" points="530,328 531,329 " />
<polyline fill="none" vector-effect="none" points="531,329 532,330 " />
<polyline fill="none" vector-effect="none" points="532,330 534,330 " />
<polyline fill="none" vector-effect="none" points="534,330 535,329 " />
<polyline fill="none" vector-effect="none" points="535,329 537,328 " />
<polyline fill="none" vector-effect="none" points="549,323 547,322 " />
<polyline fill="none" vector-effect="none" points="547,322 546,321 " />
<polyline fill="none" vector-effect="none" points="546,321 544,321 " />
<polyline fill="none" vector-effect="none" points="544,321 543,322 " />
<polyline fill="none" vector-effect="none" points="543,322 542,323 " />
<polyline fill="none" vector-effect="none" points="542,323 541,325 " />
<polyline fill="none" vector-effect="none" points="541,325 541,326 " />
<polyline fill="none" vector-effect="none" points="541,326 542,328 " />
<polyline fill="none" vector-effect="none" points="542,328 543,329 " />
<polyline fill="none" vector-effect="none" points="543,329 544,330 " />
<polyline fill="none" vector-effect="none" points="544,330 546,330 " />
<polyline fill="none" vector-effect="none" points="546,330 547,329 " />
<polyline fill="none" vector-effect="none" points="547,329 549,328 " />
<polyline fill="none" vector-effect="none" points="555,317 555,327 " />
<polyline fill="none" vector-effect="none" points="555,327 555,329 " />
<polyline fill="none" vector-effect="none" points="555,329 557,330 " />
<polyline fill="none" vector-effect="none" points="557,330 558,330 " />
<polyline fill="none" vector-effect="none" points="553,321 557,321 " />
<polyline fill="none" vector-effect="none" points="565,321 564,322 " />
<polyline fill="none" vector-effect="none" points="564,322 563,323 " />
<polyline fill="none" vector-effect="none" points="563,323 562,325 " />
<polyline fill="none" vector-effect="none" points="562,325 562,326 " />
<polyline fill="none" vector-effect="none" points="562,326 563,328 " />
<polyline fill="none" vector-effect="none" points="563,328 564,329 " />
<polyline fill="none" vector-effect="none" points="564,329 565,330 " />
<polyline fill="none" vector-effect="none" points="565,330 567,330 " />
<polyline fill="none" vector-effect="none" points="567,330 569,329 " />
<polyline fill="none" vector-effect="none" points="569,329 570,328 " />
<polyline fill="none" vector-effect="none" points="570,328 571,326 " />
<polyline fill="none" vector-effect="none" points="571,326 571,325 " />
<polyline fill="none" vector-effect="none" points="571,325 570,323 " />
<polyline fill="none" vector-effect="none" points="570,323 569,322 " />
<polyline fill="none" vector-effect="none" points="569,322 567,321 " />
<polyline fill="none" vector-effect="none" points="567,321 565,321 " />
<polyline fill="none" vector-effect="none" points="575,321 575,330 " />
<polyline fill="none" vector-effect="none" points="575,325 576,323 " />
<polyline fill="none" vector-effect="none" points="576,323 577,322 " />
<polyline fill="none" vector-effect="none" points="577,322 578,321 " />
<polyline fill="none" vector-effect="none" points="578,321 580,321 " />
</g>
</g>
</svg>
