<?xml version="1.0" encoding="UTF-8" standalone="no"?>
<svg width="352.778mm" height="352.778mm"
 viewBox="0 0 1000 1000"
 xmlns="http://www.w3.org/2000/svg" xmlns:xlink="http://www.w3.org/1999/xlink"  version="1.2" baseProfile="tiny">
<title>Qt SVG Document</title>
<desc>Generated with Qt</desc>
<defs>
</defs>
<g fill="none" stroke="black" stroke-width="1" fill-rule="evenodd" stroke-linecap="square" stroke-linejoin="bevel" >

<g fill="#ffffff" fill-opacity="1" stroke="none" transform="matrix(1,0,0,1,0,0)"
font-family="Sans Serif" font-size="9" font-weight="400" font-style="normal" 
>
<rect x="0" y="0" width="1000" height="1000"/>
</g>

<g fill="none" stroke="#000000" stroke-opacity="1" stroke-width="2" stroke-linecap="round" stroke-linejoin="round" transform="matrix(1,0,0,1,0,0)"
font-family="Sans Serif" font-size="9" font-weight="400" font-style="normal" 
>
<polyline fill="none" vector-effect="none" points="500,606 503,605 504,604 505,603 506,602 506,601 507,600 507,599 507,599 508,598 508,597 508,597 508,596 509,596 509,595 509,594 509,594 509,593 509,593 509,592 509,592 509,591 510,591 510,591 510,590 510,590 510,589 510,589 510,588 510,588 510,587 510,587 510,587 510,586 510,586 510,585 510,585 510,585 510,584 510,584 510,583 510,583 510,583 510,582 510,582 510,581 510,581 510,581 510,580 510,580 510,579 510,579 510,579 510,578 510,578 510,577 510,577 510,576 510,576 510,576 510,575 510,575 510,574 510,574 510,574 510,573 510,573 510,572 510,572 510,571 510,571 510,571 510,570 509,570 509,569 509,569 509,568 509,568 509,567 509,567 509,566 509,566 508,565 508,565 508,564 508,563 508,563 507,562 507,562 507,561 506,560 506,559 505,559 505,558 504,557 503,556 501,555 499,556 497,557 496,558 495,559 495,560 494,561 494,562 493,562 493,563 493,564 493,564 492,565 492,565 492,566 492,566 492,567 492,567 492,568 491,568 491,569 491,569 491,570 491,570 491,571 491,571 491,572 491,572 491,573 491,573 491,573 491,574 491,574 491,575 491,575 490,576 490,576 490,576 490,577 490,577 490,578 490,578 490,578 490,579 490,579 490,580 490,580 490,580 490,581 490,581 490,582 490,582 490,582 490,583 490,583 490,584 490,584 490,584 490,585 490,585 490,586 491,586 491,587 491,587 491,587 491,588 491,588 491,589 491,589 491,590 491,590 491,590 491,591 491,591 491,592 491,592 492,593 492,593 492,594 492,594 492,595 492,595 492,596 492,596 493,597 493,597 493,598 493,599 494,599 494,600 494,601 495,601 495,602 496,603 496,604 497,605 499,605 500,606 " />
<polyline fill="none" vector-effect="none" points="285,555 283,556 281,557 280,559 280,559 279,560 279,561 279,562 278,563 278,563 278,564 278,564 277,565 277,566 277,566 277,567 277,567 277,568 277,568 276,569 276,569 276,570 276,570 276,571 276,571 276,571 276,572 276,572 276,573 276,573 276,574 276,574 276,575 276,575 276,575 275,576 275,576 275,577 275,577 275,577 275,578 275,578 275,579 275,579 275,579 275,580 275,580 275,581 275,581 275,581 275,582 275,582 275,583 275,583 275,583 275,584 275,584 275,585 275,585 276,585 276,586 276,586 276,587 276,587 276,588 276,588 276,588 276,589 276,589 276,590 276,590 276,591 276,591 276,591 276,592 276,592 277,593 277,593 277,594 277,594 277,595 277,595 277,596 278,597 278,597 278,598 278,598 278,599 279,600 279,600 279,601 280,602 280,602 281,603 282,604 283,605 284,606 285,606 " />
<polyline fill="none" vector-effect="none" points="285,555 500,555 " />
<polyline fill="none" vector-effect="none" points="500,555 285,555 " />
<polyline fill="none" vector-effect="none" points="285,606 500,606 " />
<polyline fill="none" vector-effect="none" points="676,601 679,600 680,599 681,597 681,597 682,596 682,595 682,594 683,594 683,593 683,593 683,592 683,592 683,591 684,591 684,590 684,590 684,589 684,589 684,588 684,588 684,587 684,587 684,586 684,586 684,586 684,585 684,585 684,584 684,584 684,583 685,583 685,583 685,582 685,582 685,581 685,581 685,581 685,580 685,580 685,579 685,579 685,579 685,578 684,578 684,577 684,577 684,577 684,576 684,576 684,575 684,575 684,575 684,574 684,574 684,573 684,573 684,572 684,572 684,571 684,571 683,570 683,570 683,569 683,569 683,568 683,568 683,567 682,567 682,566 682,566 682,565 681,564 681,563 680,563 679,562 678,561 677,560 674,561 673,562 672,564 672,564 671,565 671,566 671,567 670,567 670,568 670,568 670,569 670,570 670,570 669,571 669,571 669,572 669,572 669,572 669,573 669,573 669,574 669,574 669,575 669,575 669,576 669,576 669,576 669,577 669,577 668,578 668,578 668,578 668,579 668,579 668,580 668,580 668,580 668,581 668,581 668,582 668,582 668,582 668,583 668,583 668,584 669,584 669,584 669,585 669,585 669,586 669,586 669,587 669,587 669,587 669,588 669,588 669,589 669,589 669,590 669,590 669,591 670,591 670,592 670,592 670,593 670,593 670,594 671,594 671,595 671,596 671,596 672,597 672,598 673,598 673,599 674,600 676,601 676,601 " />
<polyline fill="none" vector-effect="none" points="505,560 502,561 501,563 500,564 500,565 499,565 499,566 499,567 498,567 498,568 498,569 498,569 498,570 498,570 497,571 497,571 497,572 497,572 497,573 497,573 497,573 497,574 497,574 497,575 497,575 497,576 497,576 497,576 497,577 497,577 497,578 496,578 496,578 496,579 496,579 496,580 496,580 496,580 496,581 496,581 496,582 496,582 496,582 496,583 497,583 497,584 497,584 497,585 497,585 497,585 497,586 497,586 497,587 497,587 497,587 497,588 497,588 497,589 497,589 497,590 497,590 498,591 498,591 498,592 498,592 498,593 498,593 498,594 499,594 499,595 499,596 499,596 500,597 500,598 501,599 502,599 503,600 504,601 505,601 " />
<polyline fill="none" vector-effect="none" points="505,560 676,560 " />
<polyline fill="none" vector-effect="none" points="676,560 505,560 " />
<polyline fill="none" vector-effect="none" points="505,601 676,601 " />
<polyline fill="none" vector-effect="none" points="817,597 819,596 820,594 821,593 821,593 822,592 822,591 822,591 822,590 822,590 823,589 823,588 823,588 823,588 823,587 823,587 823,586 823,586 823,585 823,585 823,584 823,584 823,584 823,583 823,583 823,582 823,582 823,582 823,581 823,581 823,580 823,580 823,580 823,579 823,579 823,578 823,578 823,578 823,577 823,577 823,576 823,576 823,575 823,575 823,575 823,574 823,574 823,573 823,573 823,572 822,572 822,571 822,571 822,570 822,570 822,569 821,568 821,568 821,567 820,566 819,565 818,565 816,565 814,566 813,567 813,568 813,569 812,570 812,570 812,571 812,571 812,572 811,572 811,573 811,573 811,574 811,574 811,575 811,575 811,576 811,576 811,576 811,577 811,577 811,578 811,578 811,579 811,579 811,579 811,580 811,580 811,581 811,581 811,581 811,582 811,582 811,583 811,583 811,583 811,584 811,584 811,585 811,585 811,585 811,586 811,586 811,587 811,587 811,588 811,588 811,589 812,589 812,590 812,590 812,591 812,591 812,592 813,592 813,593 813,594 814,594 814,595 815,596 817,597 817,597 " />
<polyline fill="none" vector-effect="none" points="679,564 677,566 676,567 675,568 675,569 675,569 675,570 674,570 674,571 674,572 674,572 674,573 674,573 674,574 674,574 673,575 673,575 673,575 673,576 673,576 673,577 673,577 673,578 673,578 673,578 673,579 673,579 673,580 673,580 673,580 673,581 673,581 673,582 673,582 673,582 673,583 673,583 673,584 673,584 673,584 673,585 673,585 673,586 673,586 673,587 673,587 674,587 674,588 674,588 674,589 674,589 674,590 674,590 674,591 675,592 675,592 675,593 676,593 676,594 676,595 677,596 678,597 679,597 " />
<polyline fill="none" vector-effect="none" points="101,927 111,943 " />
<polyline fill="none" vector-effect="none" points="111,927 101,943 " />
<polyline fill="none" vector-effect="none" points="852,536 857,544 " />
<polyline fill="none" vector-effect="none" points="857,544 857,552 " />
<polyline fill="none" vector-effect="none" points="863,536 857,544 " />
<polyline fill="none" vector-effect="none" points="321,100 311,115 " />
<polyline fill="none" vector-effect="none" points="311,100 321,100 " />
<polyline fill="none" vector-effect="none" points="311,115 321,115 " />
<polyline fill="none" vector-effect="none" points="162,878 179,868 " />
<polyline fill="none" vector-effect="none" points="162,878 161,877 160,875 159,873 158,872 156,870 155,869 153,868 152,866 150,865 149,864 147,863 145,862 144,861 142,860 140,859 138,858 136,857 134,857 133,856 131,856 129,855 127,855 125,855 123,854 121,854 119,854 117,854 115,854 113,855 111,855 109,855 107,856 105,856 103,857 101,858 99,858 97,859 96,860 94,861 92,862 91,863 89,864 87,866 86,867 84,868 83,870 82,870 " />
<polyline fill="none" vector-effect="none" points="179,868 178,866 177,864 176,863 175,861 174,860 172,858 171,857 170,855 168,854 167,852 165,851 164,850 162,849 161,847 159,846 157,845 155,844 154,843 152,842 150,841 148,840 147,840 145,839 143,838 141,837 139,837 137,836 135,836 133,835 131,835 129,835 127,835 125,834 123,834 121,834 119,834 117,834 115,834 113,834 111,834 109,835 107,835 105,835 103,836 101,836 100,837 98,837 96,838 94,839 92,840 90,840 88,841 87,842 85,843 83,844 81,845 80,846 78,847 76,848 75,850 73,851 72,852 70,854 69,855 68,856 " />
<polyline fill="none" vector-effect="none" points="82,870 86,874 " />
<polyline fill="none" vector-effect="none" points="68,856 64,853 " />
<polyline fill="none" vector-effect="none" points="86,874 61,878 " />
<polyline fill="none" vector-effect="none" points="61,878 64,853 " />
<polyline fill="none" vector-effect="none" points="241,153 223,163 " />
<polyline fill="none" vector-effect="none" points="241,153 242,155 243,156 244,158 245,159 247,161 248,162 249,164 251,165 252,166 254,168 256,169 257,170 259,171 261,172 262,173 264,174 266,175 268,175 270,176 272,176 274,177 276,177 278,178 280,178 282,178 284,178 286,178 288,178 290,178 292,178 294,177 296,177 298,176 299,176 301,175 303,175 305,174 307,173 309,172 310,171 312,170 314,169 315,168 317,166 318,165 320,164 320,163 " />
<polyline fill="none" vector-effect="none" points="223,163 224,165 225,166 227,168 228,170 229,171 230,173 231,174 233,176 234,177 236,179 237,180 239,181 240,183 242,184 243,185 245,186 247,187 248,188 250,189 252,190 254,191 255,192 257,193 259,194 261,194 263,195 265,195 267,196 269,196 271,197 273,197 275,198 277,198 278,198 280,198 282,198 284,198 286,198 288,198 290,198 292,198 294,198 296,197 298,197 300,197 302,196 304,196 306,195 308,194 310,194 312,193 314,192 315,191 317,190 319,189 321,188 322,187 324,186 326,185 327,184 329,183 330,181 332,180 333,179 335,178 " />
<polyline fill="none" vector-effect="none" points="320,163 317,160 " />
<polyline fill="none" vector-effect="none" points="335,178 338,181 " />
<polyline fill="none" vector-effect="none" points="317,160 342,156 " />
<polyline fill="none" vector-effect="none" points="342,156 338,181 " />
<polyline fill="none" vector-effect="none" points="750,533 735,520 " />
<polyline fill="none" vector-effect="none" points="750,533 749,535 747,536 746,538 745,540 744,541 743,543 742,545 741,547 741,549 740,550 739,552 739,554 738,556 738,558 738,560 737,562 737,564 737,566 737,568 737,570 737,572 738,574 738,576 738,578 739,580 739,582 740,584 741,586 742,587 742,589 743,591 744,593 745,594 747,596 748,598 749,599 750,601 752,602 753,604 755,605 756,606 758,607 759,609 761,610 763,611 765,612 " />
<polyline fill="none" vector-effect="none" points="735,520 733,521 732,523 731,524 730,526 729,528 728,529 727,531 726,533 725,535 724,536 723,538 722,540 721,542 721,544 720,546 720,548 719,550 719,552 718,553 718,555 718,557 717,559 717,561 717,563 717,565 717,567 717,569 717,571 717,573 717,575 718,577 718,579 718,581 719,583 719,585 720,587 721,589 721,591 722,593 723,595 723,596 724,598 725,600 726,602 727,604 728,605 729,607 731,609 732,610 733,612 734,613 736,615 737,616 738,618 740,619 741,620 743,622 744,623 746,624 748,625 749,626 751,627 753,628 755,629 756,630 " />
<polyline fill="none" vector-effect="none" points="765,612 767,607 " />
<polyline fill="none" vector-effect="none" points="756,630 754,635 " />
<polyline fill="none" vector-effect="none" points="767,607 779,630 " />
<polyline fill="none" vector-effect="none" points="779,630 754,635 " />
<polyline fill="none" vector-effect="none" points="817,564 737,564 " />
<polyline fill="none" vector-effect="none" points="717,564 679,564 " />
<polyline fill="none" vector-effect="none" points="679,564 717,564 " />
<polyline fill="none" vector-effect="none" points="737,564 817,564 " />
<polyline fill="none" vector-effect="none" points="679,597 724,597 " />
<polyline fill="none" vector-effect="none" points="747,597 817,597 " />
</g>

<g fill="none" stroke="#000000" stroke-opacity="1" stroke-width="1" stroke-linecap="round" stroke-linejoin="round" transform="matrix(1,0,0,1,0,0)"
font-family="Sans Serif" font-size="9" font-weight="400" font-style="normal" 
>
<polyline fill="none" vector-effect="non-scaling-stroke" points="83,931 58,975 " />
<polyline fill="none" vector-effect="non-scaling-stroke" points="58,975 83,931 " />
</g>

<g fill="#000000" fill-opacity="1" stroke="#000000" stroke-opacity="1" stroke-width="1" stroke-linecap="round" stroke-linejoin="round" transform="matrix(1,0,0,1,0,0)"
font-family="Sans Serif" font-size="9" font-weight="400" font-style="normal" 
>
<path vector-effect="non-scaling-stroke" fill-rule="evenodd" d="M58,975 L67,951 L74,955 L58,975"/>
</g>

<g fill="none" stroke="#000000" stroke-opacity="1" stroke-width="1" stroke-linecap="round" stroke-linejoin="round" transform="matrix(1,0,0,1,0,0)"
font-family="Sans Serif" font-size="9" font-weight="400" font-style="normal" 
>
<polyline fill="none" vector-effect="non-scaling-stroke" points="285,75 285,25 " />
<polyline fill="none" vector-effect="non-scaling-stroke" points="892,581 943,581 " />
<polyline fill="none" vector-effect="non-scaling-stroke" points="285,25 285,75 " />
</g>

<g fill="#000000" fill-opacity="1" stroke="#000000" stroke-opacity="1" stroke-width="1" stroke-linecap="round" stroke-linejoin="round" transform="matrix(1,0,0,1,0,0)"
font-family="Sans Serif" font-size="9" font-weight="400" font-style="normal" 
>
<path vector-effect="non-scaling-stroke" fill-rule="evenodd" d="M285,25 L290,50 L281,50 L285,25"/>
</g>

<g fill="none" stroke="#000000" stroke-opacity="1" stroke-width="1" stroke-linecap="round" stroke-linejoin="round" transform="matrix(1,0,0,1,0,0)"
font-family="Sans Serif" font-size="9" font-weight="400" font-style="normal" 
>
<polyline fill="none" vector-effect="non-scaling-stroke" points="943,581 892,581 " />
</g>

<g fill="#000000" fill-opacity="1" stroke="#000000" stroke-opacity="1" stroke-width="1" stroke-linecap="round" stroke-linejoin="round" transform="matrix(1,0,0,1,0,0)"
font-family="Sans Serif" font-size="9" font-weight="400" font-style="normal" 
>
<path vector-effect="non-scaling-stroke" fill-rule="evenodd" d="M943,581 L917,585 L917,576 L943,581"/>
</g>

<g fill="none" stroke="#000000" stroke-opacity="1" stroke-width="1" stroke-linecap="round" stroke-linejoin="round" transform="matrix(1,0,0,1,0,0)"
font-family="Sans Serif" font-size="9" font-weight="400" font-style="normal" 
>
<polyline fill="none" vector-effect="non-scaling-stroke" points="285,581 285,198 " />
<polyline fill="none" vector-effect="non-scaling-stroke" points="285,178 285,75 " />
<polyline fill="none" vector-effect="non-scaling-stroke" points="285,581 138,836 " />
<polyline fill="none" vector-effect="non-scaling-stroke" points="127,855 83,931 " />
<polyline fill="none" vector-effect="non-scaling-stroke" points="739,581 892,581 " />
<polyline fill="none" vector-effect="non-scaling-stroke" points="285,581 718,581 " />
</g>
</g>
</svg>
