<?xml version="1.0" encoding="UTF-8" standalone="no"?>
<svg
   xmlns:dc="http://purl.org/dc/elements/1.1/"
   xmlns:cc="http://creativecommons.org/ns#"
   xmlns:rdf="http://www.w3.org/1999/02/22-rdf-syntax-ns#"
   xmlns:svg="http://www.w3.org/2000/svg"
   xmlns="http://www.w3.org/2000/svg"
   xmlns:sodipodi="http://sodipodi.sourceforge.net/DTD/sodipodi-0.dtd"
   xmlns:inkscape="http://www.inkscape.org/namespaces/inkscape"
   width="210mm"
   height="297mm"
   viewBox="0 0 210 297"
   version="1.1"
   id="svg915"
   inkscape:version="1.0.2 (e86c870879, 2021-01-15)"
   sodipodi:docname="series match.svg"
   inkscape:export-filename="../Basics/img/yagi 2.png"
   inkscape:export-xdpi="36.268444"
   inkscape:export-ydpi="36.268444">
  <defs
     id="defs909">
    <inkscape:path-effect
       effect="roughen"
       id="path-effect4"
       is_visible="true"
       lpeversion="1.2"
       global_randomize="1;1"
       displace_x="0.3;1"
       displace_y="0.3;1"
       method="size"
       max_segment_size="2.63782"
       segments="2"
       handles="along"
       shift_nodes="true"
       fixed_displacement="false"
       spray_tool_friendly="false" />
    <inkscape:path-effect
       effect="roughen"
       id="path-effect1023"
       is_visible="true"
       lpeversion="1"
       method="size"
       max_segment_size="0.06"
       segments="2"
       displace_x="3;1"
       displace_y="3;1"
       global_randomize="1;1"
       handles="along"
       shift_nodes="true"
       fixed_displacement="true"
       spray_tool_friendly="true" />
    <inkscape:path-effect
       effect="roughen"
       id="path-effect1021"
       is_visible="true"
       lpeversion="1"
       method="size"
       max_segment_size="0.06"
       segments="2"
       displace_x="3;1"
       displace_y="3;1"
       global_randomize="1;1"
       handles="along"
       shift_nodes="true"
       fixed_displacement="true"
       spray_tool_friendly="true" />
    <inkscape:path-effect
       effect="roughen"
       id="path-effect1019"
       is_visible="true"
       lpeversion="1"
       method="size"
       max_segment_size="0.06"
       segments="2"
       displace_x="3;1"
       displace_y="3;1"
       global_randomize="1;1"
       handles="along"
       shift_nodes="true"
       fixed_displacement="true"
       spray_tool_friendly="true" />
    <marker
       style="overflow:visible;"
       id="marker1984"
       refX="0.0"
       refY="0.0"
       orient="auto"
       inkscape:stockid="Arrow1Mend"
       inkscape:isstock="true">
      <path
         transform="scale(0.4) rotate(180) translate(10,0)"
         style="fill-rule:evenodd;stroke:#000000;stroke-width:1pt;stroke-opacity:1;fill:#000000;fill-opacity:1"
         d="M 0.0,0.0 L 5.0,-5.0 L -12.5,0.0 L 5.0,5.0 L 0.0,0.0 z "
         id="path1982" />
    </marker>
    <marker
       style="overflow:visible"
       id="marker1938"
       refX="0.0"
       refY="0.0"
       orient="auto"
       inkscape:stockid="Arrow1Mstart"
       inkscape:isstock="true">
      <path
         transform="scale(0.4) translate(10,0)"
         style="fill-rule:evenodd;stroke:#000000;stroke-width:1pt;stroke-opacity:1;fill:#000000;fill-opacity:1"
         d="M 0.0,0.0 L 5.0,-5.0 L -12.5,0.0 L 5.0,5.0 L 0.0,0.0 z "
         id="path1936" />
    </marker>
  </defs>
  <sodipodi:namedview
     id="base"
     pagecolor="#ffffff"
     bordercolor="#666666"
     borderopacity="1.0"
     inkscape:pageopacity="0.0"
     inkscape:pageshadow="2"
     inkscape:zoom="1.004364"
     inkscape:cx="60.734953"
     inkscape:cy="31.860959"
     inkscape:document-units="mm"
     inkscape:current-layer="layer1"
     inkscape:document-rotation="0"
     showgrid="true"
     inkscape:snap-grids="true"
     showborder="false"
     inkscape:window-width="1600"
     inkscape:window-height="1146"
     inkscape:window-x="0"
     inkscape:window-y="0"
     inkscape:window-maximized="1"
     inkscape:showpageshadow="2"
     inkscape:pagecheckerboard="0"
     inkscape:deskcolor="#d1d1d1">
    <inkscape:grid
       type="xygrid"
       id="grid1478"
       units="mm"
       spacingx="1"
       spacingy="1"
       originx="0"
       originy="0"
       visible="true" />
  </sodipodi:namedview>
  <metadata
     id="metadata912">
    <rdf:RDF>
      <cc:Work
         rdf:about="">
        <dc:format>image/svg+xml</dc:format>
        <dc:type
           rdf:resource="http://purl.org/dc/dcmitype/StillImage" />
        <dc:title></dc:title>
      </cc:Work>
    </rdf:RDF>
  </metadata>
  <g
     inkscape:label="Layer 1"
     inkscape:groupmode="layer"
     id="layer1">
    <path
       id="rect2028"
       style="fill:#ffffff;fill-opacity:1;stroke:#000000;stroke-width:0.377953;stroke-miterlimit:4;stroke-dasharray:none"
       d="m -415.74805,-396.84961 v 793.69922 h 793.70117 v -793.69922 z m 710.4961,125.65625 c 0.22839,-0.009 0.46213,-0.008 0.70117,0.004 0.544,0.028 1.11585,0.11385 1.71289,0.26562 3.62745,0.9221 8.02412,3.39135 7.54492,7.98828 -0.41701,4.00036 -4.53315,8.28171 -7.16406,11.0586 -0.62827,0.5374 -1.18621,1.16912 -1.88477,1.61133 -6.44025,4.07674 -13.86648,6.24939 -20.35742,10.21874 -0.1385,0.1427 -0.2411,0.33314 -0.41601,0.42774 -9.18647,4.96829 -2.99651,1.43991 -10.97852,5.25586 -4.53535,2.16821 -8.9024,4.65264 -13.31445,7.05469 -5.74572,2.98495 -11.22026,6.46192 -16.95118,9.46875 -2.27264,1.15164 -4.667,2.08157 -6.91015,3.29101 -1.7964,0.96857 -3.50718,2.23721 -5.26953,3.26563 -0.54639,0.27994 -1.10296,0.53997 -1.63867,0.83984 -0.90892,0.50876 -1.71731,1.18941 -2.64649,1.66016 -2.16597,1.09733 -4.44754,1.71841 -6.72656,2.52343 -0.70874,0.26036 -1.41488,0.5247 -2.125,0.78125 -1.22414,0.44227 -2.43242,0.94008 -3.6836,1.29883 -1.51152,0.43342 -3.33306,0.58258 -4.75585,1.28907 -1.17574,0.98499 -2.49888,2.44717 -4.11719,2.77539 -1.18918,0.24117 -2.42743,0.0429 -3.64063,0.0644 -9.85493,0.17471 12.67499,-10.3919 2.85547,-9.53906 -0.94104,0.0817 -1.89339,0.0805 -2.82422,0.23632 -0.17111,0.13228 -0.33817,0.27145 -0.51367,0.39649 -0.1389,0.099 0.18203,-0.3413 0.34961,-0.37305 0.0543,-0.0103 0.10963,-0.0143 0.16406,-0.0234 1.33134,-1.02915 2.56675,-2.2198 4.16602,-2.83593 3.58283,-1.25596 7.36879,-1.85222 10.8457,-3.47071 1.02499,-0.35391 2.04491,-0.72729 3.07617,-1.0625 0.59373,-0.193 0.86096,-0.0781 1.48438,-0.39648 1.641,-0.83801 3.05285,-2.14941 4.79883,-2.8125 3.90604,-2.14754 -0.78345,0.50684 3.10156,-1.94531 2.98604,-1.88474 6.20752,-3.29851 9.40039,-4.78907 5.69214,-2.95426 11.08986,-6.45664 16.79883,-9.38671 4.66007,-2.53702 9.27795,-5.13431 14.06836,-7.42579 2.82278,-1.35026 5.84178,-2.28414 8.59375,-3.77343 0.63154,-0.34178 1.1279,-0.89084 1.6914,-1.33594 1.13255,-0.66818 2.23406,-1.39287 3.39844,-2.00391 3.026,-1.58797 6.19255,-2.89184 9.29883,-4.3164 1.40192,-0.64293 5.07781,-2.24936 6.38672,-2.99219 0.42113,-0.239 0.75389,-0.60816 1.13086,-0.91211 0.6354,-0.63098 1.31808,-1.21734 1.90625,-1.89258 0.12137,-0.13934 0.22914,-0.28995 0.33398,-0.44336 -6.87749,0.56663 -4.97076,-9.75689 2.10938,-10.04492 z m 2.94531,9.15625 c -0.40619,-0.0273 -1.08905,0.0523 -2.11133,0.27539 0.23781,0.56016 0.41088,1.12978 0.55859,1.29297 0.36518,0.40325 3.26213,-1.45367 1.55274,-1.56836 z m -0.82227,85.79492 c 5.61123,0.0529 7.17058,6.58294 -0.0547,10.03711 -7.42355,3.54902 -14.75047,7.44203 -22.60157,9.98438 -0.9539,0.30889 -1.94116,0.50175 -2.91211,0.75195 l -5.58789,1.93555 c -1.55783,0.57206 -3.1759,1.00242 -4.67382,1.71679 -10.07365,4.80423 -0.21388,0.52873 -6.3125,4.18555 -3.65716,2.19289 -7.58457,3.51325 -11.39844,5.3457 -0.53686,0.29883 -1.03126,0.69391 -1.61133,0.89649 -10.49829,3.66632 0.25616,-0.31411 -7.36133,1.55469 -2.72915,0.66954 -3.61522,1.53227 -6.21094,2.375 -1.07382,0.34862 -2.18828,0.55087 -3.2832,0.82617 -0.78789,0.0218 -2.93318,0.61292 -2.36523,0.0664 0.87485,-0.84184 3.09569,0.0316 3.46484,-1.125 0.80022,-2.5072 1.73637,-9.10027 -0.5918,-7.87304 -1.68454,0.88796 -3.04122,1.68383 -4.16406,2.41015 -0.231,2.09348 -0.46236,4.18777 -0.69336,6.28125 -1.66158,0.70214 -1.96785,-1.86159 -1.78711,-4.47461 -7.03068,6.09271 9.25291,4.88074 2.93946,5.22071 -9.84223,0.52998 -6.18698,-17.77235 -0.1836,-9.95508 0.0134,0.0171 0.0278,0.0334 0.041,0.0508 -0.004,0.0371 -0.008,0.0742 -0.0117,0.11133 0.47868,-0.17562 1.83717,-0.68199 1.0918,-0.41016 3.90665,-0.77961 -0.47486,0.21074 5.37304,-1.78125 1.78021,-0.60639 3.57745,-1.17629 5.40235,-1.63086 1.73389,-0.43192 1.71794,0.26651 3.54101,-0.37109 0.76877,-0.26887 1.42954,-0.77997 2.14453,-1.16992 1.23943,-0.5813 2.46004,-1.20591 3.71875,-1.74414 2.66866,-1.14115 3.06176,-0.79523 5.8711,-2.49414 1.13135,-0.68418 2.05135,-1.67989 3.16992,-2.38477 5.43877,-3.42733 5.15846,-3.02738 10.66016,-5.04492 2.13625,-0.72617 4.25646,-1.49863 6.4082,-2.17774 5.47766,-1.7288 -3.22975,1.89364 6.72265,-2.13671 5.72018,-2.3165 11.2151,-5.20834 16.78125,-7.86133 1.66829,-0.79516 3.17971,-1.12744 4.47461,-1.11524 z m -29.34179,44.27539 c 2.31212,-0.0466 4.70209,1.82332 5.22656,6.10352 0.31308,2.55508 1.92355,5.23707 1.66016,7.9043 -0.0409,0.41405 -0.11844,0.82384 -0.21094,1.23046 2.26791,1.11128 3.62159,3.65831 2.87109,6.23829 0.69741,1.56489 1.09991,2.88934 0.49024,4.90625 -0.14874,0.49205 -0.42127,0.92571 -0.72461,1.34375 0.0405,0.38636 0.0765,0.71813 0.11328,1.20898 -0.26328,1.23244 0.26647,2.70124 -0.0625,3.90625 -0.88578,3.244488 -1.08064,3.630607 -2.10938,5.169922 0.2369,0.372482 0.20318,2.162492 0.25586,2.912109 -1.51163,4.358385 -1.01797,3.35296 -1.17968,3.421875 0.28859,1.619542 -0.16656,2.565182 -1.44336,4.554688 0.50928,1.081188 0.66266,2.324251 0.60546,4.753906 -0.13844,0.893419 -0.18085,1.174711 -0.25586,1.484375 0.0229,0.736811 0.053,2.285163 0.0605,2.691406 0.0231,1.826139 -0.0139,3.652301 -0.01,5.478516 0.0749,0.611121 0.009,1.244737 -0.0274,1.873047 0.78126,0.99081 1.0733,1.43432 1.27539,3.486328 0.7529,0.979325 -0.52205,1.603492 -0.52734,2.433594 -7.2e-4,0.113699 0.14983,-0.366628 0.20898,-0.269532 0.10829,0.17799 0.005,0.416597 0.008,0.625 0.0726,0.974083 0.0794,1.947491 0.0605,2.923828 0.67519,0.172173 0.32364,3.35e-4 0.70313,1.289063 0.51855,1.76112 0.83771,3.528095 0.0117,5.294922 -0.33821,0.723492 -0.9571,1.278518 -1.43555,1.917969 2.08363,-2.081016 1.61688,-2.389859 1.64258,0.105468 0.0107,1.04326 0.0761,2.08346 0.0781,3.126954 -0.0234,1.947774 -0.0186,3.89393 -0.0156,5.841796 0.0169,2.591814 0.21591,5.025646 -0.71485,7.523438 -0.21083,0.565798 -0.35499,0.908273 -0.51757,1.314453 0.0344,0.12848 0.05,0.202969 0.0605,0.285156 -0.0182,-0.08695 -0.0448,-0.178729 -0.0664,-0.267578 -0.026,0.06476 -0.0572,0.14996 -0.082,0.210938 0.0253,0.01898 0.0504,0.02526 0.0742,0.06055 0.0618,0.107237 0.0834,0.109209 0.084,0.05859 0.52082,2.596346 -0.49342,4.363558 -2.33203,6.212891 -0.11423,1.227087 -0.69699,2.397596 -0.57031,3.5625 0.14527,0.145015 0.15,1.668249 0.11523,2.65625 -0.0117,1.616441 0.004,3.233164 0.004,4.849609 -3.6e-4,0.976401 -0.002,1.953287 -0.002,2.929688 -4e-5,0.100516 -0.10042,0.304787 0,0.300781 0.23194,-0.0093 0.20894,-0.277275 0.15625,-0.509766 0.0738,0.226539 0.19392,0.566627 0.4668,1.2363285 0.15671,0.575435 0.36084,1.1400048 0.46875,1.7265625 0.20213,1.0990275 0.18248,2.0727244 -0.12891,3.125 1.06491,9.7639737 -9.01429,10.7297984 -9.91211,0.9257812 -0.0676,-0.7364377 -0.0344,-0.3148011 -0.084,-1.2675781 0.0944,-1.6364504 0.009,-0.9462405 0.24414,-1.2832031 -0.89127,-2.3551059 -1.3916,-4.649611 -1.16406,-7.183594 2e-5,-1.733784 -0.0223,-3.467435 0,-5.201172 0.051,-1.427766 0.0332,-0.03218 -0.1211,-2.304687 0.036,-1.716058 -0.0275,-1.320436 0.34766,-3.396484 0.0325,-0.179633 0.21813,-0.307877 0.24609,-0.488282 0.1355,-0.87736 0.004,-1.809405 0.30469,-2.644531 0.4376,-1.213517 1.24735,-2.259486 1.8711,-3.388672 0.0157,-0.0138 0.0397,-0.04901 0.0566,-0.06641 0.10211,-2.557443 -0.008,-1.728789 0.99218,-4.572266 0.0757,-0.337791 0.28417,-0.80916 0.21094,-0.59375 -0.0961,0.282535 -0.13064,0.365438 -0.21094,0.59375 -0.0175,0.07802 -0.0362,0.158475 -0.0332,0.210938 0.006,0.110521 0.26456,-0.06803 0.2793,-0.177735 0.19787,-1.460563 -0.26185,-2.965702 0,-4.421875 -0.003,-1.952133 -0.008,-3.903422 0.0156,-5.855468 0.006,-2.537946 -0.20493,-4.782447 0.27344,-7.082032 -0.009,-0.04543 -0.007,-0.06206 -0.0156,-0.0918 -1.21533,-4.017368 0.15607,1.594962 -1.25585,-4.757812 0.0181,-0.912423 -8e-4,-1.816364 -0.0625,-2.728516 0.003,-0.397859 -0.03,-0.797223 0.008,-1.193359 0.0253,-0.2698 0.0268,-0.269806 0.0488,-0.501953 -0.0275,-0.05003 -0.0629,-0.09492 -0.0879,-0.146484 -1.02832,-2.118755 -0.93799,-4.064646 -0.90624,-6.28125 -0.005,-1.771873 0.0302,-3.542664 0.0117,-5.314454 -0.0326,-1.721877 -0.0733,-3.298103 0.20313,-4.980468 -0.14023,0.529876 0.0527,-0.358653 0.0391,-0.285157 -0.0179,0.09661 -0.0233,0.18931 -0.0391,0.285157 0.007,-0.02736 0.005,-0.01529 0.0137,-0.05078 0.32802,-0.234398 -0.25439,0.139637 0.55078,0.509766 0.163,0.07492 -0.43516,-0.47757 -0.25586,-0.472656 0.29211,0.0078 0.9102,0.715178 0.72852,0.486328 -2.72029,-3.426372 -0.64979,1.025556 -2.61133,-4.625 0.74861,-3.164969 0.22167,-2.612419 2.16602,-4.96875 0.0147,-0.01776 0.0434,-0.05226 0.0605,-0.07422 -0.0159,-0.588881 0.0492,-1.19457 0.22656,-1.835937 0.19494,-0.70475 0.53996,-1.359887 0.85547,-2.019532 4.5e-4,-9.24e-4 0.002,-0.003 0.002,-0.0039 -0.52872,-2.263834 -0.36509,-3.884625 1.03125,-6.505859 0.196,-0.245488 0.32336,-0.566892 0.58789,-0.736328 0.14248,-0.09128 0.44417,0.192671 0.50586,0.03516 0.0363,-0.09263 -0.0671,-4.023127 0.0879,-3.132817 -0.0328,-0.51063 -0.39734,-2.03554 -0.25391,-2.36523 0.34298,-0.78832 0.68935,-1.47626 1.02735,-2.09961 -0.0305,-0.10356 -0.0672,-0.2474 -0.0938,-0.31836 -0.36515,-0.97507 -0.62178,-1.74224 -0.77148,-2.42969 -0.46045,-0.48476 -0.97983,-1.18469 -1.80078,-2.38867 -0.39008,-0.5721 -0.4476,-1.30973 -0.67188,-1.96484 -0.0118,-1.40365 -0.0274,-2.80727 -0.0351,-4.21094 -0.38798,-1.89465 -0.21578,-1.14354 -1.29297,-5.2168 -1.41748,-5.36001 1.42571,-8.59049 4.39844,-8.65039 z m 6.03125,100.812503 c 0.002,-0.0053 0.004,-0.01226 0.006,-0.01758 -0.057,-0.21283 -0.12602,-0.448569 -0.0996,-0.357422 0.0372,0.128456 0.0636,0.250428 0.0937,0.375 z m 0.59765,-85.394533 c -0.0708,0.29431 -0.14316,0.58818 -0.22461,0.87891 -0.10943,0.39058 -0.66639,1.47746 -0.47265,1.12109 0.27108,-0.49868 0.4695,-1.03244 0.70508,-1.54883 0.10764,0.25861 0.27414,1.051 0.32421,0.77539 0.0694,-0.3819 -0.10224,-0.77915 -0.25781,-1.13476 -0.0119,-0.0271 -0.0475,-0.0604 -0.0742,-0.0918 z m -3.78711,5.80664 c -0.10574,0.0262 -0.52719,0.27336 -1.10156,0.5918 0.0327,0.25761 0.0753,0.53027 0.12109,0.80664 0.72486,-1.00567 1.1657,-1.44434 0.98047,-1.39844 z m -2.05078,2.20899 c -0.17384,0.33986 -0.34764,0.67966 -0.52148,1.01953 0.0399,0.14845 0.099,0.29721 0.16211,0.44531 0.26117,-0.46625 0.51521,-0.90611 0.7539,-1.27734 -0.14657,-0.0658 -0.26759,-0.12588 -0.39453,-0.1875 z m 1.34961,0.625 c 0.003,0.0116 0.005,0.0216 0.008,0.0332 0.0723,0.31071 1.16968,0.51255 0.88282,0.37305 -0.38148,-0.18553 -0.59509,-0.27332 -0.89063,-0.40625 z m -73.5664,11.187497 c 1.28746,-0.01132 2.79196,0.325096 4.45703,1.126953 1.60046,0.77074 3.17176,1.60667 4.80273,2.310547 12.4605,5.377565 -0.18689,-0.128872 5.42969,1.808594 2.93741,0.696585 5.50948,2.315723 8.31836,3.332031 1.00426,0.363364 2.05515,0.587455 3.08203,0.880859 0.49653,0.08406 0.98469,0.250925 1.48828,0.251953 0.6661,0.0014 1.32561,-0.14557 1.98438,-0.24414 2.93061,-0.438524 1.90224,-0.815202 6.37695,0.5625 0.82398,0.253692 2.83882,1.509879 3.99805,2.226562 0.001,-8.48e-4 0.004,-0.0031 0.006,-0.0039 0.30013,-0.517217 1.41624,-0.87982 0,0 -10e-4,0.0019 -8.7e-4,0.004 -0.002,0.0059 0.12642,0.07815 0.34481,0.209833 0.44531,0.271485 0.32178,0.199457 1.34336,0.636623 0.9668,0.597656 -1.44147,-0.149108 -1.60104,-0.536079 -1.41211,-0.869141 -10e-4,-6.52e-4 -0.003,-0.0013 -0.004,-0.002 -0.75109,0.466248 -2.18908,1.265884 -4.88672,2.59961 -8.8356,4.368336 17.386,-0.141403 8.78906,4.679687 -4.55969,2.557036 -4.54838,4.085236 -8.6582,1.480469 -0.55779,-0.342221 -1.1423,-0.64367 -1.67383,-1.025391 -0.15202,-0.109171 -0.6417,-0.987274 -0.7168,-0.992187 -0.91056,-0.05791 -1.79496,0.345639 -2.70508,0.410156 -4.21493,0.298749 -3.49304,0.25705 -6.83593,-0.40625 -1.39403,-0.426584 -2.80991,-0.785774 -4.18164,-1.279297 -9.92675,-3.571412 4.47882,1.063159 -6.79297,-2.818359 -0.8273,-0.284882 -1.71073,-0.38613 -2.53907,-0.667969 -4.59902,-1.564879 -5.18369,-2.01497 -9.59765,-4.140625 -7.21531,-3.47471 -5.71769,-10.046664 -0.13867,-10.095703 z m 78.19726,3.490234 c -0.10263,0.154148 -0.1582,0.233528 -0.27539,0.41211 0.0355,0.072 0.0719,0.288678 0.10742,0.216797 0.0956,-0.192499 0.13031,-0.412427 0.16797,-0.628907 z m -0.81445,6.113281 c -0.10607,0.170143 -0.21562,0.346139 -0.38477,0.648438 -0.0757,0.135315 0.24715,-0.208042 0.30078,-0.353516 0.0375,-0.101651 0.0553,-0.196398 0.084,-0.294922 z m -3.69922,0.425782 c 0.004,0.01118 0.0286,0.0464 0.0781,0.109375 1.26145,1.603272 2.06128,2.484579 2.54493,3.505859 -0.12202,-0.87936 -2.66765,-3.739717 -2.62305,-3.615234 z m -5.70508,0.566406 c -0.006,0.213889 0.0838,0.521645 0.39844,1.109375 -0.15369,-0.376435 -0.28471,-0.742593 -0.39844,-1.109375 z m 8.32813,3.068359 c -0.0482,0.07515 -0.0957,0.151809 -0.14649,0.230469 0.11936,-0.01738 0.15845,-0.102512 0.14649,-0.230469 z m -1.60938,2.013672 c -0.16908,0.130435 -0.34381,0.256972 -0.49023,0.408203 -0.12689,0.131037 0.37376,-0.145386 0.45117,-0.310546 0.0149,-0.03179 0.0249,-0.06558 0.0391,-0.09766 z m 1.98047,14.431641 c -0.0176,0.383892 -0.0222,0.765524 0.0391,1.136719 0.0444,0.268841 0.16508,-0.55005 0.0918,-0.8125 -0.0315,-0.11291 -0.078,-0.220031 -0.13086,-0.324219 z m -36.66016,3.984375 c 3.30446,0.168503 5.81978,3.757076 2.85157,8.800781 -2.10122,3.570459 -1.38161,5.893595 -3.12305,9.148438 -0.45393,0.848425 -1.14999,1.443473 -1.88867,1.986328 -0.0144,0.107479 -0.0239,0.215618 -0.0449,0.322265 -0.0783,0.397622 -2.52265,3.341583 -2.68164,3.539063 -1.10258,1.720297 -2.6678,3.061522 -4.02735,4.558594 -0.0889,0.176633 -0.18243,0.373103 -0.25,0.470703 -0.0112,0.0162 -0.0485,0.02424 -0.0762,0.03711 -0.49555,0.898061 -0.98698,1.798051 -1.48047,2.697266 -0.75379,0.943764 -1.65461,2.396936 -2.71094,3.5625 -0.28995,0.565603 -0.68312,1.303849 -1.35156,2.699218 -0.29064,0.60672 -1.86789,2.002012 -2.73437,2.75586 0.21439,3.679717 -0.24922,6.332507 -3.16211,9.626953 -0.7996,0.904329 -2.04613,1.284794 -3.03125,1.982422 -0.26194,0.185493 -0.49424,0.408448 -0.72852,0.6289061 -1.33228,3.4824502 -1.73616,4.1818092 -4.07812,6.8652344 -0.71809,4.1159818 -0.54794,3.07534733 -2.20704,6.5410156 0.90046,-2.3079762 0.0663,0.021869 -1.66015,2.0917969 -0.26531,0.3181002 -1.11665,1.0830401 -1.04102,0.6757812 1.4596,-7.8607652 3.55095,-4.4003153 1.42774,-7.3652343 -5.73865,-8.0136192 0.21423,14.8859931 -6.42774,7.6035156 -0.4971,-0.5450366 -1.50162,-0.8971447 -1.49219,-1.6347656 0.0223,-1.7452208 1.35864,-5.81142896 1.52735,-6.9824219 -0.0392,-0.08289 -0.087,-0.1709576 -0.13867,-0.2480469 -0.0539,0.059494 -0.11928,0.1471748 -0.20508,0.28125 -0.49743,0.7772986 -0.76619,1.70096566 -1.33984,2.42382815 -0.28274,0.35626662 0.2946,-0.86053239 0.4414,-1.29101563 0.29033,-0.57013072 0.74996,-1.59229692 0.93164,-1.56445312 0.0621,0.00952 0.11902,0.071557 0.17188,0.1503906 0.15055,-0.1663005 0.18168,-0.050473 0.13867,0.2480469 0.0717,0.1515049 0.11971,0.2678289 0.13281,0.15625 0.34977,-2.982939 -1.44628,-5.3082782 2.36719,-7.765625 1.91095,-1.576024 -0.52837,0.5610656 1.26367,-1.470703 0.0836,-0.09487 0.30742,-0.02404 0.35156,-0.142578 0.26222,-0.703802 0.21979,-1.501911 0.51758,-2.191407 1.05133,-2.434075 1.37071,-2.496808 2.98633,-4.033203 0.82126,-0.602971 1.5774,-1.304659 2.46289,-1.808593 0.13565,-0.0772 0.0106,2.089168 0.57617,1.132812 0.33906,-0.573366 0.09,-1.332768 0.21875,-1.986328 0.18675,-0.948171 0.32843,-0.987278 0.42383,-0.8125 -0.0876,-0.558345 -0.2212,-1.58425 -0.41406,-3.501953 2.40274,-4.70676 0.78919,-2.860074 2.85547,-4.591797 0.41029,-0.343863 0.80523,-0.704154 1.21484,-1.048828 0.13414,-0.112891 0.37187,-0.491951 0.41602,-0.322266 0.0913,0.351115 0.12543,0.713369 0.13671,1.078125 1.82208,-1.923953 4.15426,-3.495265 5.34375,-5.855469 0.41581,-0.825037 -1.83744,0.245597 -2.73046,0.482422 -0.0805,0.02135 -0.18462,0.0965 -0.28711,0.175782 -0.12873,0.140412 -0.25514,0.278874 -0.43946,0.464843 -0.37715,0.380532 0.0508,-0.16419 0.43946,-0.464843 0.553,-0.60319 0.73252,-0.927348 1.49609,-1.988282 1.42031,-0.856541 0.004,0.183244 1.32031,-2.351562 1.25637,-2.419045 3.66316,-3.921804 5.09961,-6.216797 0.41096,-0.509368 0.80764,-1.031542 1.2207,-1.539063 0.4766,-2.913533 1.59645,-5.98575 2.61524,-3.597656 0.0117,-0.09927 0.0182,-0.198503 0.0371,-0.296875 0.55635,-2.901815 1.26951,-4.265721 2.38086,-7.029297 1.49397,-3.715053 4.12382,-5.201229 6.38476,-5.085937 z m -9.24023,28.863281 c 0.069,-0.125026 0.13751,-0.250272 0.20703,-0.375 -0.11805,0.132173 -0.24545,0.257255 -0.35937,0.392578 -0.0376,0.04461 0.0703,0.02049 0.15234,-0.01758 z m 0.20703,-0.375 c 0.0396,-0.04431 0.0792,-0.0888 0.11914,-0.132812 0.17175,-0.341121 0.32236,-0.666047 0.20899,-0.466797 -0.1127,0.198045 -0.21719,0.400582 -0.32813,0.599609 z m 37.59961,-26.935547 c 0.13853,0.220336 0.32574,0.422396 0.71875,0.833985 -0.22348,-0.288032 -0.47494,-0.558582 -0.71875,-0.833985 z m 1.86133,4.486328 c -1.05801,1.51555 -1.53676,1.981185 -1.39649,3.570313 0.24999,-1.159664 0.66402,-2.334154 1.39649,-3.570313 z m -39.26758,6.789063 c -0.0143,0.04464 -0.0362,0.07329 -0.0449,0.126953 -0.0747,0.46337 -0.10505,1.870969 -0.0391,1.40625 0.0719,-0.506227 0.0581,-1.022131 0.084,-1.533203 z m 6.93164,2.365234 c -0.0313,0.0082 -0.062,0.06553 -0.0898,0.183594 -0.2747,1.163494 -0.0898,2.388743 -0.0957,3.589844 0.13887,-0.22232 0.26453,-0.451346 0.35743,-0.689453 0.30863,-0.791098 0.0474,-3.14161 -0.17188,-3.083985 z m 29.72852,18.644532 c 0.0916,0.616843 0.40698,1.496119 0.24218,0.857421 -0.11906,-0.46145 -0.18242,-0.660967 -0.24218,-0.857421 z m 7.16015,4.386718 c -0.29368,0.286977 -0.60402,0.577053 -0.93359,0.873047 0.33481,0.880661 0.70181,-0.146801 0.93359,-0.873047 z m -59.42968,14.6035159 c -0.0734,0.068928 -0.1473,0.1386922 -0.22266,0.2050781 -0.1629,0.1773339 -0.4588,0.2922629 -0.48828,0.53125 -0.0201,0.1636951 0.29958,-0.1395734 0.44922,-0.2089844 0.0869,-0.1760425 0.25908,-0.5442795 0.26172,-0.5273437 z m 51.29687,0.8476562 c -0.0384,-0.059389 -0.56889,1.0205505 -0.70313,1.4375 -0.11536,0.3585174 -0.15843,0.7045279 -0.14843,1.0488281 0.15022,-0.2590691 0.39534,-0.8505738 0.83398,-2.3847656 0.0172,-0.060164 0.0231,-0.093078 0.0176,-0.1015625 z m -0.82031,2.8339844 c 0.0253,0.1925739 0.0598,0.3869397 0.11328,0.5820313 0.0287,0.1042728 -0.0143,-0.2163397 -0.0215,-0.3242188 -0.0346,-0.086453 -0.0582,-0.1715681 -0.0918,-0.2578125 z m 19.49609,11.1757813 c 3.57241,0.1190081 5.70848,4.4502091 1.875,9.6601562 -0.81215,1.103765 -1.60634,2.221488 -2.43555,3.3125 -0.59402,0.781588 -1.20286,1.552734 -1.83398,2.304688 -2.13507,2.543826 0.0971,-0.729888 0.79688,-3.46875 -0.0746,0.04454 -0.13748,0.08871 -0.2461,0.134765 -3.72624,1.580002 -6.32277,2.423166 -8.12109,2.779297 1.74556,0.740505 4.0108,1.546417 4.97656,2.511719 0.35601,0.355842 -0.70309,0.719871 -1.05469,1.080078 -1.97679,2.24604 -1.88407,2.158061 -5.73633,3.943359 -0.80484,0.373 -1.80817,0.291142 -2.54101,0.791016 -0.2185,0.149052 0.26513,0.471513 0.30859,0.732422 0.0358,0.214619 -0.0517,0.430499 -0.0781,0.646484 -0.13622,0.276333 -0.10301,0.788001 -0.40821,0.830078 -2.87603,0.396527 -5.96766,-0.557799 -8.69921,0.425782 -0.95104,0.342445 1.48463,1.435992 2.41211,1.83789 0.74069,0.320979 1.29004,0.519977 1.73632,0.658203 0.45367,-1.120813 2.32549,0.484307 0.5918,0.144531 -1.4759,1.942579 -1.67324,2.213972 -1.8418,1.986329 -0.35322,0.228367 -0.83816,0.46856 -1.51953,0.724609 -0.24249,0.09113 -0.47091,0.300899 -0.72851,0.273438 -1.2779,-0.136249 -4.98027,-0.291372 -3.78125,-0.753907 5.48311,-2.115177 5.76358,-0.602989 6.02929,-0.24414 4.42981,-2.863987 -14.88305,-3.754798 -6.6914,-7.783203 0.014,-0.0069 0.37977,-0.182905 0.4707,-0.228516 0.0108,-0.02035 0.0248,-0.04005 0.0352,-0.06055 0.84095,-0.89796 1.60304,-1.876774 2.52148,-2.695313 0.38225,-0.340664 0.98742,-0.617447 1.66211,-0.845703 1.18689,-2.243434 1.46733,-2.67269 5.08203,-5.173828 0.50084,-0.346547 1.16958,-0.34193 1.75391,-0.513672 0.12748,0.172961 0.1737,0.574623 0.38086,0.517579 0.96848,-0.266719 0.66222,-2.503046 2.00195,-2.253907 5.82208,-5.732704 -5.99632,5.254018 3.11719,3.449219 -1.76277,-0.747806 -2.99471,-1.429531 -1.81446,-2.142578 1.97888,-1.195529 3.58694,-2.04571 4.91407,-2.642578 -1.34632,-0.249091 -2.62465,-0.504589 -3.43946,-0.785156 -0.0467,-0.01609 0.0936,-0.04203 0.125,-0.08008 1.74371,-2.104995 2.23411,-2.864756 4.03516,-5.3124996 2.00801,-2.7290201 4.27327,-3.8221035 6.14453,-3.7597656 z m -6.86523,9.9375002 c 2.30299,0.426093 4.77019,0.835662 5.39258,1.324218 0.36467,-2.072128 -0.48076,-3.533283 -5.39258,-1.324218 z m 5.39258,1.324218 c -0.0313,0.178025 -0.0778,0.361983 -0.125,0.546876 0.3262,-0.194899 0.34291,-0.375789 0.125,-0.546876 z m -16.98438,17.0625 c 0.0454,-0.05972 0.0595,-0.07766 0.10742,-0.140624 0.0246,-0.03239 -0.0717,-0.03902 -0.10742,-0.05859 -0.089,0.01296 -0.23061,0.07079 -0.35547,0.113281 0.12871,0.03479 0.2533,0.06591 0.35547,0.08594 z m -0.35547,-0.08594 c -0.0857,-0.02316 -0.13809,-0.02817 -0.23633,-0.05859 -0.006,0.01362 -0.0145,0.02071 -0.0195,0.03516 -0.0385,0.109891 0.0942,0.07845 0.25586,0.02344 z m -8.06836,21.441406 c 3.7491,0.02971 7.50338,0.215092 11.24805,0.259766 3.66383,0.04142 7.32668,-0.0649 10.99023,-0.06836 9.85648,-0.0093 9.85647,9.970196 0,9.955078 -3.70461,-0.0057 -7.40835,0.121755 -11.11328,0.07031 -7.06612,-0.09082 -14.17385,-0.73234 -21.19922,0.355469 -9.74041,1.508205 -10.87998,-8.363174 -1.14257,-9.890625 3.72311,-0.584028 7.46769,-0.711354 11.21679,-0.681641 z"
       transform="scale(0.26458333)" />
    <path
       style="fill:none;stroke:#000000;stroke-width:0.5;stroke-linecap:butt;stroke-linejoin:miter;stroke-miterlimit:4;stroke-dasharray:none;stroke-opacity:1;marker-start:url(#marker1938);marker-end:url(#marker1984)"
       d="M 0,100 V 0 -100"
       id="path1482" />
    <text
       xml:space="preserve"
       style="font-style:normal;font-variant:normal;font-weight:normal;font-stretch:normal;font-size:10.5833px;line-height:1.25;font-family:'Comic Sans MS';-inkscape-font-specification:'Comic Sans MS, Normal';font-variant-ligatures:normal;font-variant-caps:normal;font-variant-numeric:normal;font-variant-east-asian:normal;fill:#000000;fill-opacity:1;stroke:none;stroke-width:0.264583"
       x="4.8025718"
       y="-91.996384"
       id="text2032"><tspan
         sodipodi:role="line"
         id="tspan2030"
         x="4.8025718"
         y="-91.996384"
         style="font-style:normal;font-variant:normal;font-weight:normal;font-stretch:normal;font-size:10.5833px;font-family:'Comic Sans MS';-inkscape-font-specification:'Comic Sans MS, Normal';font-variant-ligatures:normal;font-variant-caps:normal;font-variant-numeric:normal;font-variant-east-asian:normal;stroke-width:0.264583">Y</tspan></text>
    <text
       xml:space="preserve"
       style="font-size:10.5833px;line-height:1.25;font-family:'Comic Sans MS';-inkscape-font-specification:'Comic Sans MS, Normal';stroke-width:0.264583"
       x="91.344681"
       y="12.775299"
       id="text2036"><tspan
         sodipodi:role="line"
         x="91.344681"
         y="12.775299"
         style="stroke-width:0.264583"
         id="tspan2038">X</tspan></text>
    <text
       xml:space="preserve"
       style="font-style:normal;font-variant:normal;font-weight:normal;font-stretch:normal;font-size:7.05556px;line-height:1.25;font-family:'Comic Sans MS';-inkscape-font-specification:'Comic Sans MS, Normal';font-variant-ligatures:normal;font-variant-caps:normal;font-variant-numeric:normal;font-variant-east-asian:normal;stroke-width:0.264583"
       x="93.276848"
       y="-3.9561055"
       id="text2044"><tspan
         sodipodi:role="line"
         id="tspan2042"
         x="93.276848"
         y="-3.9561055"
         style="font-style:normal;font-variant:normal;font-weight:normal;font-stretch:normal;font-size:7.05556px;font-family:'Comic Sans MS';-inkscape-font-specification:'Comic Sans MS, Normal';font-variant-ligatures:normal;font-variant-caps:normal;font-variant-numeric:normal;font-variant-east-asian:normal;stroke-width:0.264583">0째</tspan></text>
    <text
       xml:space="preserve"
       style="font-style:normal;font-variant:normal;font-weight:normal;font-stretch:normal;font-size:7.05556px;line-height:1.25;font-family:'Comic Sans MS';-inkscape-font-specification:'Comic Sans MS, Normal';font-variant-ligatures:normal;font-variant-caps:normal;font-variant-numeric:normal;font-variant-east-asian:normal;stroke-width:0.264583"
       x="3.3950598"
       y="100.40604"
       id="text2044-1"><tspan
         sodipodi:role="line"
         id="tspan2120"
         x="3.3950598"
         y="100.40604">90째</tspan></text>
    <text
       xml:space="preserve"
       style="font-style:normal;font-variant:normal;font-weight:normal;font-stretch:normal;font-size:7.05556px;line-height:1.25;font-family:'Comic Sans MS';-inkscape-font-specification:'Comic Sans MS, Normal';font-variant-ligatures:normal;font-variant-caps:normal;font-variant-numeric:normal;font-variant-east-asian:normal;stroke-width:0.264583"
       x="-101.40144"
       y="8.5540495"
       id="text2044-0"><tspan
         sodipodi:role="line"
         id="tspan2122"
         x="-101.40144"
         y="8.5540495">180째</tspan></text>
    <text
       xml:space="preserve"
       style="font-style:normal;font-variant:normal;font-weight:normal;font-stretch:normal;font-size:7.05556px;line-height:1.25;font-family:'Comic Sans MS';-inkscape-font-specification:'Comic Sans MS, Normal';font-variant-ligatures:normal;font-variant-caps:normal;font-variant-numeric:normal;font-variant-east-asian:normal;stroke-width:0.264583"
       x="-17.410444"
       y="-94.769386"
       id="text2044-9"><tspan
         sodipodi:role="line"
         id="tspan2124"
         x="-17.410444"
         y="-94.769386">270째</tspan></text>
    <path
       id="path4-3"
       style="fill:none;stroke:#000000;stroke-width:5.66929;stroke-linecap:butt;stroke-linejoin:miter;stroke-dasharray:none;stroke-opacity:1"
       transform="scale(0.26458333)"
       d="m -200.82227,-340.54102 -6.12695,0.2754 -8.07031,0.0391 1.08789,9.04687 0.008,10.59571 0.18555,9.14257 -0.83594,9.76563 -0.93945,8.13476 0.9707,10.41016 -0.21875,9.56055 -0.73828,8.45312 0.41602,10.10547 0.043,9.44922 0.3711,9.57031 -0.0234,9.61914 0.67969,8.9043 -0.29688,10.36914 -0.65234,8.92773 -0.0195,9.10938 -0.50391,0.0547 -7.77734,-0.0547 0.12305,9.88477 -0.79297,9.7832 0.7539,9.16797 -0.0586,9.05273 -0.13477,9.33594 -0.19336,10.21289 1.03516,8.87695 -0.01,9.58789 -7.39257,-0.25976 1.21484,9.9414 -0.54297,9.648442 -0.47851,10.320312 0.28125,9.828125 -0.33399,9.81836 0.21094,10.255859 0.14062,9.285156 -0.0137,10.515625 0.39453,9.744141 0.47461,9.076172 -0.66992,10.4921874 0.10352,9.9765625 0.18554,10.0195311 0.0879,9.675781 0.11719,9.330078 -0.54492,10.484376 0.0117,9.771484 -0.0742,9.919922 0.043,9.853515 0.043,10.027344 -0.39649,10.652344 -0.43359,8.857423 -0.13672,9.9668 7.72852,0.18164 -0.0195,-0.53711 25.30664,0.67578 3.9336,-0.0801 8.41797,-0.67578 -0.42383,-9.50977 -0.45508,-10.228512 -0.47851,-9.34961 -0.85743,-10.857422 0.23828,-9.392578 -0.59374,-10.101562 -0.0781,-10.195313 0.25,-8.808594 0.26953,-10.197265 0.63281,-10.183594 0.0488,-10.1386719 0.6211,-10.0996093 0.82812,-9.5234378 -0.49219,-9.185547 0.28907,-10.339843 0.13281,-9.845703 0.0762,-9.205079 0.26562,-10.441406 0.0117,-9.921875 -0.0137,-9.625 -0.0723,-9.71289 -0.49414,-10.683598 0.60156,-9.42773 -9.82813,1.33789 -7.73047,-0.3418 -9.51367,-0.49218 -8.48828,-0.22266 28.66406,-0.0117 -1.27343,-9.4082 -0.26172,-9.49024 -0.53321,-9.90429 0.22461,-9.17383 -0.008,-9.53711 0.53516,-9.41797 -0.39453,-9.10352 0.31445,-9.60546 -7.15625,-0.5293 -2.18555,-0.1543 2.74219,-0.16015 -0.21484,-8.51172 -0.68164,-9.57032 0.01,-9.67382 -0.37695,-8.74219 0.33203,-10.59375 -0.44336,-8.51953 1.0918,-9.33203 -0.36328,-10.09571 -0.0371,-9.7207 -0.53321,-9.53516 0.33789,-8.28711 -0.0137,-10.82617 -0.28125,-9.08984 0.10156,-9.27539 -0.2207,-10.07422 z m 3.58789,454.90235 -5.6289,0.11328 -8.82031,0.14648 -10.12305,-0.38086 -0.71484,-0.0176 0.3125,8.875 0.10742,9.22851 -0.72656,10.03125 0.0684,9.06836 0.20508,9.36328 0.64258,9.56836 -0.66211,9.89649 0.23047,9.1582 7.4043,0.75586 0.43945,9.23437 -0.93359,8.91016 -0.45703,10.00586 0.22265,8.86914 -0.0957,9.41602 -0.45508,9.55273 0.64258,9.99023 -0.72461,8.88672 0.13281,9.11328 -0.0332,9.56055 0.32617,9.27735 0.11328,9.47265 -0.0195,10.01563 -0.16211,9.67773 0.0371,8.625 0.73633,9.20313 7.68164,0.0684 7.6543,0.1289 0.63671,-9.39648 -0.0957,-9.80078 0.0371,-9.13672 -0.10742,-9.45118 -0.22656,-9.29687 -0.0254,-9.5 -0.0215,-9.51758 -0.26758,-9.89648 0.25,-8.54492 0.043,-9.17188 0.32227,-9.60742 -0.10742,-9.84766 -0.22852,-9.97656 -0.6543,-8.71289 -0.0801,-9.86133 0.25196,-8.31641 0.66601,0.10157 7.31836,-1.29297 -0.006,-9.36133 -0.0664,-9.68164 -0.0176,-9.18945 -0.0234,-9.25977 0.0899,-9.45312 0.51562,-9.61914 -0.70312,-9.23438 -0.0508,-8.66016 z m 189.6835988,-397.81445 0.1796874,9.71874 -0.5722656,9.00586 0.027344,10.09766 -0.1601563,9.07813 -0.390625,9.21679 0.1816407,9.59375 0.064453,9.47852 0.1171875,9.47265 -0.2460938,8.44727 0.7832032,10.27734 -0.2460938,-0.008 h -7.431641 l -0.253906,9.51758 -0.5625,9.26172 -0.03516,9.74219 -0.339844,9.07812 0.744141,9.55859 -0.128906,9.47657 0.121093,9.27929 0.56836,9.56055 -7.539063,0.14063 -0.263672,9.95117 -0.335937,9.037107 0.335937,10.679687 -0.08008,10.046875 -0.205078,9.697266 -0.412109,10.041016 0.695312,9.542968 -0.484375,9.894532 0.0059,9.890625 -0.08789,9.884765 -0.06836,10.0644534 0.18164,9.6308594 -0.07422,9.8808592 -0.05664,9.941406 -0.0078,9.835938 -0.24414,9.541015 -0.289063,9.539063 1.035156,10.230469 -0.896484,10.300781 0.302734,9.025391 -0.0918,11.113281 1.105469,9.335933 -0.08594,9.73438 9.107422,-0.0703 8.8867184,-0.31055 2.6582031,0.30859 16.9882815,-0.10156 -0.0039,0.21289 7.980469,-0.1914 0.183594,-9.82422 0.380859,-10.363284 -0.0059,-9.945313 0.199219,-9.169922 0.171875,-9.730469 0.496093,-10.703124 -0.515624,-8.896485 -0.0039,-10.253906 -0.318359,-9.714844 0.05273,-9.822265 0.402344,-10.1054692 -0.117188,-10.2324219 -0.773437,-9.9570309 0.601563,-9.210938 -0.09766,-9.894531 -0.04297,-9.925781 -0.392578,-9.839844 -0.435546,-9.34375 0.255859,-10.033203 0.08398,-9.984375 -0.523437,-9.951172 0.435547,-9.818362 0.101562,-9.95312 -8.201172,0.27148 1.410157,-9.67187 -0.667969,-9.47657 0.535156,-9.0957 -0.330078,-9.21484 -0.488281,-9.48242 -0.447266,-10.1836 -0.451172,-8.82031 0.201172,-9.87109 -7.1054688,0.42773 -7.3554687,-0.26562 -4.0820313,-0.125 10.9042969,0.0664 0.984375,-9.4414 -1.28125,-9.49024 -0.082031,-9.40625 -0.2832031,-10.33789 0.7949218,-8.35352 0.2148438,-10.15625 0.3359375,-9.07617 -0.085937,-9.21875 0.3046875,-8.96093 -0.2558594,-10.07618 -8.1796875,0.50977 z m 22.4960932,396.87304 -0.451171,0.0117 -10.2539066,0.60547 -6.2792969,-0.72852 -13.0781255,0.0781 0.839844,10.00195 0.154297,8.91016 0.06641,9.94726 -0.550781,9.19141 0.859375,9.94141 -0.685547,8.78125 0.41211,8.97851 -1.208985,9.46094 7.5917971,0.1543 7.60351565,-0.62696 6.95898435,-0.22461 7.5839839,0.82227 -0.384765,-9.1543 0.148437,-9.77148 0.638672,-9.60742 0.02734,-9.08789 0.332031,-8.81836 -0.101562,-10.37891 -0.431641,-8.70898 z m 231.160158,-360.92383 -7.85156,0.5293 -0.94922,8.87695 0.58398,6.46094 c 2.62041,-1.52063 5.24598,-3.03261 7.94141,-4.41601 2.65506,-1.44547 5.29941,-2.90343 7.9668,-4.32032 l -0.26172,-6.93359 z m 7.29883,18.65821 c -0.93632,0.51447 -1.87416,1.02625 -2.8125,1.53711 -4.17262,2.16771 -8.20433,4.59197 -12.29297,6.91015 l 0.0273,1.94532 -0.19922,10.17968 0.32617,9.52539 -0.77539,9.5293 -7.78711,-0.51367 0.44922,10.29101 0.30664,9.35547 -1.0625,10.17188 0.3379,9.35351 0.0117,1.8125 c 1.13988,-0.36171 2.28583,-0.70532 3.44532,-0.99414 1.73389,-0.43192 1.71794,0.26651 3.54101,-0.37109 0.76877,-0.26887 1.42954,-0.77997 2.14453,-1.16992 1.23943,-0.5813 2.46004,-1.20591 3.71875,-1.74414 2.66866,-1.14115 3.06176,-0.79523 5.8711,-2.49414 1.13135,-0.68418 2.05135,-1.67989 3.16992,-2.38477 4.96657,-3.12976 5.35465,-3.14055 9.54101,-4.64258 l -0.13476,-5.95703 0.0566,-10.20117 -0.24414,-9.29102 -8.91211,-0.86914 -6.56445,0.041 -4.5293,-0.22461 12.45117,-0.004 -0.0644,-9.61133 0.60547,-9.28125 -0.26758,-10.22265 -0.39649,-9.97266 z m 8.41406,76.69726 c -0.26082,0.10716 -0.52259,0.21054 -0.77734,0.33203 -10.07365,4.80423 -0.21388,0.52873 -6.3125,4.18555 -3.65716,2.19289 -7.58457,3.51325 -11.39844,5.3457 -0.53686,0.29883 -1.03126,0.69391 -1.61133,0.89649 -10.49829,3.66632 0.25616,-0.31411 -7.36133,1.55469 -2.0041,0.49166 -3.02017,1.08752 -4.44336,1.70312 l -0.12109,6.08203 -0.0996,9.98047 0.76562,8.98242 21.78125,0.30078 -1.71484,0.0293 -9.48047,0.11524 -9.89258,0.13085 -9.00195,-0.99218 -0.12695,10.30468 0.17968,9.400395 0.36524,6.613281 c 0.36912,0.08224 0.73686,0.17306 1.11328,0.173828 0.6661,0.0014 1.32561,-0.14557 1.98438,-0.24414 2.93061,-0.438524 1.90224,-0.815202 6.37695,0.5625 0.82398,0.253692 2.83882,1.509879 3.99805,2.226562 0.001,-8.48e-4 0.004,-0.0031 0.006,-0.0039 0.30013,-0.517217 1.41624,-0.87982 0,0 -10e-4,0.0019 -8.7e-4,0.004 -0.002,0.0059 0.12642,0.07815 0.34481,0.209833 0.44531,0.271485 0.32178,0.199457 1.34336,0.636623 0.9668,0.597656 -1.44147,-0.149108 -1.60104,-0.536079 -1.41211,-0.869141 -10e-4,-6.52e-4 -0.003,-0.0013 -0.004,-0.002 -0.75109,0.466248 -2.18908,1.265884 -4.88672,2.59961 -8.8356,4.368336 17.386,-0.141403 8.78906,4.679687 -4.55969,2.557036 -4.54838,4.085236 -8.6582,1.480469 -0.55779,-0.342221 -1.1423,-0.64367 -1.67383,-1.025391 -0.15202,-0.109171 -0.6417,-0.987274 -0.7168,-0.992187 -0.91056,-0.05791 -1.79496,0.345639 -2.70508,0.410156 -1.86811,0.13241 -2.72132,0.184026 -3.43359,0.158203 l -0.008,3.167969 -0.57617,11.197266 0.77929,8.876953 -0.0976,9.673828 v 0.04492 c 0.22307,-0.284088 0.43576,-0.576186 0.6289,-0.884766 0.41096,-0.509368 0.80764,-1.031542 1.2207,-1.539063 0.4766,-2.913533 1.59645,-5.98575 2.61524,-3.597656 0.0117,-0.09927 0.0182,-0.198503 0.0371,-0.296875 0.55635,-2.901815 1.26951,-4.265721 2.38086,-7.029297 1.49397,-3.715053 4.12382,-5.201229 6.38476,-5.085937 3.30446,0.168503 5.81978,3.757076 2.85157,8.800781 -2.10122,3.570459 -1.38161,5.893595 -3.12305,9.148438 -0.45393,0.848425 -1.14999,1.443473 -1.88867,1.986328 -0.0144,0.107479 -0.0239,0.215618 -0.0449,0.322265 -0.0783,0.397622 -2.52265,3.341583 -2.68164,3.539063 -1.10258,1.720297 -2.6678,3.061522 -4.02735,4.558594 -0.0889,0.176633 -0.18243,0.373103 -0.25,0.470703 -0.0112,0.0162 -0.0485,0.02424 -0.0762,0.03711 -0.49555,0.898061 -0.98698,1.798051 -1.48047,2.697266 -0.75379,0.943764 -1.65461,2.396936 -2.71094,3.5625 -0.003,0.0052 -0.009,0.02012 -0.0117,0.02539 l 0.008,3.007813 0.22851,10.068359 0.10156,9.9140628 -0.21679,9.8574218 -0.0879,9.8789064 0.0156,10.640625 -0.38086,8.791016 -0.375,10.472656 -0.0156,10.095703 0.38086,8.654297 0.69726,10.191406 -0.63672,10.707031 -0.01,9.308594 -0.01,10.173825 0.75196,9.60547 7.32617,-0.11328 0.004,-0.0898 21.63282,0.0957 5.95312,-0.18555 9.45899,-0.79492 0.70898,-9.01367 -0.0449,-9.816407 -0.31836,-9.423828 -0.55078,-10.472656 -0.38867,-9.123047 c -0.34053,-0.0019 -0.68095,0.0086 -1.02149,0.0039 -7.06612,-0.09082 -14.17385,-0.73234 -21.19922,0.355469 -9.74041,1.508205 -10.87998,-8.363174 -1.14257,-9.890625 3.72311,-0.584028 7.46769,-0.711354 11.21679,-0.681641 3.7491,0.02971 7.50338,0.215092 11.24805,0.259766 0.0996,0.0011 0.19923,-9.13e-4 0.29883,0 l 0.78711,-11.275391 0.22851,-8.705078 -0.0527,-4.78125 c -0.0363,0.03474 -0.0712,0.07239 -0.12696,0.08008 -2.87603,0.396527 -5.96766,-0.557799 -8.69921,0.425782 -0.95104,0.342445 1.48463,1.435992 2.41211,1.83789 0.74069,0.320979 1.29004,0.519977 1.73632,0.658203 0.45367,-1.120813 2.32549,0.484307 0.5918,0.144531 -1.4759,1.942579 -1.67324,2.213972 -1.8418,1.986329 -0.35322,0.228367 -0.83816,0.46856 -1.51953,0.724609 -0.24249,0.09113 -0.47091,0.300899 -0.72851,0.273438 -1.2779,-0.136249 -4.98027,-0.291372 -3.78125,-0.753907 5.48311,-2.115177 5.76358,-0.602989 6.02929,-0.24414 4.42981,-2.863987 -14.88305,-3.754798 -6.6914,-7.783203 0.014,-0.0069 0.37977,-0.182905 0.4707,-0.228516 0.0108,-0.02035 0.0248,-0.04005 0.0352,-0.06055 0.84095,-0.89796 1.60304,-1.876774 2.52148,-2.695313 0.38225,-0.340664 0.98742,-0.617447 1.66211,-0.845703 1.18689,-2.243434 1.46733,-2.67269 5.08203,-5.173828 0.50084,-0.346547 1.16958,-0.34193 1.75391,-0.513672 0.12748,0.172961 0.1737,0.574623 0.38086,0.517579 0.27213,-0.07495 0.43858,-0.314429 0.57422,-0.601563 l -0.0332,-2.804687 0.0176,-10.0683599 -0.0195,-2.03125 c -2.35485,-0.079907 -4.7778,-2.30822632 -5.19727,-6.8886719 -0.0676,-0.7364377 -0.0344,-0.3148011 -0.084,-1.2675781 0.0944,-1.6364504 0.009,-0.9462405 0.24414,-1.2832031 -0.89127,-2.3551059 -1.3916,-4.649611 -1.16406,-7.183594 2e-5,-1.733784 -0.0223,-3.467435 0,-5.201172 0.051,-1.427766 0.0332,-0.03218 -0.1211,-2.304687 0.036,-1.716058 -0.0275,-1.320436 0.34766,-3.396484 0.0325,-0.179633 0.21813,-0.307877 0.24609,-0.488282 0.1355,-0.87736 0.004,-1.809405 0.30469,-2.644531 0.4376,-1.213517 1.24735,-2.259486 1.8711,-3.388672 0.0157,-0.0138 0.0397,-0.04901 0.0566,-0.06641 0.10211,-2.557443 -0.008,-1.728789 0.99218,-4.572266 0.0757,-0.337791 0.28417,-0.80916 0.21094,-0.59375 -0.0961,0.282535 -0.13064,0.365438 -0.21094,0.59375 -0.0175,0.07802 -0.0362,0.158475 -0.0332,0.210938 0.006,0.110521 0.26456,-0.06803 0.2793,-0.177735 0.19787,-1.460563 -0.26185,-2.965702 0,-4.421875 -0.003,-1.952133 -0.008,-3.903422 0.0156,-5.855468 0.006,-2.537946 -0.20493,-4.782447 0.27344,-7.082032 -0.009,-0.04543 -0.007,-0.06206 -0.0156,-0.0918 -1.21533,-4.017368 0.15607,1.594962 -1.25585,-4.757812 0.0181,-0.912423 -8e-4,-1.816364 -0.0625,-2.728516 0.003,-0.397859 -0.03,-0.797223 0.008,-1.193359 0.0253,-0.2698 0.0268,-0.269806 0.0488,-0.501953 -0.0275,-0.05003 -0.0629,-0.09492 -0.0879,-0.146484 -1.02832,-2.118755 -0.93799,-4.064646 -0.90624,-6.28125 -0.005,-1.771873 0.0302,-3.542664 0.0117,-5.314454 -0.0326,-1.721877 -0.0733,-3.298103 0.20313,-4.980468 -0.14023,0.529876 0.0527,-0.358653 0.0391,-0.285157 -0.0179,0.09661 -0.0233,0.18931 -0.0391,0.285157 0.007,-0.02736 0.005,-0.01529 0.0137,-0.05078 0.32802,-0.234398 -0.25439,0.139637 0.55078,0.509766 0.163,0.07492 -0.43516,-0.47757 -0.25586,-0.472656 0.29211,0.0078 0.9102,0.715178 0.72852,0.486328 -2.72029,-3.426372 -0.64979,1.025556 -2.61133,-4.625 0.74861,-3.164969 0.22167,-2.612419 2.16602,-4.96875 0.0147,-0.01776 0.0434,-0.05226 0.0605,-0.07422 -0.0159,-0.588881 0.0492,-1.19457 0.22656,-1.835937 0.19494,-0.70475 0.53996,-1.359887 0.85547,-2.019532 4.5e-4,-9.24e-4 0.002,-0.003 0.002,-0.0039 -0.52872,-2.263834 -0.36509,-3.884625 1.03125,-6.505859 0.196,-0.245488 0.32336,-0.566892 0.58789,-0.736328 0.14248,-0.09128 0.44417,0.192671 0.50586,0.03516 0.0363,-0.09263 -0.0671,-4.023127 0.0879,-3.132817 -0.0328,-0.51063 -0.39734,-2.03554 -0.25391,-2.36523 0.34298,-0.78832 0.68935,-1.47626 1.02735,-2.09961 -0.0305,-0.10356 -0.0672,-0.2474 -0.0938,-0.31836 -0.36515,-0.97507 -0.62178,-1.74224 -0.77148,-2.42969 -0.46045,-0.48476 -0.97983,-1.18469 -1.80078,-2.38867 -0.25445,-0.37318 -0.37239,-0.81456 -0.48242,-1.25976 l -4.41211,0.22461 0.0625,-9.30664 0.30664,-9.00977 0.83008,-9.78516 0.46093,-9.54492 z m 1.36914,185.531252 c 0.0454,-0.05972 0.0595,-0.07766 0.10742,-0.140624 0.0246,-0.03239 -0.0717,-0.03902 -0.10742,-0.05859 -0.089,0.01296 -0.23061,0.07079 -0.35547,0.113281 0.12871,0.03479 0.2533,0.06591 0.35547,0.08594 z m -0.35547,-0.08594 c -0.0857,-0.02316 -0.13809,-0.02817 -0.23633,-0.05859 -0.006,0.01362 -0.0145,0.02071 -0.0195,0.03516 -0.0385,0.109891 0.0942,0.07845 0.25586,0.02344 z m -10.74023,80.484375 -2.56641,0.0801 -8.78906,-0.0586 -9.03125,-0.0469 -1.25,0.0195 -0.47656,8.78711 -0.0566,10.18555 0.24218,9.21289 0.0176,9.48633 0.76953,10.19531 0.51563,8.45312 0.082,10.78125 -1.19336,8.36914 7.65625,0.56446 -0.0918,9.24609 0.4375,8.34375 0.66602,10.41406 0.0254,9.61133 -0.77149,8.92383 -0.0703,8.93359 8.25195,0.41016 7.03321,-1.00781 -0.19141,-9.30469 -0.33203,-9.45508 0.008,-8.83789 -0.0527,-9.11914 0.0937,-9.08984 -0.0742,-9.64258 -9.40234,0.0254 2.74218,-0.27344 6.74414,0.14844 7.44922,0.36523 0.25196,-9.74804 0.0195,-9.3086 -0.32813,-9.70312 0.18555,-9.04492 -0.13477,-9.67774 0.0352,-9.39062 0.44141,-8.74805 -0.48438,-10.0625 z M 226.88086,-33.763672 c 0.069,-0.125026 0.13751,-0.250272 0.20703,-0.375 -0.11805,0.132173 -0.24545,0.257255 -0.35937,0.392578 -0.0376,0.04461 0.0703,0.02049 0.15234,-0.01758 z m 0.20703,-0.375 c 0.0396,-0.04431 0.0792,-0.0888 0.11914,-0.132812 0.17175,-0.341121 0.32236,-0.666047 0.20899,-0.466797 -0.1127,0.198045 -0.21719,0.400582 -0.32813,0.599609 z m 41.23242,-74.394528 c -0.17384,0.33986 -0.34764,0.67966 -0.52148,1.01953 0.0399,0.14845 0.099,0.29721 0.16211,0.44531 0.17482,-0.3121 0.33794,-0.57969 0.5039,-0.85547 l 0.0195,-0.53125 c -0.053,-0.0256 -0.11126,-0.0525 -0.16407,-0.0781 z m -4.23828,22.4082 c -0.006,0.213889 0.0838,0.521645 0.39844,1.109375 -0.15369,-0.376435 -0.28471,-0.742593 -0.39844,-1.109375 z m 0.60547,25.050781 c 0.13853,0.220336 0.32574,0.422396 0.71875,0.833985 -0.22348,-0.288032 -0.47494,-0.558582 -0.71875,-0.833985 z m 1.86133,4.486328 c -1.05801,1.51555 -1.53676,1.981185 -1.39649,3.570313 0.24999,-1.159664 0.66402,-2.334154 1.39649,-3.570313 z m -39.26758,6.789063 c -0.0143,0.04464 -0.0362,0.07329 -0.0449,0.126953 -0.0747,0.46337 -0.10505,1.870969 -0.0391,1.40625 0.0719,-0.506227 0.0581,-1.022131 0.084,-1.533203 z m 6.93164,2.365234 c -0.0313,0.0082 -0.062,0.06553 -0.0898,0.183594 -0.2747,1.163494 -0.0898,2.388743 -0.0957,3.589844 0.13887,-0.22232 0.26453,-0.451346 0.35743,-0.689453 0.30863,-0.791098 0.0474,-3.14161 -0.17188,-3.083985 z m 29.72852,18.644532 c 0.0916,0.616843 0.40698,1.496119 0.24218,0.857421 -0.11906,-0.46145 -0.18242,-0.660967 -0.24218,-0.857421 z m -0.97266,19.8378901 c -0.0384,-0.059389 -0.56889,1.0205505 -0.70313,1.4375 -0.11536,0.3585174 -0.15843,0.7045279 -0.14843,1.0488281 0.15022,-0.2590691 0.39534,-0.8505738 0.83398,-2.3847656 0.0172,-0.060164 0.0231,-0.093078 0.0176,-0.1015625 z m -0.82031,2.8339844 c 0.0253,0.1925739 0.0598,0.3869397 0.11328,0.5820313 0.0287,0.1042728 -0.0143,-0.2163397 -0.0215,-0.3242188 -0.0346,-0.086453 -0.0582,-0.1715681 -0.0918,-0.2578125 z M -7.5585938,188.97656 l -0.037109,9.375 -0.25,9.46485 0.4609375,9.35547 -0.7792969,9.54687 0.2851563,9.43164 0.2460937,9.63477 -0.1503906,9.25 0.082031,9.52539 0.4277344,9.5 -0.2558594,9.33398 7.78515628,0.38281 7.65820312,-0.30468 -0.017578,-9.45118 0.080078,-9.67773 -0.8984375,-9.98633 -0.029297,-8.33398 0.1054688,-9.78516 0.9667969,-10.23047 -0.1015626,-8.71289 -0.3867187,-9.72851 0.1855469,-9.32422 -0.4296875,-9.08789 z m -198.9882862,0.18555 0.16016,0.0234 -0.35156,0.004 z" />
    <ellipse
       style="fill:none;stroke:#000000;stroke-width:1.5"
       id="path1655"
       cx="-35.098839"
       cy="-2.2706223"
       rx="5"
       ry="7.5" />
    <ellipse
       style="fill:none;stroke:#000000;stroke-width:1.5"
       id="path1655-1"
       cx="-9.8160715"
       cy="-3.1433604"
       rx="5"
       ry="7.5" />
    <path
       style="fill:none;stroke:#000000;stroke-width:0.264583px;stroke-linecap:butt;stroke-linejoin:miter;stroke-opacity:1"
       d="M -34.999998,-10 H -10"
       id="path1691" />
    <path
       style="fill:none;stroke:#000000;stroke-width:0.264583px;stroke-linecap:butt;stroke-linejoin:miter;stroke-opacity:1"
       d="M -34.999998,5 H -10"
       id="path1693" />
    <ellipse
       style="fill:none;stroke:#000000;stroke-width:1.5"
       id="path1695"
       cx="-30.000002"
       cy="20"
       rx="5"
       ry="10" />
    <ellipse
       style="fill:none;stroke:#000000;stroke-width:1.5"
       id="path1697"
       cx="15"
       cy="20"
       rx="5"
       ry="10" />
    <path
       style="fill:none;stroke:#000000;stroke-width:1.5;stroke-linecap:butt;stroke-linejoin:miter;stroke-opacity:1;stroke-miterlimit:4;stroke-dasharray:none"
       d="M 15,10 H -30"
       id="path1699" />
    <path
       style="fill:none;stroke:#000000;stroke-width:1.5;stroke-linecap:butt;stroke-linejoin:miter;stroke-opacity:1;stroke-miterlimit:4;stroke-dasharray:none"
       d="M -30,30 H 15"
       id="path1701" />
  </g>
</svg>
