<?xml version="1.0" encoding="UTF-8" standalone="no"?>
<svg
   width="210mm"
   height="297mm"
   viewBox="0 0 210 297"
   version="1.1"
   id="svg915"
   inkscape:version="1.3 (0e150ed, 2023-07-21)"
   sodipodi:docname="yagi 2.svg"
   inkscape:export-filename="../Basics/img/yagi 2.png"
   inkscape:export-xdpi="36.268444"
   inkscape:export-ydpi="36.268444"
   xmlns:inkscape="http://www.inkscape.org/namespaces/inkscape"
   xmlns:sodipodi="http://sodipodi.sourceforge.net/DTD/sodipodi-0.dtd"
   xmlns="http://www.w3.org/2000/svg"
   xmlns:svg="http://www.w3.org/2000/svg"
   xmlns:rdf="http://www.w3.org/1999/02/22-rdf-syntax-ns#"
   xmlns:cc="http://creativecommons.org/ns#"
   xmlns:dc="http://purl.org/dc/elements/1.1/">
  <defs
     id="defs909">
    <inkscape:path-effect
       effect="roughen"
       id="path-effect4"
       is_visible="true"
       lpeversion="1.2"
       global_randomize="1;1"
       displace_x="0.3;1"
       displace_y="0.3;1"
       method="size"
       max_segment_size="2.63782"
       segments="2"
       handles="along"
       shift_nodes="true"
       fixed_displacement="false"
       spray_tool_friendly="false" />
    <inkscape:path-effect
       effect="roughen"
       id="path-effect1023"
       is_visible="true"
       lpeversion="1"
       method="size"
       max_segment_size="0.06"
       segments="2"
       displace_x="3;1"
       displace_y="3;1"
       global_randomize="1;1"
       handles="along"
       shift_nodes="true"
       fixed_displacement="true"
       spray_tool_friendly="true" />
    <inkscape:path-effect
       effect="roughen"
       id="path-effect1021"
       is_visible="true"
       lpeversion="1"
       method="size"
       max_segment_size="0.06"
       segments="2"
       displace_x="3;1"
       displace_y="3;1"
       global_randomize="1;1"
       handles="along"
       shift_nodes="true"
       fixed_displacement="true"
       spray_tool_friendly="true" />
    <inkscape:path-effect
       effect="roughen"
       id="path-effect1019"
       is_visible="true"
       lpeversion="1"
       method="size"
       max_segment_size="0.06"
       segments="2"
       displace_x="3;1"
       displace_y="3;1"
       global_randomize="1;1"
       handles="along"
       shift_nodes="true"
       fixed_displacement="true"
       spray_tool_friendly="true" />
    <marker
       style="overflow:visible;"
       id="marker1984"
       refX="0.0"
       refY="0.0"
       orient="auto"
       inkscape:stockid="Arrow1Mend"
       inkscape:isstock="true">
      <path
         transform="scale(0.4) rotate(180) translate(10,0)"
         style="fill-rule:evenodd;stroke:#000000;stroke-width:1pt;stroke-opacity:1;fill:#000000;fill-opacity:1"
         d="M 0.0,0.0 L 5.0,-5.0 L -12.5,0.0 L 5.0,5.0 L 0.0,0.0 z "
         id="path1982" />
    </marker>
    <marker
       style="overflow:visible"
       id="marker1938"
       refX="0.0"
       refY="0.0"
       orient="auto"
       inkscape:stockid="Arrow1Mstart"
       inkscape:isstock="true">
      <path
         transform="scale(0.4) translate(10,0)"
         style="fill-rule:evenodd;stroke:#000000;stroke-width:1pt;stroke-opacity:1;fill:#000000;fill-opacity:1"
         d="M 0.0,0.0 L 5.0,-5.0 L -12.5,0.0 L 5.0,5.0 L 0.0,0.0 z "
         id="path1936" />
    </marker>
    <marker
       style="overflow:visible;"
       id="Arrow1Mend"
       refX="0.0"
       refY="0.0"
       orient="auto"
       inkscape:stockid="Arrow1Mend"
       inkscape:isstock="true"
       inkscape:collect="always">
      <path
         transform="scale(0.4) rotate(180) translate(10,0)"
         style="fill-rule:evenodd;stroke:#000000;stroke-width:1pt;stroke-opacity:1;fill:#000000;fill-opacity:1"
         d="M 0.0,0.0 L 5.0,-5.0 L -12.5,0.0 L 5.0,5.0 L 0.0,0.0 z "
         id="path1529" />
    </marker>
    <marker
       style="overflow:visible"
       id="Arrow1Mstart"
       refX="0.0"
       refY="0.0"
       orient="auto"
       inkscape:stockid="Arrow1Mstart"
       inkscape:isstock="true"
       inkscape:collect="always">
      <path
         transform="scale(0.4) translate(10,0)"
         style="fill-rule:evenodd;stroke:#000000;stroke-width:1pt;stroke-opacity:1;fill:#000000;fill-opacity:1"
         d="M 0.0,0.0 L 5.0,-5.0 L -12.5,0.0 L 5.0,5.0 L 0.0,0.0 z "
         id="path1526" />
    </marker>
  </defs>
  <sodipodi:namedview
     id="base"
     pagecolor="#ffffff"
     bordercolor="#666666"
     borderopacity="1.0"
     inkscape:pageopacity="0.0"
     inkscape:pageshadow="2"
     inkscape:zoom="1.004364"
     inkscape:cx="60.734953"
     inkscape:cy="31.860959"
     inkscape:document-units="mm"
     inkscape:current-layer="layer1"
     inkscape:document-rotation="0"
     showgrid="true"
     inkscape:snap-grids="true"
     showborder="false"
     inkscape:window-width="1600"
     inkscape:window-height="1146"
     inkscape:window-x="0"
     inkscape:window-y="0"
     inkscape:window-maximized="1"
     inkscape:showpageshadow="2"
     inkscape:pagecheckerboard="0"
     inkscape:deskcolor="#d1d1d1">
    <inkscape:grid
       type="xygrid"
       id="grid1478"
       units="mm"
       spacingx="1"
       spacingy="1"
       originx="0"
       originy="0"
       visible="true" />
  </sodipodi:namedview>
  <metadata
     id="metadata912">
    <rdf:RDF>
      <cc:Work
         rdf:about="">
        <dc:format>image/svg+xml</dc:format>
        <dc:type
           rdf:resource="http://purl.org/dc/dcmitype/StillImage" />
        <dc:title />
      </cc:Work>
    </rdf:RDF>
  </metadata>
  <g
     inkscape:label="Layer 1"
     inkscape:groupmode="layer"
     id="layer1">
    <rect
       style="fill:#ffffff;fill-opacity:1;stroke:#000000;stroke-width:0.1;stroke-miterlimit:4;stroke-dasharray:none"
       id="rect2028"
       width="210"
       height="210"
       x="-105"
       y="-105" />
    <path
       style="fill:none;stroke:#000000;stroke-width:0.5;stroke-linecap:butt;stroke-linejoin:miter;stroke-miterlimit:4;stroke-dasharray:none;stroke-opacity:1;marker-start:url(#Arrow1Mstart);marker-end:url(#Arrow1Mend)"
       d="M 100,0 H 0 -100"
       id="path1480" />
    <path
       style="fill:none;stroke:#000000;stroke-width:0.5;stroke-linecap:butt;stroke-linejoin:miter;stroke-miterlimit:4;stroke-dasharray:none;stroke-opacity:1;marker-start:url(#marker1938);marker-end:url(#marker1984)"
       d="M 0,100 V 0 -100"
       id="path1482" />
    <text
       xml:space="preserve"
       style="font-style:normal;font-variant:normal;font-weight:normal;font-stretch:normal;font-size:10.5833px;line-height:1.25;font-family:'Comic Sans MS';-inkscape-font-specification:'Comic Sans MS, Normal';font-variant-ligatures:normal;font-variant-caps:normal;font-variant-numeric:normal;font-variant-east-asian:normal;fill:#000000;fill-opacity:1;stroke:none;stroke-width:0.264583"
       x="4.8025718"
       y="-91.996384"
       id="text2032"><tspan
         sodipodi:role="line"
         id="tspan2030"
         x="4.8025718"
         y="-91.996384"
         style="font-style:normal;font-variant:normal;font-weight:normal;font-stretch:normal;font-size:10.5833px;font-family:'Comic Sans MS';-inkscape-font-specification:'Comic Sans MS, Normal';font-variant-ligatures:normal;font-variant-caps:normal;font-variant-numeric:normal;font-variant-east-asian:normal;stroke-width:0.264583">Y</tspan></text>
    <text
       xml:space="preserve"
       style="font-size:10.5833px;line-height:1.25;font-family:'Comic Sans MS';-inkscape-font-specification:'Comic Sans MS, Normal';stroke-width:0.264583"
       x="91.344681"
       y="12.775299"
       id="text2036"><tspan
         sodipodi:role="line"
         x="91.344681"
         y="12.775299"
         style="stroke-width:0.264583"
         id="tspan2038">X</tspan></text>
    <text
       xml:space="preserve"
       style="font-style:normal;font-variant:normal;font-weight:normal;font-stretch:normal;font-size:7.05556px;line-height:1.25;font-family:'Comic Sans MS';-inkscape-font-specification:'Comic Sans MS, Normal';font-variant-ligatures:normal;font-variant-caps:normal;font-variant-numeric:normal;font-variant-east-asian:normal;stroke-width:0.264583"
       x="93.276848"
       y="-3.9561055"
       id="text2044"><tspan
         sodipodi:role="line"
         id="tspan2042"
         x="93.276848"
         y="-3.9561055"
         style="font-style:normal;font-variant:normal;font-weight:normal;font-stretch:normal;font-size:7.05556px;font-family:'Comic Sans MS';-inkscape-font-specification:'Comic Sans MS, Normal';font-variant-ligatures:normal;font-variant-caps:normal;font-variant-numeric:normal;font-variant-east-asian:normal;stroke-width:0.264583">0째</tspan></text>
    <text
       xml:space="preserve"
       style="font-style:normal;font-variant:normal;font-weight:normal;font-stretch:normal;font-size:7.05556px;line-height:1.25;font-family:'Comic Sans MS';-inkscape-font-specification:'Comic Sans MS, Normal';font-variant-ligatures:normal;font-variant-caps:normal;font-variant-numeric:normal;font-variant-east-asian:normal;stroke-width:0.264583"
       x="3.3950598"
       y="100.40604"
       id="text2044-1"><tspan
         sodipodi:role="line"
         id="tspan2120"
         x="3.3950598"
         y="100.40604">90째</tspan></text>
    <text
       xml:space="preserve"
       style="font-style:normal;font-variant:normal;font-weight:normal;font-stretch:normal;font-size:7.05556px;line-height:1.25;font-family:'Comic Sans MS';-inkscape-font-specification:'Comic Sans MS, Normal';font-variant-ligatures:normal;font-variant-caps:normal;font-variant-numeric:normal;font-variant-east-asian:normal;stroke-width:0.264583"
       x="-101.40144"
       y="8.5540495"
       id="text2044-0"><tspan
         sodipodi:role="line"
         id="tspan2122"
         x="-101.40144"
         y="8.5540495">180째</tspan></text>
    <text
       xml:space="preserve"
       style="font-style:normal;font-variant:normal;font-weight:normal;font-stretch:normal;font-size:7.05556px;line-height:1.25;font-family:'Comic Sans MS';-inkscape-font-specification:'Comic Sans MS, Normal';font-variant-ligatures:normal;font-variant-caps:normal;font-variant-numeric:normal;font-variant-east-asian:normal;stroke-width:0.264583"
       x="-17.410444"
       y="-94.769386"
       id="text2044-9"><tspan
         sodipodi:role="line"
         id="tspan2124"
         x="-17.410444"
         y="-94.769386">270째</tspan></text>
    <path
       id="path4-3"
       style="fill:none;stroke:#000000;stroke-width:1.5;stroke-linecap:butt;stroke-linejoin:miter;stroke-dasharray:none;stroke-opacity:1"
       d="m -56.880621,50.079161 -0.05657,2.413415 0.177722,2.610415 -0.0502,2.397631 -0.04316,2.514707 -0.0054,2.535592 0.04458,2.52464 -0.06175,2.380157 0.0879,2.618963 -0.01087,2.460798 0.03557,2.520684 -0.01301,2.471683 -0.0127,2.493562 -0.08626,2.317991 -0.05444,2.565678 0.105119,2.604228 -0.0516,2.49537 2.00447,0.0026 2.005431,0.0026 0.254919,-2.481979 -0.04917,-2.714438 0.0059,-2.281485 -0.0089,-2.497903 0.1337,-2.441735 -0.03615,-2.582034 -0.03173,-2.485943 -0.05013,-2.525416 -0.06014,-2.496178 -0.03735,-2.556275 -0.03896,-2.409713 -0.02459,-2.481596 -0.04878,-2.637284 0.157086,-2.295643 -0.0529,-2.518063 -0.05591,-2.472602 m -6.071709,-20.052367 0.157013,2.516823 -0.0798,2.388993 0.04207,2.622004 -0.07297,2.260262 0.0047,2.728002 0.09805,2.487718 -0.116056,2.448423 0.04514,2.602156 1.95122,-0.04697 1.998769,-0.01398 1.92522,-0.178671 2.003667,0.107572 -0.04839,-2.640301 -0.0084,-2.453635 0.0043,-2.596707 0.01373,-2.372553 0.0258,-2.383318 0.255651,-2.447117 -0.0044,-2.524558 -0.221351,-2.768206 m -5.973907,-79.735939 -0.0064,-2.514469 0.05376,-2.453542 -0.0117,-2.556056 0.11956,-2.459386 -0.01105,-2.540988 0.11697,-2.476121 -0.0317,-2.543131 -0.06899,-2.569377 0.05169,-2.399266 -0.0095,-2.520591 0.01073,-2.487917 0.03002,-2.487564 0.09331,-2.508113 -0.165437,-2.706312 -0.06628,-2.340175 -0.145506,-2.590561 2.185298,0.06204 2.01588,0.07675 -0.01004,2.408621 -0.02741,2.571798 0.08583,2.531076 -0.02698,2.472031 -0.02195,2.316722 -0.0057,2.713025 0.03841,2.5229 -0.04015,2.406347 -0.04909,2.51362 0.149811,2.61921 -0.06184,2.398297 -0.06733,2.503268 -0.03305,2.533891 -0.02269,2.502986 0.01686,2.508387 -0.144779,2.35573 m -5.940491,20.13687 -0.0035,-2.579719 0.171165,-2.36101 -0.03674,-2.752164 -0.02729,-2.336733 -0.0264,-2.471924 0.141158,-2.431015 -0.135046,-2.602554 0.03975,-2.399255 1.952484,-0.03499 1.961552,-0.242328 1.943055,0.01971 2.207843,0.212967 0.09323,2.542581 -0.0114,2.475366 0.0098,2.497526 -0.02495,2.503457 -0.05685,2.477091 0.08532,2.527374 0.0036,2.505123 -0.12413,2.453065 m -10.217565,-0.05668 2.671963,0.08538 2.23931,0.03812 2.383583,0.0048 2.358945,-0.04968 2.401206,-0.07103 0.07054,2.66234 0.01749,2.574626 -0.04818,2.465802 -0.007,2.726276 -0.0031,2.620846 -0.03542,2.537519 0.0014,2.68762 0.02067,2.6250688 -0.02652,2.5664519 0.05316,2.678973 0.05165,2.6154646 0.08851,2.6288429 -0.01613,2.5490478 0.200589,2.6389331 -0.0058,2.6125046 -0.06428,2.5600263 -0.04619,2.629264 -0.0406,2.614146 -0.0179,2.63107 -0.05154,2.579851 -0.04939,2.586029 -0.07338,2.544006 0.0063,2.714877 -2.416967,-0.0094 -2.424424,-0.05913 -2.400252,0.0047 -2.226668,0.05446 -2.582394,-0.02848 0.08848,-2.546204 -0.05942,-2.786643 0.187088,-2.422305 -0.0035,-2.671696 -0.0108,-2.610222 0.0013,-2.604491 -0.01256,-2.611821 0.01693,-2.5798854 -0.0087,-2.6280658 -0.01918,-2.88731 -0.0099,-2.3295189 -0.06076,-2.6772984 0.0179,-2.5152876 0.07412,-2.5847009 -0.03978,-2.6732474 -0.03438,-2.6405516 -0.03185,-2.643774 -0.04994,-2.564065 0.09005,-2.537212 -0.019,-2.625717 0.01061,-2.574975 0.125229,-2.598169 z M -2,49.999997 l -0.00412,2.492035 0.042371,2.517579 0.067822,2.516341 0.1943223,2.489686 0.091177,2.548268 -0.012747,2.486535 0.031637,2.521991 -0.1769489,2.390722 0.010784,2.558016 -0.2996726,2.350781 1.98823548,0.007 2.10258022,0.121866 0.1395754,-2.487702 -0.030526,-2.534979 8.438e-4,-2.461357 -0.075038,-2.72292 -0.012478,-2.295259 0.026574,-2.46557 0.014782,-2.503055 -0.070638,-2.579321 0.00677,-2.433314 -0.038627,-2.520808 m -5.9966768,-19.996511 0.060113,2.539564 0.097977,2.462687 -0.072815,2.399272 8.657e-4,2.611459 0.041468,2.5351 0.00816,2.460488 0.053112,2.557808 -0.1998705,2.396885 1.9959351,-0.06801 2.00667627,-0.09339 2.00037583,0.08931 2.0684243,0.133809 0.022531,-2.485897 -0.019172,-2.707181 0.030702,-2.293862 -0.020106,-2.530054 -0.078804,-2.635271 -0.01153,-2.448682 0.01169,-2.417226 -0.00307,-2.514506 M -2,-49.999997 l -0.030968,-2.535953 0.00866,-2.461242 0.014428,-2.498885 0.012406,-2.501506 0.020009,-2.494999 0.097254,-2.444873 -0.035716,-2.643328 -0.034254,-2.426437 -0.010476,-2.481497 -0.081398,-2.562778 2.01820066,0.02388 2.03613584,0.03926 -0.028802,2.432716 0.017362,2.573718 2.868e-4,2.490597 -0.030055,2.45771 0.00257,2.537346 0.02324,2.518017 -0.00129,2.480014 0.047384,2.504961 0.1485945,2.509026 -0.061464,2.504958 m -6.1321108,19.97929 0.1164551,-2.434979 -0.00379,-2.555792 -0.025387,-2.593841 0.1551534,-2.35802 -0.087862,-2.742814 0.0371,-2.260022 0.088763,-2.550005 -0.2539047,-2.483927 2.0454057,0.0029 1.94306701,-0.0061 1.98779899,-0.141752 2.27982,0.13218 -0.074004,2.437266 0.056988,2.612335 -0.059485,2.427608 -0.044953,2.515623 -0.00796,2.522495 -0.033869,2.484928 0.1500096,2.49734 -0.305987,2.423265 m -9.9814893,0.07043 2.4042723,-0.0043 2.4055011,-0.05602 2.393853,-0.03748 2.4174774,0.01995 2.4381238,0.08315 -0.00737,2.601873 0.083626,2.624504 0.1731841,2.646455 -0.022703,2.527415 -0.035051,2.605188 0.1605049,2.682064 0.1005558,2.607561 0.059749,2.6249064 0.1696607,2.5886055 -0.074141,2.5585562 0.023275,2.6888423 -0.049677,2.5623227 0.094544,2.6192857 -0.046133,2.6006113 0.083104,2.6634486 -0.1379171,2.4789593 -0.1068023,2.659485 0.056869,2.68411 -0.074818,2.575848 -0.1249872,2.446806 -0.1462533,2.680419 -0.1054624,2.591527 -0.094311,2.679536 -2.2853636,0.02934 -2.5536494,-0.04358 -2.4304294,-0.179937 -2.4095857,-0.09014 -2.296264,0.286653 -0.00762,-2.61584 0.1184325,-2.530582 -0.020455,-2.852743 0.047044,-2.400174 0.1529951,-2.60528 0.098136,-2.585412 -0.043202,-2.695145 0.1083048,-2.5443372 -0.1059752,-2.787055 -0.00565,-2.4730128 -0.042058,-2.6253137 0.00399,-2.5659742 -0.031267,-2.6375985 -0.041595,-2.6268736 0.00167,-2.5687749 -6.774e-4,-2.6240041 0.09329,-2.575409 1.03e-5,-2.641411 -0.093059,-2.651829 -0.1219262,-2.658793 -0.096417,-2.604676 -0.012794,-2.51869 z m 68.9937575,80.080012 -0.01829,2.41512 -0.02999,2.504227 0.129933,2.594085 -0.0587,2.386593 0.01127,2.538159 -0.08467,2.379794 2.168999,0.09083 1.820518,-0.156061 0.103965,-2.409847 -0.0063,-2.505597 -0.06687,-2.648023 0.0015,-2.288617 0.01128,-2.523451 0.02801,-2.375046 m -6.010629,-20.002164 -0.02446,2.470849 -0.04246,2.471282 0.05277,2.578349 0.01188,2.486765 -0.0019,2.4902 0.130471,2.557785 -0.134951,2.321497 0.04359,2.633096 1.962328,-0.221908 2.056584,0.09838 2.059085,0.07038 1.879422,0.03535 -0.01266,-2.515482 -0.04351,-2.678903 0.0083,-2.304495 0.02929,-2.482971 0.0096,-2.511372 0.06982,-2.483241 -0.06411,-2.594725 0.0494,-2.398854 m -6.132327,-80.121038 0.245297,-2.564504 -0.05681,-2.588341 -0.04192,-2.554823 -0.07875,-2.718738 0.0054,-2.393749 -0.03643,-2.576398 2.062091,-0.03131 2.12506,0.02504 0.152798,2.613134 -0.0105,2.538362 0.05855,2.554647 -0.101213,2.534631 0.103948,2.639601 -0.2456,2.515848 m -6.088043,20.105675 0.101747,-2.437845 -0.05286,-2.70505 -0.01026,-2.359904 -0.04979,-2.586066 0.01192,-2.402973 0.160991,-2.447187 -0.08018,-2.561795 -0.150971,-2.628076 1.998894,-0.005 2.056272,0.06014 2.160527,0.05843 1.814139,-0.06218 0.02478,2.514643 -0.0074,2.248768 0.0036,2.76519 0.121242,2.523265 -0.01966,2.500973 0.0011,2.531853 0.01859,2.515721 -0.08051,2.496755 m -9.927704,0.04805 2.358387,-0.02105 2.343809,-0.01172 2.49843,-0.0036 2.280339,-0.114221 2.468002,0.105613 -0.04968,2.512464 0.176031,2.754769 -0.0061,2.556733 -0.0073,2.607191 -0.01353,2.558402 0.243912,2.682353 0.02639,2.62386 -0.0117,2.5756844 -0.07043,2.5299517 -0.07856,2.5426757 -0.0057,2.7519789 -0.02137,2.5947763 -0.02734,2.596943 -0.02929,2.6034262 -0.01872,2.5794452 -0.06684,2.5295116 -0.0076,2.733198 0.03978,2.614557 -0.03455,2.580482 -0.06424,2.550573 0.07185,2.693924 9.42e-4,2.62761 -0.09195,2.555179 -2.440334,-0.03969 -2.403363,-0.06734 -2.121265,0.05179 -2.609914,0.04833 -2.400046,0.05586 0.09905,-2.573933 -0.01661,-2.680018 -0.0094,-2.766374 0.09231,-2.368522 0.0069,-2.644556 -0.04448,-2.672659 -0.01496,-2.611091 -0.002,-2.5564293 -0.05441,-2.7196854 -0.0096,-2.5111369 0.06209,-2.5736646 0.131214,-2.6102123 0.217467,-2.6393958 -0.02684,-2.5981072 0.03536,-2.5813172 -0.08614,-2.6905683 0.05548,-2.538603 -0.119726,-2.702851 -0.04973,-2.539192 -0.07792,-2.884152 -0.0021,-2.297575 0.03739,-2.652487 z"
       inkscape:path-effect="#path-effect4"
       inkscape:original-d="m -56.880621,50.079161 v 39.920836 h 4 V 50.079161 m -6,-19.999999 v 19.999999 h 8 V 30.079162 m -6,-79.999995 v -40.079164 h 4 v 40.079164 m -6,19.999999 v -19.999999 h 8 v 19.999999 m -10.017294,-1e-6 h 12.034591 v 60 H -60.897915 Z M -2,49.999997 v 25 h 4 v -25 M -4.0000002,29.999998 V 49.999997 H 4.0000002 V 29.999998 M -2,-49.999997 v -25 h 4 v 25 m -6.0000002,19.999999 v -19.999999 h 8.0000004 v 19.999999 M -6.0172954,-30 H 6.0172954 V 30 H -6.0172954 Z M 62.975629,50.079161 v 14.920837 h 4 V 50.079161 m -6,-19.999999 v 19.999999 h 8 V 30.079162 m -6.093875,-80.099065 v -15.418471 h 4.18775 v 15.418471 m -6.093875,20.099069 v -19.999999 h 8 v 19.999999 m -10.017297,-1e-6 h 12.034591 v 60 H 58.958332 Z" />
  </g>
</svg>
